<svg width="20" height="20" viewBox="0 0 20 20" fill="none" xmlns="http://www.w3.org/2000/svg">
<path fill-rule="evenodd" clip-rule="evenodd" d="M14.1994 13.0203C15.2262 11.7366 15.8402 10.1084 15.8402 8.33675C15.8402 4.19272 12.4808 0.833328 8.33676 0.833328C4.19274 0.833328 0.833344 4.19272 0.833344 8.33675C0.833344 12.4808 4.19274 15.8402 8.33676 15.8402C10.1084 15.8402 11.7367 15.2262 13.0203 14.1993L17.7434 18.9225C18.069 19.2481 18.5969 19.2481 18.9225 18.9225C19.2481 18.5969 19.2481 18.069 18.9225 17.7434L14.1994 13.0203ZM8.33676 14.1811C5.10901 14.1811 2.4924 11.5645 2.4924 8.33675C2.4924 5.109 5.10901 2.49239 8.33676 2.49239C11.5645 2.49239 14.1811 5.109 14.1811 8.33675C14.1811 11.5645 11.5645 14.1811 8.33676 14.1811Z" fill="#485079"/>
</svg>
