<svg width="390" height="1017" viewBox="0 0 390 1017" fill="none" xmlns="http://www.w3.org/2000/svg">
<path d="M171.655 92.5767C53.6546 108.577 32.6545 46.5182 -31.3456 70.5767C-95.3457 94.6351 -68.3456 999.576 -68.3456 999.576C-68.3456 999.576 47.6545 952 109.655 966C171.655 980 169.655 1019 257.655 1016C345.655 1013 380.655 945 424.655 952C468.655 959 519.655 0 395.655 0C271.655 0 289.655 76.5768 171.655 92.5767Z" fill="#76C4EF"/>
<mask id="mask0_172_11" style="mask-type:alpha" maskUnits="userSpaceOnUse" x="-74" y="0" width="548" height="1017">
<path d="M171.655 92.5767C53.6546 108.577 32.6545 46.5182 -31.3456 70.5767C-95.3457 94.6351 -68.3456 999.576 -68.3456 999.576C-68.3456 999.576 47.6545 952 109.655 966C171.655 980 169.655 1019 257.655 1016C345.655 1013 380.655 945 424.655 952C468.655 959 519.655 0 395.655 0C271.655 0 289.655 76.5768 171.655 92.5767Z" fill="#76C4EF"/>
</mask>
<g mask="url(#mask0_172_11)">
<path d="M35.1182 193.136C44.1138 59.8968 140.066 -99.9906 314.98 40.6512C489.894 181.293 499.889 -51.1361 544.866 76.1817C589.844 203.5 302.986 202.019 308.983 298.248C314.98 394.476 499.889 310.091 499.889 478.861C499.889 647.631 108.082 678.721 122.075 837.128C136.068 995.534 535.871 548.442 499.889 822.323C463.906 1096.2 212.034 1094.38 206.655 969C201.275 843.622 -163.783 1091.76 -125.802 856.373C-87.821 620.983 220.027 619.503 219.027 469.979C218.028 320.454 26.1227 326.376 35.1182 193.136Z" fill="white" fill-opacity="0.1"/>
</g>
</svg>
