<svg width="130" height="133" viewBox="0 0 130 133" fill="none" xmlns="http://www.w3.org/2000/svg">
<path d="M103.397 40.8396C82.9089 20.9846 42.6387 21.8957 24.8259 30.99C7.01321 40.0843 10.3935 69.7966 23.9692 88.6898C37.5448 107.583 55.7728 121.294 80.5302 113.707C105.288 106.119 123.886 60.6945 103.397 40.8396Z" fill="white" fill-opacity="0.4"/>
<g filter="url(#filter0_d_127_13)">
<path d="M59.7822 27.7674C36.9713 35.5639 22.1865 66.2447 22.1865 83.1579C22.1865 100.071 45.8422 108.95 65.2737 105.991C84.7052 103.031 102.025 94.5743 105.826 73.0101C109.628 51.4458 82.593 19.9708 59.7822 27.7674Z" fill="white"/>
</g>
<path d="M68.2753 85.2965C68.2753 85.7652 68.2753 86.1245 68.2753 86.4838C68.1659 86.515 68.1034 86.5463 68.0253 86.5463C63.8386 86.5463 59.6362 86.5619 55.4494 86.5463C54.184 86.5463 53.3091 85.5777 53.3091 84.2498C53.2935 82.1408 53.3091 80.0318 53.3091 77.8134C53.0279 77.8134 52.778 77.8134 52.528 77.8134C50.6221 77.8134 48.7318 77.8134 46.8259 77.8134C45.7167 77.8134 45.1855 77.2979 45.1855 76.1887C45.1855 74.2515 45.1855 72.33 45.1855 70.3616C45.6073 70.3616 45.9667 70.3616 46.4197 70.3616C46.4197 72.3769 46.4197 74.4078 46.4197 76.4855C52.3562 76.4855 58.2145 76.4855 64.151 76.4855C64.4322 74.9389 64.7134 73.3923 64.979 71.8301C65.2602 70.2366 66.0569 68.9243 67.2442 67.7527C66.2288 66.6591 65.4945 65.4249 65.2914 63.9408C65.2133 63.4097 65.2133 62.8473 65.1977 62.3161C65.1821 61.5975 65.1196 60.9413 64.8071 60.2227C64.5259 59.5822 64.4635 58.5668 64.7759 57.9887C65.3539 56.9264 64.9946 55.8016 65.4633 54.6924C64.0573 54.6924 62.7919 54.6924 61.4796 54.6924C61.4796 54.255 61.4796 53.8957 61.4796 53.4427C62.7919 53.4427 64.0885 53.4583 65.3852 53.427C65.6195 53.427 65.9788 53.3021 66.0882 53.1302C67.7598 50.49 70.15 49.459 73.1963 49.7558C73.5244 48.2717 73.1807 47.803 71.7278 47.803C70.8217 47.803 69.9156 47.803 69.0252 47.803C68.7127 49.7558 68.0566 50.3026 66.0882 50.3026C64.5728 50.3026 63.0731 50.3026 61.5577 50.3026C59.8549 50.3026 59.0738 49.5996 58.9019 47.8186C57.7302 47.8186 56.543 47.7718 55.3557 47.8655C55.0745 47.8811 54.6214 48.3967 54.6058 48.6935C54.5277 50.2401 54.5745 51.8023 54.5745 53.4114C56.4492 53.4114 58.2614 53.4114 60.1361 53.4114C60.1361 53.8488 60.1361 54.2081 60.1361 54.6612C55.6212 54.6612 51.1064 54.6612 46.4822 54.6612C46.4822 59.4729 46.4822 64.222 46.4822 69.0181C46.0135 69.0181 45.6386 69.0181 45.1855 69.0181C45.1855 68.7369 45.1855 68.4869 45.1855 68.237C45.1855 63.9096 45.1855 59.5978 45.1855 55.2705C45.1855 53.8957 45.6542 53.427 47.0134 53.427C49.0911 53.427 51.1533 53.427 53.3091 53.427C53.3091 51.9585 53.3091 50.5525 53.3091 49.1621C53.3091 47.3968 54.1371 46.5532 55.8712 46.5532C61.2609 46.5532 66.6506 46.5532 72.0403 46.5532C73.7275 46.5532 74.6023 47.3968 74.5398 49.1153C74.5086 49.8808 74.821 50.1932 75.3991 50.615C76.3364 51.2868 77.0863 52.1929 77.9299 52.9896C78.1486 53.1927 78.4454 53.4114 78.711 53.427C79.4921 53.4895 80.2732 53.4427 81.0543 53.4427C82.1166 53.4583 82.6478 53.9738 82.6634 55.0049C82.679 55.911 82.6634 56.8171 82.6634 57.77C82.226 57.77 81.8511 57.77 81.4136 57.77C81.4136 56.7702 81.4136 55.786 81.4136 54.7549C80.4763 54.7549 79.6171 54.7549 78.6797 54.7549C79.0547 55.8485 78.8203 56.9889 79.3515 58.0825C79.6483 58.723 79.3202 59.6759 79.2265 60.4727C79.1796 60.9101 78.9141 61.3475 78.9297 61.785C79.039 64.0502 78.5079 66.0655 76.8207 67.7527C79.539 70.0648 79.1953 73.4548 79.9764 76.4855C80.4138 76.4855 80.8356 76.4855 81.3668 76.4855C81.3668 70.7053 81.3668 64.925 81.3668 59.0823C81.8354 59.0823 82.2104 59.0823 82.6634 59.0823C82.6634 59.3635 82.6634 59.6135 82.6634 59.8634C82.6634 65.2219 82.6634 70.5959 82.6634 75.9544C82.6634 77.3135 82.1948 77.7822 80.8356 77.7822C78.836 77.7822 76.8207 77.7822 74.821 77.7822C74.7742 77.7822 74.7117 77.7978 74.5398 77.8134C74.5398 78.0478 74.5398 78.2821 74.5398 78.532C74.5398 80.4067 74.5555 82.2814 74.5398 84.1561C74.5242 85.6089 73.6494 86.4994 72.2121 86.515C71.3529 86.5307 70.4937 86.515 69.5876 86.515C69.5876 86.0932 69.5876 85.7183 69.5876 85.2653C70.4624 85.2653 71.3373 85.2653 72.2277 85.2653C72.8839 85.2653 73.2744 84.9372 73.2744 84.2654C73.29 82.1408 73.2744 80.0005 73.2744 77.8134C67.0255 77.8134 60.8235 77.8134 54.5433 77.8134C54.5433 80.0162 54.5121 82.1877 54.5589 84.3748C54.5745 85.0934 55.1369 85.2653 55.7775 85.2653C59.6049 85.2496 63.4324 85.2653 67.2598 85.2653C67.6035 85.2965 67.916 85.2965 68.2753 85.2965ZM65.3539 76.5168C69.8844 76.5168 74.243 76.5168 78.7578 76.5168C78.336 74.5796 78.008 72.6893 77.5081 70.8459C77.1956 69.6898 76.3208 68.8462 75.3366 68.1745C75.0085 67.9558 74.7585 67.8776 74.3836 68.1432C72.8526 69.2055 71.2748 69.1899 69.7282 68.1432C69.3845 67.9089 69.1658 67.9089 68.8377 68.1276C67.8222 68.815 66.9318 69.6742 66.6037 70.8459C66.1038 72.6893 65.7757 74.5796 65.3539 76.5168ZM73.8993 54.9736C72.3215 56.3953 70.4624 57.0983 68.3065 57.2076C68.3065 57.895 68.3065 58.5355 68.3065 59.176C68.3065 61.9568 68.1191 61.6444 70.4468 63.1597C72.2277 64.3314 71.8528 64.3314 73.6181 63.1597C75.9927 61.5819 75.7896 61.9099 75.7896 59.0979C75.7896 56.6765 75.7896 56.6765 74.0399 55.0517C74.0399 55.0517 74.0087 55.0517 73.8993 54.9736ZM77.633 56.6452C77.7268 53.4114 75.0241 50.8337 71.8372 50.9275C68.8533 51.0212 66.2756 53.7082 66.4943 56.5827C66.7131 56.489 66.8849 56.4265 67.0724 56.3484C67.4004 56.2078 67.7285 55.9422 68.0566 55.9422C70.0719 55.911 71.8216 55.2392 73.2432 53.8176C73.7118 53.3489 74.0868 53.3177 74.5555 53.8176C75.3522 54.6768 76.1645 55.5048 76.9925 56.3328C77.1644 56.4578 77.3831 56.5202 77.633 56.6452ZM74.2586 64.2845C74.4773 64.9563 74.6648 65.5812 74.8835 66.1904C75.1803 66.9872 75.774 67.0965 76.3208 66.456C77.5393 65.0344 77.8205 63.3784 77.5081 61.5038C77.2112 61.6444 76.9769 61.8318 76.7738 62.0505C76.4145 62.4567 76.1177 62.9098 75.7115 63.2691C75.3053 63.644 74.8054 63.9252 74.2586 64.2845ZM66.4943 61.5038C66.2913 63.4097 66.5881 65.0656 67.8222 66.4716C68.3222 67.0497 68.9158 66.9872 69.197 66.2842C69.4626 65.6437 69.6344 64.9719 69.8531 64.3158C69.7594 64.222 69.7125 64.1595 69.6501 64.1283C68.6971 63.4722 67.6035 62.9722 67.1974 61.7381C67.1349 61.6131 66.7443 61.5819 66.4943 61.5038ZM67.666 47.8499C65.1665 47.8499 62.6981 47.8499 60.2298 47.8499C60.2454 48.7403 60.4954 49.0528 61.3077 49.0528C63.0574 49.0684 64.7915 49.0684 66.5412 49.0528C67.3536 49.0372 67.6035 48.7716 67.666 47.8499ZM70.8998 65.1906C70.7436 65.628 70.5249 66.1592 70.3999 66.706C70.3687 66.8622 70.5249 67.1434 70.6655 67.2528C71.4154 67.7995 72.7433 67.7839 73.4775 67.2371C73.6181 67.1278 73.7743 66.8466 73.7275 66.6904C73.5869 66.1436 73.3682 65.628 73.2276 65.1906C72.4152 65.1906 71.6966 65.1906 70.8998 65.1906ZM77.1019 60.2696C78.0548 60.254 78.336 59.9571 78.3048 58.9729C78.2892 58.1293 77.9767 57.8325 77.1019 57.8794C77.1019 58.6605 77.1019 59.4729 77.1019 60.2696ZM67.0255 60.2383C67.0255 59.4416 67.0255 58.6449 67.0255 57.8481C66.0725 57.8481 65.7913 58.1606 65.807 59.1448C65.8382 59.9884 66.135 60.2696 67.0255 60.2383Z" fill="#485079"/>
<path d="M55.7931 74.0485C53.8872 74.0485 51.9969 74.0485 50.0909 74.0485C48.5912 74.0485 47.7007 73.158 47.7007 71.6739C47.6851 68.2682 47.7007 64.8469 47.7007 61.4413C47.7007 59.9415 48.5756 59.0511 50.0753 59.0511C53.9028 59.0354 57.7302 59.0511 61.5577 59.0511C63.0574 59.0511 63.9479 59.9259 63.9479 61.4256C63.9635 64.8313 63.9635 68.2526 63.9479 71.6582C63.9479 73.158 63.0574 74.0485 61.5733 74.0485C59.6362 74.0641 57.7146 74.0485 55.7931 74.0485ZM55.8243 60.3008C53.9497 60.3008 52.075 60.3008 50.2003 60.3008C49.2473 60.3008 48.9349 60.5977 48.9349 61.5506C48.9349 64.8782 48.9349 68.2057 48.9349 71.5333C48.9349 72.4706 49.2473 72.783 50.2003 72.783C53.9184 72.783 57.6365 72.783 61.3546 72.783C62.3701 72.783 62.6669 72.4862 62.6669 71.4864C62.6669 68.1901 62.6669 64.8782 62.6669 61.5819C62.6669 60.582 62.3701 60.3008 61.3546 60.3008C59.5268 60.3008 57.6834 60.3008 55.8243 60.3008Z" fill="#485079"/>
<path d="M63.8698 84.0467C62.7762 84.0467 61.6827 84.0623 60.5891 84.0467C59.1519 84.0311 58.3083 83.0938 58.3083 81.5628C58.3083 80.0162 59.1363 79.0632 60.5579 79.0476C62.7919 79.032 65.0415 79.032 67.2755 79.0476C68.7127 79.0632 69.5563 80.0005 69.5563 81.5315C69.5563 83.0781 68.7283 84.0155 67.3067 84.0467C66.1663 84.0623 65.0102 84.0467 63.8698 84.0467ZM63.9323 82.7969C64.9946 82.7969 66.0569 82.8126 67.1349 82.7969C68.0097 82.7813 68.3222 82.4376 68.3065 81.5315C68.3065 80.6723 67.9941 80.313 67.1661 80.313C65.0102 80.2974 62.8544 80.2974 60.6985 80.313C59.8705 80.313 59.5581 80.6723 59.5581 81.5315C59.5581 82.4376 59.8549 82.7813 60.7297 82.7969C61.8077 82.8126 62.87 82.7969 63.9323 82.7969Z" fill="#485079"/>
<path d="M47.7164 57.1451C47.7164 56.7546 47.7164 56.3953 47.7164 55.9891C48.0913 55.9891 48.4662 55.9891 48.888 55.9891C48.888 56.3484 48.888 56.7233 48.888 57.1451C48.5131 57.1451 48.1382 57.1451 47.7164 57.1451Z" fill="#485079"/>
<path d="M50.2472 55.9578C50.6533 55.9578 50.997 55.9578 51.4032 55.9578C51.4032 56.364 51.4032 56.739 51.4032 57.1451C51.0127 57.1451 50.6533 57.1451 50.2472 57.1451C50.2472 56.7702 50.2472 56.3953 50.2472 55.9578Z" fill="#485079"/>
<path d="M53.934 55.9735C53.934 56.3796 53.934 56.7233 53.934 57.1139C53.5435 57.1139 53.1842 57.1139 52.7467 57.1139C52.7467 56.7702 52.7467 56.3953 52.7467 55.9735C53.106 55.9735 53.481 55.9735 53.934 55.9735Z" fill="#485079"/>
<path d="M73.8681 61.3944C73.7587 62.2536 73.087 62.8004 72.0559 62.8004C71.0248 62.8004 70.3687 62.2692 70.2437 61.3944C71.4466 61.3944 72.6652 61.3944 73.8681 61.3944Z" fill="#485079"/>
<path d="M74.5242 59.0198C74.118 59.0198 73.7587 59.0198 73.3525 59.0198C73.3525 58.6293 73.3525 58.2543 73.3525 57.8481C73.7275 57.8481 74.1024 57.8481 74.5242 57.8481C74.5242 58.2231 74.5242 58.5824 74.5242 59.0198Z" fill="#485079"/>
<path d="M70.7592 59.0354C70.3687 59.0354 70.0094 59.0354 69.6188 59.0354C69.6188 58.6293 69.6188 58.2699 69.6188 57.8481C69.9937 57.8481 70.3531 57.8481 70.7592 57.8481C70.7592 58.2074 70.7592 58.5668 70.7592 59.0354Z" fill="#485079"/>
<path d="M52.0594 66.5498C52.0594 65.3781 52.0437 64.2064 52.0594 63.0347C52.075 62.238 52.4655 62.0037 53.1685 62.3474C55.5275 63.5034 57.8708 64.6751 60.1986 65.878C60.4485 66.003 60.7766 66.3154 60.7453 66.5185C60.7141 66.7841 60.4329 67.0965 60.1673 67.2371C57.8552 68.4244 55.5275 69.5805 53.1998 70.7365C52.403 71.1271 52.0437 70.8771 52.0281 69.971C52.0594 68.8306 52.0594 67.6902 52.0594 66.5498ZM58.7769 66.5498C56.8866 65.5968 55.1526 64.7376 53.3716 63.8471C53.3716 65.6905 53.3716 67.4246 53.3716 69.2524C55.1682 68.3619 56.8866 67.5027 58.7769 66.5498Z" fill="#485079"/>
<defs>
<filter id="filter0_d_127_13" x="7.18652" y="11.5532" width="114" height="110" filterUnits="userSpaceOnUse" color-interpolation-filters="sRGB">
<feFlood flood-opacity="0" result="BackgroundImageFix"/>
<feColorMatrix in="SourceAlpha" type="matrix" values="0 0 0 0 0 0 0 0 0 0 0 0 0 0 0 0 0 0 127 0" result="hardAlpha"/>
<feOffset/>
<feGaussianBlur stdDeviation="7.5"/>
<feComposite in2="hardAlpha" operator="out"/>
<feColorMatrix type="matrix" values="0 0 0 0 0 0 0 0 0 0 0 0 0 0 0 0 0 0 0.1 0"/>
<feBlend mode="normal" in2="BackgroundImageFix" result="effect1_dropShadow_127_13"/>
<feBlend mode="normal" in="SourceGraphic" in2="effect1_dropShadow_127_13" result="shape"/>
</filter>
</defs>
</svg>
