<svg width="131" height="133" viewBox="0 0 131 133" fill="none" xmlns="http://www.w3.org/2000/svg">
<path d="M104.143 40.8397C83.654 20.9847 43.3838 21.8958 25.5711 30.9901C7.75832 40.0844 11.1386 69.7968 24.7143 88.6899C38.29 107.583 56.5179 121.294 81.2753 113.707C106.033 106.119 124.631 60.6946 104.143 40.8397Z" fill="white" fill-opacity="0.4"/>
<g filter="url(#filter0_d_127_7)">
<path d="M60.7822 27.7676C37.9713 35.5642 23.1865 66.245 23.1865 83.1581C23.1865 100.071 46.8422 108.951 66.2737 105.991C85.7052 103.031 103.025 94.5746 106.826 73.0103C110.628 51.4461 83.593 19.971 60.7822 27.7676Z" fill="white"/>
</g>
<path d="M60.2843 86.4566C57.8895 86.4566 55.3989 86.3616 53.004 86.4566C49.2681 86.5516 45.9154 83.6064 46.2028 79.3311C46.5859 74.0106 50.0345 69.5453 55.1115 67.8352C56.3568 67.4551 57.6021 67.1701 58.9432 67.1701C62.4875 67.1701 65.936 67.1701 69.4804 67.1701C70.6299 67.1701 71.7794 67.4551 72.9289 67.6451C73.5037 67.7401 73.6952 68.1202 73.5995 68.5952C73.5037 68.9752 73.1205 69.1653 72.5457 69.0703C71.3004 68.6902 70.1509 68.5952 68.9056 68.5952C65.7445 68.5952 62.4875 68.5952 59.3264 68.5952C53.7704 68.5952 49.1723 72.3005 48.0228 77.7159C47.7355 78.951 47.6397 80.1861 48.0228 81.4212C48.6934 83.5114 50.6092 84.9365 52.9083 84.9365C57.9853 84.9365 63.0623 84.9365 68.1393 84.9365C68.2351 84.9365 68.4267 84.9365 68.5224 84.9365C68.9056 84.9365 69.2888 85.2215 69.2888 85.6016C69.2888 85.9816 69.0014 86.2666 68.5224 86.3616C68.4267 86.3616 68.3309 86.3616 68.1393 86.3616C65.5529 86.4566 62.8707 86.4566 60.2843 86.4566Z" fill="#485079"/>
<path d="M64.2118 65.0799C59.039 65.0799 54.8241 60.8996 54.8241 55.8642C54.8241 50.6388 59.039 46.5535 64.3076 46.5535C69.3846 46.5535 73.5037 50.7338 73.5037 55.8642C73.5037 60.8996 69.2888 65.0799 64.2118 65.0799ZM64.2118 63.6548C68.5224 63.6548 72.0668 60.1395 72.0668 55.7692C72.0668 51.4939 68.5224 47.9786 64.2118 47.9786C59.8053 47.9786 56.261 51.4939 56.261 55.7692C56.261 60.1395 59.8053 63.6548 64.2118 63.6548Z" fill="#485079"/>
<path d="M68.3309 78.571C68.4267 74.2007 71.971 70.6854 76.3774 70.6854C80.7839 70.7804 84.3282 74.2957 84.2324 78.761C84.2324 83.0364 80.4965 86.6466 76.1859 86.5516C71.8752 86.4566 68.3309 82.9413 68.3309 78.571ZM82.8913 78.666C82.8913 75.1507 80.0176 72.2055 76.3774 72.2055C72.7373 72.2055 69.8635 75.0557 69.7677 78.666C69.7677 82.2763 72.6415 85.1265 76.2816 85.2215C79.9218 85.1265 82.7955 82.1813 82.8913 78.666Z" fill="#485079"/>
<path d="M77.1438 77.906C78.1017 77.906 78.9638 77.906 79.826 77.906C80.4007 77.906 80.6881 78.191 80.6881 78.571C80.6881 79.046 80.4007 79.3311 79.826 79.3311C78.9638 79.3311 78.1017 79.3311 77.2396 79.3311C77.2396 79.3311 77.2396 79.3311 77.1438 79.3311C77.1438 79.7111 77.1438 79.9961 77.1438 80.3761C77.1438 80.9462 77.1438 81.4212 77.1438 81.9913C77.1438 82.5613 76.8564 82.8463 76.4732 82.8463C75.9943 82.8463 75.7069 82.5613 75.7069 81.9913C75.7069 81.1362 75.7069 80.2811 75.7069 79.3311C74.9405 79.3311 74.1742 79.3311 73.5037 79.3311C73.3121 79.3311 73.1205 79.3311 72.8331 79.3311C72.4499 79.3311 72.1626 79.046 72.1626 78.666C72.1626 78.286 72.4499 78.001 72.8331 78.001C73.6952 78.001 74.4616 78.001 75.3237 78.001C75.4195 78.001 75.5153 78.001 75.7069 78.001C75.7069 77.3359 75.7069 76.7659 75.7069 76.1008C75.7069 75.9108 75.7069 75.6258 75.7069 75.4358C75.7069 74.7707 75.9943 74.4857 76.4732 74.4857C76.9522 74.4857 77.1438 74.8657 77.1438 75.4358C77.1438 76.1008 77.1438 76.8609 77.1438 77.5259C77.1438 77.5259 77.1438 77.7159 77.1438 77.906Z" fill="#485079"/>
<defs>
<filter id="filter0_d_127_7" x="8.18652" y="11.5535" width="114" height="110" filterUnits="userSpaceOnUse" color-interpolation-filters="sRGB">
<feFlood flood-opacity="0" result="BackgroundImageFix"/>
<feColorMatrix in="SourceAlpha" type="matrix" values="0 0 0 0 0 0 0 0 0 0 0 0 0 0 0 0 0 0 127 0" result="hardAlpha"/>
<feOffset/>
<feGaussianBlur stdDeviation="7.5"/>
<feComposite in2="hardAlpha" operator="out"/>
<feColorMatrix type="matrix" values="0 0 0 0 0 0 0 0 0 0 0 0 0 0 0 0 0 0 0.1 0"/>
<feBlend mode="normal" in2="BackgroundImageFix" result="effect1_dropShadow_127_7"/>
<feBlend mode="normal" in="SourceGraphic" in2="effect1_dropShadow_127_7" result="shape"/>
</filter>
</defs>
</svg>
