<svg width="39" height="41" viewBox="0 0 39 41" fill="none" xmlns="http://www.w3.org/2000/svg">
<path d="M14.2843 40.4566C11.8895 40.4566 9.39886 40.3616 7.00404 40.4566C3.26813 40.5516 -0.0846093 37.6064 0.202768 33.3311C0.585939 28.0106 4.03447 23.5453 9.11148 21.8352C10.3568 21.4551 11.6021 21.1701 12.9432 21.1701C16.4875 21.1701 19.936 21.1701 23.4804 21.1701C24.6299 21.1701 25.7794 21.4551 26.9289 21.6451C27.5037 21.7401 27.6952 22.1202 27.5995 22.5952C27.5037 22.9752 27.1205 23.1653 26.5457 23.0703C25.3004 22.6902 24.1509 22.5952 22.9056 22.5952C19.7445 22.5952 16.4875 22.5952 13.3264 22.5952C7.77038 22.5952 3.17234 26.3005 2.02283 31.7159C1.73545 32.951 1.63966 34.1861 2.02283 35.4212C2.69338 37.5114 4.60923 38.9365 6.90825 38.9365C11.9853 38.9365 17.0623 38.9365 22.1393 38.9365C22.2351 38.9365 22.4267 38.9365 22.5224 38.9365C22.9056 38.9365 23.2888 39.2215 23.2888 39.6016C23.2888 39.9816 23.0014 40.2666 22.5224 40.3616C22.4267 40.3616 22.3309 40.3616 22.1393 40.3616C19.5529 40.4566 16.8707 40.4566 14.2843 40.4566Z" fill="#485079"/>
<path d="M18.2118 19.0799C13.039 19.0799 8.8241 14.8996 8.8241 9.8642C8.8241 4.63879 13.039 0.553467 18.3076 0.553467C23.3846 0.553467 27.5037 4.7338 27.5037 9.8642C27.5037 14.8996 23.2888 19.0799 18.2118 19.0799ZM18.2118 17.6548C22.5224 17.6548 26.0668 14.1395 26.0668 9.7692C26.0668 5.49386 22.5224 1.97858 18.2118 1.97858C13.8053 1.97858 10.261 5.49386 10.261 9.7692C10.261 14.1395 13.8053 17.6548 18.2118 17.6548Z" fill="#485079"/>
<path d="M22.3309 32.571C22.4267 28.2007 25.971 24.6854 30.3774 24.6854C34.7839 24.7804 38.3282 28.2957 38.2324 32.761C38.2324 37.0364 34.4965 40.6466 30.1859 40.5516C25.8752 40.4566 22.3309 36.9413 22.3309 32.571ZM36.8913 32.666C36.8913 29.1507 34.0176 26.2055 30.3774 26.2055C26.7373 26.2055 23.8635 29.0557 23.7677 32.666C23.7677 36.2763 26.6415 39.1265 30.2816 39.2215C33.9218 39.1265 36.7955 36.1813 36.8913 32.666Z" fill="#485079"/>
<path d="M31.1438 31.906C32.1017 31.906 32.9638 31.906 33.826 31.906C34.4007 31.906 34.6881 32.191 34.6881 32.571C34.6881 33.046 34.4007 33.3311 33.826 33.3311C32.9638 33.3311 32.1017 33.3311 31.2396 33.3311C31.2396 33.3311 31.2396 33.3311 31.1438 33.3311C31.1438 33.7111 31.1438 33.9961 31.1438 34.3761C31.1438 34.9462 31.1438 35.4212 31.1438 35.9913C31.1438 36.5613 30.8564 36.8463 30.4732 36.8463C29.9943 36.8463 29.7069 36.5613 29.7069 35.9913C29.7069 35.1362 29.7069 34.2811 29.7069 33.3311C28.9405 33.3311 28.1742 33.3311 27.5037 33.3311C27.3121 33.3311 27.1205 33.3311 26.8331 33.3311C26.4499 33.3311 26.1626 33.046 26.1626 32.666C26.1626 32.286 26.4499 32.001 26.8331 32.001C27.6952 32.001 28.4616 32.001 29.3237 32.001C29.4195 32.001 29.5153 32.001 29.7069 32.001C29.7069 31.3359 29.7069 30.7659 29.7069 30.1008C29.7069 29.9108 29.7069 29.6258 29.7069 29.4358C29.7069 28.7707 29.9943 28.4857 30.4732 28.4857C30.9522 28.4857 31.1438 28.8657 31.1438 29.4358C31.1438 30.1008 31.1438 30.8609 31.1438 31.5259C31.1438 31.5259 31.1438 31.7159 31.1438 31.906Z" fill="#485079"/>
</svg>
