<svg width="130" height="133" viewBox="0 0 130 133" fill="none" xmlns="http://www.w3.org/2000/svg">
<path d="M103.468 40.8397C82.979 20.9847 42.7088 21.8958 24.896 30.9901C7.08327 40.0844 10.4636 69.7968 24.0393 88.6899C37.6149 107.583 55.8428 121.294 80.6003 113.707C105.358 106.119 123.956 60.6946 103.468 40.8397Z" fill="white" fill-opacity="0.4"/>
<g filter="url(#filter0_d_127_12)">
<path d="M59.8513 27.7676C37.0404 35.5642 22.2556 66.245 22.2556 83.1581C22.2556 100.071 45.9113 108.951 65.3428 105.991C84.7742 103.031 102.094 94.5746 105.895 73.0103C109.697 51.4461 82.6621 19.971 59.8513 27.7676Z" fill="white"/>
</g>
<path d="M56.751 77.1819C56.751 75.6043 56.8135 74.1205 56.7354 72.6367C56.5792 69.9502 57.5164 67.7947 60.5778 66.6701C58.7659 64.0773 58.844 61.75 60.8121 60.0788C62.5458 58.6262 65.0917 58.7355 66.7005 60.3287C68.4499 62.0624 68.4187 64.4678 66.6068 66.6857C68.2625 67.3886 69.1371 68.8881 70.1212 70.2313C70.824 71.1997 71.5894 71.7932 72.8389 71.559C73.1357 71.4965 73.4637 71.5277 73.7761 71.559C74.7757 71.6527 75.5098 72.4492 75.4942 73.4333C75.4942 74.4173 74.7445 75.2607 73.7448 75.2763C72.0579 75.3232 70.3711 75.292 68.6529 75.292C68.6529 75.8543 68.6529 76.4478 68.6529 77.1663C68.9185 77.1663 69.1996 77.1663 69.4651 77.1663C71.5425 77.1663 73.6355 77.1663 75.7129 77.1663C76.6188 77.1663 76.7437 77.2912 76.7437 78.2128C76.7437 79.228 76.7281 80.2433 76.7594 81.2585C76.775 81.7896 76.6032 82.1332 76.119 82.3831C75.2755 82.8361 74.4633 83.3828 73.6199 83.8201C73.1357 84.07 72.917 84.3824 72.9951 84.9134C73.0263 85.1477 72.9951 85.382 72.9951 85.6163C73.042 86.2879 72.7296 86.5535 72.0736 86.5535C69.6526 86.5378 67.2316 86.5535 64.8106 86.5535C61.6399 86.5535 58.4535 86.5535 55.2828 86.5535C54.3769 86.5535 54.1739 86.4129 54.2676 85.507C54.3769 84.4761 54.0021 83.8982 53.0961 83.4296C52.2058 82.961 51.1125 82.4925 50.6595 81.7115C50.2222 80.9618 50.519 79.7903 50.4877 78.8063C50.4877 78.6189 50.4877 78.4471 50.4877 78.2596C50.4877 77.2912 50.597 77.1819 51.5654 77.1663C53.2679 77.1819 54.9548 77.1819 56.751 77.1819ZM71.7612 85.2727C71.7612 84.0231 71.7299 82.8517 71.7924 81.6959C71.808 81.4303 72.1829 81.1961 72.386 80.9461C72.589 81.1961 72.8858 81.3991 72.9951 81.6959C73.1044 81.977 73.0107 82.3206 73.0107 82.758C73.8385 82.2738 74.5102 81.8989 75.1818 81.4928C75.3224 81.4147 75.4942 81.2429 75.4942 81.1023C75.5254 80.2277 75.5098 79.353 75.5098 78.4939C67.544 78.4939 59.6875 78.4939 51.7841 78.4939C51.7841 79.3061 51.7841 80.0558 51.7841 80.8056C51.7841 80.9461 51.831 81.1492 51.9247 81.2117C52.6588 81.6959 53.4241 82.1644 54.2676 82.6955C54.2676 82.3675 54.2676 82.2113 54.2676 82.0551C54.2676 81.5553 54.1895 80.9461 54.908 80.9618C55.6265 80.9774 55.5171 81.6022 55.5171 82.0864C55.5171 83.1485 55.5171 84.195 55.5171 85.2727C60.9526 85.2727 66.3101 85.2727 71.7612 85.2727ZM67.3722 77.1507C67.3722 76.7758 67.3878 76.4946 67.3722 76.2135C67.3097 75.1358 67.7002 73.9643 66.6381 73.1053C66.5287 73.0115 66.6068 72.4649 66.7474 72.3712C66.9504 72.2462 67.3722 72.2306 67.5596 72.3712C68.075 72.7616 68.4968 73.2771 68.9809 73.6988C69.1528 73.855 69.4027 74.0268 69.637 74.0424C70.9334 74.0737 72.2454 74.0893 73.5418 74.0268C73.7761 74.0112 74.0104 73.6676 74.229 73.4645C73.9947 73.2458 73.7761 72.871 73.5105 72.8397C72.8233 72.746 72.1048 72.871 71.4019 72.7929C70.9958 72.746 70.496 72.5273 70.2305 72.2306C69.2777 71.1685 68.4187 70.0126 67.5127 68.9193C66.9817 68.2789 66.3413 67.8259 65.451 67.8259C64.2014 67.8416 62.9519 67.7947 61.7024 67.8416C59.8593 67.904 58.2349 69.1848 58.0787 70.9967C57.9069 73.0272 58.0474 75.0889 58.0474 77.135C58.6722 77.135 59.2501 77.135 59.8593 77.135C59.8593 75.9792 59.8593 74.9015 59.8593 73.8081C59.8593 73.3395 59.8905 72.8397 60.4841 72.8553C61.0932 72.8553 61.1088 73.3552 61.1088 73.8237C61.1088 74.9327 61.1088 76.0417 61.1088 77.1663C63.2487 77.1507 65.2636 77.1507 67.3722 77.1507ZM66.7474 63.4213C66.7474 61.6876 65.3573 60.3131 63.6235 60.3131C61.8898 60.3131 60.4997 61.7032 60.4997 63.4369C60.4997 65.155 61.9054 66.5608 63.6235 66.5608C65.3573 66.5452 66.7474 65.155 66.7474 63.4213Z" fill="#485079"/>
<path d="M80.5548 61.4064C81.1171 61.875 81.4764 62.3123 80.6642 62.8121C80.5548 62.8746 80.5236 63.1245 80.508 63.2807C80.4924 63.7493 80.508 64.2179 80.508 64.6865C80.508 66.2796 80.1487 66.7638 78.6805 67.248C78.5087 68.9349 77.8527 69.7315 76.6656 69.6846C75.541 69.6378 74.9163 68.8256 74.8382 67.248C73.2606 66.9356 72.9014 65.8267 72.9639 64.3741C72.9951 63.7337 73.2606 62.9996 72.4953 62.4685C72.386 62.3904 72.6202 61.7969 72.6827 61.4533C72.7764 61.4377 72.8858 61.422 72.9795 61.4064C72.2766 60.5161 71.5425 59.6571 70.8553 58.7511C68.7623 56.0178 68.6842 52.519 70.6366 49.7544C73.0107 46.3807 77.6497 45.5372 81.0078 47.8801C84.3972 50.2386 85.2562 55.0181 82.8821 58.3919C82.4448 59.001 81.9293 59.5633 81.4608 60.1569C81.1796 60.5474 80.8828 60.9691 80.5548 61.4064ZM79.0085 61.547C79.6802 60.5942 80.2268 59.782 80.8047 59.001C81.1952 58.4856 81.6482 58.0014 82.0074 57.4704C83.8817 54.5808 82.9914 50.6135 80.0863 48.7704C77.1498 46.9117 73.2606 47.8489 71.4332 50.8322C70.0118 53.175 70.2305 55.9084 71.9955 58.1732C72.8389 59.2509 73.6511 60.3443 74.557 61.547C75.9628 61.547 77.5716 61.547 79.0085 61.547ZM79.2428 62.8746C77.5247 62.8746 75.9003 62.8746 74.2446 62.8746C74.2446 63.6556 74.2446 64.3897 74.2446 65.1082C74.2446 65.6549 74.5414 65.9204 75.0725 65.9204C76.1971 65.9204 77.306 65.9204 78.4306 65.9204C78.9773 65.9204 79.2428 65.6392 79.2428 65.0926C79.2428 64.3741 79.2428 63.6556 79.2428 62.8746ZM75.994 67.2168C76.1658 67.6541 76.2439 68.0134 76.447 68.2945C76.5251 68.3882 76.978 68.3882 77.0561 68.2945C77.2436 68.0134 77.3373 67.6385 77.4935 67.2168C76.9624 67.2168 76.6032 67.2168 75.994 67.2168Z" fill="#485079"/>
<path d="M49.1757 57.814C48.1292 57.814 47.0983 57.8296 46.0518 57.814C44.9116 57.7984 44.2712 57.1736 44.2712 56.0178C44.2556 53.8935 44.2556 51.7537 44.2556 49.6295C44.2556 48.458 44.8804 47.8332 46.0206 47.8176C47.5044 47.802 48.9883 47.8176 50.4721 47.8176C50.9094 47.8176 51.2843 47.8957 51.2999 48.4112C51.3155 48.9735 50.9094 49.0672 50.4565 49.0672C49.082 49.0672 47.6919 49.0828 46.3174 49.0516C45.7238 49.0359 45.4895 49.2077 45.4895 49.8325C45.5208 51.8005 45.5208 53.7842 45.4895 55.7678C45.4739 56.3926 45.7082 56.5801 46.3017 56.5644C48.2854 56.5332 50.2534 56.5332 52.2371 56.5644C52.815 56.5644 53.0493 56.377 53.0024 55.7991C52.9712 55.3149 52.9243 54.7995 53.0337 54.3153C53.0805 54.0653 53.4241 53.8623 53.6272 53.628C53.8302 53.8467 54.1895 54.0497 54.2207 54.2996C54.2988 54.9713 54.2832 55.6585 54.2363 56.3301C54.1739 57.2048 53.4866 57.7827 52.5338 57.7984C51.4249 57.8296 50.3003 57.814 49.1757 57.814Z" fill="#485079"/>
<path d="M49.2538 70.3094C48.1917 70.3094 47.1139 70.325 46.0518 70.3094C44.896 70.2938 44.2712 69.669 44.2712 68.5132C44.2556 66.3733 44.2556 64.2491 44.2556 62.1093C44.2556 60.9535 44.8804 60.3131 46.0362 60.3131C47.4888 60.2974 48.9414 60.3131 50.4096 60.3131C50.8626 60.3131 51.2999 60.3443 51.3155 60.9222C51.3312 61.547 50.847 61.5782 50.3784 61.5782C49.0039 61.5782 47.6138 61.5938 46.2393 61.5626C45.7082 61.547 45.5052 61.7188 45.5052 62.2655C45.5364 64.296 45.5364 66.3265 45.5052 68.357C45.5052 68.9193 45.7238 69.0755 46.2549 69.0599C48.2542 69.0442 50.2534 69.0286 52.2683 69.0599C52.8462 69.0599 53.0649 68.8724 53.0337 68.2945C53.0024 67.8103 52.9556 67.2949 53.0649 66.8107C53.1118 66.5608 53.4554 66.3577 53.6584 66.1391C53.8615 66.3577 54.2207 66.5608 54.252 66.8107C54.3301 67.4823 54.3144 68.1696 54.2676 68.8412C54.2051 69.6846 53.5335 70.2782 52.6276 70.2938C51.4873 70.325 50.3628 70.3094 49.2538 70.3094Z" fill="#485079"/>
<path d="M61.7492 55.9397C59.9842 55.9397 58.2193 55.9397 56.4387 55.9397C55.9857 55.9397 55.5484 55.8928 55.5171 55.3461C55.5015 54.737 55.9701 54.6745 56.4543 54.6745C59.9842 54.6745 63.5298 54.6745 67.0598 54.6745C67.5127 54.6745 67.9501 54.7214 67.9813 55.268C68.0126 55.8772 67.544 55.9397 67.0598 55.9397C65.2948 55.9397 63.5298 55.9397 61.7492 55.9397Z" fill="#485079"/>
<path d="M60.1873 53.4406C58.9377 53.4406 57.6882 53.4406 56.4387 53.4406C55.9545 53.4406 55.4859 53.3781 55.5171 52.7689C55.5327 52.2223 55.9857 52.1754 56.4387 52.1754C58.9377 52.1754 61.4212 52.1754 63.9203 52.1754C64.3733 52.1754 64.8106 52.2223 64.8418 52.7689C64.8731 53.3781 64.4045 53.4406 63.9203 53.4406C62.6864 53.4406 61.4368 53.4406 60.1873 53.4406Z" fill="#485079"/>
<path d="M49.2069 65.1394C50.1441 64.171 50.9563 63.3588 51.7529 62.5466C52.0653 62.2186 52.4245 61.9843 52.815 62.3904C53.1742 62.7653 52.9712 63.0933 52.6744 63.4057C51.7373 64.3428 50.7845 65.28 49.8629 66.2172C49.4568 66.6389 49.082 66.6545 48.6603 66.2328C48.1448 65.6861 47.5981 65.155 47.0671 64.624C46.7547 64.3116 46.5673 63.9211 46.989 63.64C47.192 63.4994 47.6919 63.5775 47.9105 63.7493C48.3791 64.1085 48.7384 64.6084 49.2069 65.1394Z" fill="#485079"/>
<path d="M49.1913 52.6752C50.1753 51.6756 50.9719 50.8634 51.7685 50.0356C52.0965 49.7076 52.4557 49.4889 52.8306 49.9106C53.1898 50.2855 52.9556 50.6291 52.6588 50.9259C51.7373 51.8474 50.8157 52.7533 49.9098 53.6905C49.4881 54.1278 49.0976 54.1903 48.6603 53.7217C48.1448 53.175 47.5513 52.6908 47.0827 52.0973C46.9109 51.8786 46.8328 51.3788 46.9734 51.1758C47.2389 50.7541 47.6606 50.9102 47.9574 51.2539C48.3479 51.6756 48.7227 52.1442 49.1913 52.6752Z" fill="#485079"/>
<path d="M58.9377 50.9415C58.0787 50.9415 57.2196 50.9883 56.3606 50.9102C56.0638 50.879 55.5952 50.5666 55.5484 50.3323C55.4546 49.8013 55.9076 49.6763 56.3762 49.6919C58.0943 49.6919 59.8124 49.6607 61.5149 49.7232C61.7961 49.7388 62.2803 50.0512 62.3271 50.3011C62.4208 50.8322 61.9679 50.9571 61.4993 50.9571C60.6559 50.9415 59.7968 50.9415 58.9377 50.9415Z" fill="#485079"/>
<path d="M76.9936 56.3301C77.9464 55.4867 78.8836 54.6589 79.8051 53.8311C80.1487 53.5343 80.508 53.175 80.9297 53.6436C81.3514 54.0966 81.0078 54.4402 80.6642 54.7526C79.6489 55.6429 78.6337 56.5332 77.6497 57.4547C77.2123 57.8608 76.8218 57.9077 76.3689 57.486C75.8066 56.9549 75.213 56.4395 74.6195 55.924C74.3071 55.6429 74.0885 55.3149 74.4165 54.9244C74.7445 54.5339 75.1037 54.6745 75.4317 54.9713C75.9472 55.4086 76.447 55.8459 76.9936 56.3301Z" fill="#485079"/>
<path d="M78.087 49.8638C77.8371 50.0199 77.5872 50.2855 77.3216 50.3167C76.2752 50.4261 75.4473 50.879 74.885 51.7693C74.6508 52.1442 74.3384 52.3628 73.9166 52.0817C73.4949 51.8005 73.573 51.4257 73.8229 51.0664C74.6351 49.8481 75.7441 49.114 77.2279 49.0984C77.5247 49.0984 77.8058 49.3796 78.1026 49.5358C78.1026 49.6451 78.1026 49.7544 78.087 49.8638Z" fill="#485079"/>
<path d="M72.9795 52.5659C73.2763 52.9408 73.6043 53.1907 73.573 53.3781C73.5262 53.628 73.2138 53.8311 73.0107 54.0653C72.7921 53.8467 72.4641 53.6592 72.4172 53.4093C72.386 53.2219 72.714 52.9564 72.9795 52.5659Z" fill="#485079"/>
<defs>
<filter id="filter0_d_127_12" x="7.25562" y="11.5535" width="114" height="110" filterUnits="userSpaceOnUse" color-interpolation-filters="sRGB">
<feFlood flood-opacity="0" result="BackgroundImageFix"/>
<feColorMatrix in="SourceAlpha" type="matrix" values="0 0 0 0 0 0 0 0 0 0 0 0 0 0 0 0 0 0 127 0" result="hardAlpha"/>
<feOffset/>
<feGaussianBlur stdDeviation="7.5"/>
<feComposite in2="hardAlpha" operator="out"/>
<feColorMatrix type="matrix" values="0 0 0 0 0 0 0 0 0 0 0 0 0 0 0 0 0 0 0.1 0"/>
<feBlend mode="normal" in2="BackgroundImageFix" result="effect1_dropShadow_127_12"/>
<feBlend mode="normal" in="SourceGraphic" in2="effect1_dropShadow_127_12" result="shape"/>
</filter>
</defs>
</svg>
