<svg width="41" height="41" viewBox="0 0 41 41" fill="none" xmlns="http://www.w3.org/2000/svg">
<path d="M12.751 31.1819C12.751 29.6043 12.8135 28.1205 12.7354 26.6367C12.5792 23.9502 13.5164 21.7947 16.5778 20.6701C14.7659 18.0773 14.844 15.75 16.8121 14.0788C18.5458 12.6262 21.0917 12.7355 22.7005 14.3287C24.4499 16.0624 24.4187 18.4678 22.6068 20.6857C24.2625 21.3886 25.1371 22.8881 26.1212 24.2313C26.824 25.1997 27.5894 25.7932 28.8389 25.559C29.1357 25.4965 29.4637 25.5277 29.7761 25.559C30.7757 25.6527 31.5098 26.4492 31.4942 27.4333C31.4942 28.4173 30.7445 29.2607 29.7448 29.2763C28.0579 29.3232 26.3711 29.292 24.6529 29.292C24.6529 29.8543 24.6529 30.4478 24.6529 31.1663C24.9185 31.1663 25.1996 31.1663 25.4651 31.1663C27.5425 31.1663 29.6355 31.1663 31.7129 31.1663C32.6188 31.1663 32.7437 31.2912 32.7437 32.2128C32.7437 33.228 32.7281 34.2433 32.7594 35.2585C32.775 35.7896 32.6032 36.1332 32.119 36.3831C31.2755 36.8361 30.4633 37.3828 29.6199 37.8201C29.1357 38.07 28.917 38.3824 28.9951 38.9134C29.0263 39.1477 28.9951 39.382 28.9951 39.6163C29.042 40.2879 28.7296 40.5535 28.0736 40.5535C25.6526 40.5378 23.2316 40.5535 20.8106 40.5535C17.6399 40.5535 14.4535 40.5535 11.2828 40.5535C10.3769 40.5535 10.1739 40.4129 10.2676 39.507C10.3769 38.4761 10.0021 37.8982 9.09613 37.4296C8.20583 36.961 7.11248 36.4925 6.65952 35.7115C6.22218 34.9618 6.51895 33.7903 6.48771 32.8063C6.48771 32.6189 6.48771 32.4471 6.48771 32.2596C6.48771 31.2912 6.59705 31.1819 7.56544 31.1663C9.26794 31.1819 10.9548 31.1819 12.751 31.1819ZM27.7612 39.2727C27.7612 38.0231 27.7299 36.8517 27.7924 35.6959C27.808 35.4303 28.1829 35.1961 28.386 34.9461C28.589 35.1961 28.8858 35.3991 28.9951 35.6959C29.1044 35.977 29.0107 36.3206 29.0107 36.758C29.8385 36.2738 30.5102 35.8989 31.1818 35.4928C31.3224 35.4147 31.4942 35.2429 31.4942 35.1023C31.5254 34.2277 31.5098 33.353 31.5098 32.4939C23.544 32.4939 15.6875 32.4939 7.78411 32.4939C7.78411 33.3061 7.78411 34.0558 7.78411 34.8056C7.78411 34.9461 7.83097 35.1492 7.92469 35.2117C8.65879 35.6959 9.42414 36.1644 10.2676 36.6955C10.2676 36.3675 10.2676 36.2113 10.2676 36.0551C10.2676 35.5553 10.1895 34.9461 10.908 34.9618C11.6265 34.9774 11.5171 35.6022 11.5171 36.0864C11.5171 37.1485 11.5171 38.195 11.5171 39.2727C16.9526 39.2727 22.3101 39.2727 27.7612 39.2727ZM23.3722 31.1507C23.3722 30.7758 23.3878 30.4946 23.3722 30.2135C23.3097 29.1358 23.7002 27.9643 22.6381 27.1053C22.5287 27.0115 22.6068 26.4649 22.7474 26.3712C22.9504 26.2462 23.3722 26.2306 23.5596 26.3712C24.075 26.7616 24.4968 27.2771 24.9809 27.6988C25.1528 27.855 25.4027 28.0268 25.637 28.0424C26.9334 28.0737 28.2454 28.0893 29.5418 28.0268C29.7761 28.0112 30.0104 27.6676 30.229 27.4645C29.9947 27.2458 29.7761 26.871 29.5105 26.8397C28.8233 26.746 28.1048 26.871 27.4019 26.7929C26.9958 26.746 26.496 26.5273 26.2305 26.2306C25.2777 25.1685 24.4187 24.0126 23.5127 22.9193C22.9817 22.2789 22.3413 21.8259 21.451 21.8259C20.2014 21.8416 18.9519 21.7947 17.7024 21.8416C15.8593 21.904 14.2349 23.1848 14.0787 24.9967C13.9069 27.0272 14.0474 29.0889 14.0474 31.135C14.6722 31.135 15.2501 31.135 15.8593 31.135C15.8593 29.9792 15.8593 28.9015 15.8593 27.8081C15.8593 27.3395 15.8905 26.8397 16.4841 26.8553C17.0932 26.8553 17.1088 27.3552 17.1088 27.8237C17.1088 28.9327 17.1088 30.0417 17.1088 31.1663C19.2487 31.1507 21.2636 31.1507 23.3722 31.1507ZM22.7474 17.4213C22.7474 15.6876 21.3573 14.3131 19.6235 14.3131C17.8898 14.3131 16.4997 15.7032 16.4997 17.4369C16.4997 19.155 17.9054 20.5608 19.6235 20.5608C21.3573 20.5452 22.7474 19.155 22.7474 17.4213Z" fill="#485079"/>
<path d="M36.5548 15.4064C37.1171 15.875 37.4764 16.3123 36.6642 16.8121C36.5548 16.8746 36.5236 17.1245 36.508 17.2807C36.4924 17.7493 36.508 18.2179 36.508 18.6865C36.508 20.2796 36.1487 20.7638 34.6805 21.248C34.5087 22.9349 33.8527 23.7315 32.6656 23.6846C31.541 23.6378 30.9163 22.8256 30.8382 21.248C29.2606 20.9356 28.9014 19.8267 28.9639 18.3741C28.9951 17.7337 29.2606 16.9996 28.4953 16.4685C28.386 16.3904 28.6202 15.7969 28.6827 15.4533C28.7764 15.4377 28.8858 15.422 28.9795 15.4064C28.2766 14.5161 27.5425 13.6571 26.8553 12.7511C24.7623 10.0178 24.6842 6.51904 26.6366 3.75442C29.0107 0.380655 33.6497 -0.462786 37.0078 1.88011C40.3972 4.23862 41.2562 9.01812 38.8821 12.3919C38.4448 13.001 37.9293 13.5633 37.4608 14.1569C37.1796 14.5474 36.8828 14.9691 36.5548 15.4064ZM35.0085 15.547C35.6802 14.5942 36.2268 13.782 36.8047 13.001C37.1952 12.4856 37.6482 12.0014 38.0074 11.4704C39.8817 8.58078 38.9915 4.61348 36.0863 2.77041C33.1498 0.911711 29.2606 1.84887 27.4332 4.83215C26.0118 7.17505 26.2305 9.90842 27.9955 12.1732C28.8389 13.2509 29.6511 14.3443 30.557 15.547C31.9628 15.547 33.5716 15.547 35.0085 15.547ZM35.2428 16.8746C33.5247 16.8746 31.9003 16.8746 30.2446 16.8746C30.2446 17.6556 30.2446 18.3897 30.2446 19.1082C30.2446 19.6549 30.5414 19.9204 31.0725 19.9204C32.1971 19.9204 33.306 19.9204 34.4306 19.9204C34.9773 19.9204 35.2428 19.6392 35.2428 19.0926C35.2428 18.3741 35.2428 17.6556 35.2428 16.8746ZM31.994 21.2168C32.1658 21.6541 32.2439 22.0134 32.447 22.2945C32.5251 22.3882 32.978 22.3882 33.0561 22.2945C33.2436 22.0134 33.3373 21.6385 33.4935 21.2168C32.9624 21.2168 32.6032 21.2168 31.994 21.2168Z" fill="#485079"/>
<path d="M5.17569 11.814C4.1292 11.814 3.09833 11.8296 2.05183 11.814C0.911625 11.7984 0.271235 11.1736 0.271235 10.0178C0.255615 7.89353 0.255615 5.75369 0.255615 3.62947C0.255615 2.45802 0.880387 1.83325 2.02059 1.81763C3.50443 1.80201 4.98826 1.81763 6.47209 1.81763C6.90943 1.81763 7.28429 1.89573 7.29991 2.41116C7.31553 2.97346 6.90943 3.06717 6.45647 3.06717C5.08198 3.06717 3.69186 3.08279 2.31736 3.05155C1.72383 3.03593 1.48954 3.20775 1.48954 3.83252C1.52078 5.80055 1.52078 7.7842 1.48954 9.76785C1.47392 10.3926 1.70821 10.5801 2.30174 10.5644C4.28539 10.5332 6.25342 10.5332 8.23707 10.5644C8.81499 10.5644 9.04927 10.377 9.00242 9.79909C8.97118 9.31489 8.92432 8.79945 9.03366 8.31525C9.08051 8.06535 9.42414 7.86229 9.62719 7.62801C9.83024 7.84668 10.1895 8.04973 10.2207 8.29963C10.2988 8.97126 10.2832 9.65851 10.2363 10.3301C10.1739 11.2048 9.48661 11.7827 8.53384 11.7984C7.42487 11.8296 6.30028 11.814 5.17569 11.814Z" fill="#485079"/>
<path d="M5.25379 24.3094C4.19168 24.3094 3.11395 24.325 2.05183 24.3094C0.896006 24.2938 0.271235 23.669 0.271235 22.5132C0.255615 20.3733 0.255615 18.2491 0.255615 16.1093C0.255615 14.9535 0.880387 14.3131 2.03621 14.3131C3.48881 14.2974 4.9414 14.3131 6.40962 14.3131C6.86257 14.3131 7.29991 14.3443 7.31553 14.9222C7.33115 15.547 6.84695 15.5782 6.37838 15.5782C5.00388 15.5782 3.61376 15.5938 2.23926 15.5626C1.70821 15.547 1.50516 15.7188 1.50516 16.2655C1.5364 18.296 1.5364 20.3265 1.50516 22.357C1.50516 22.9193 1.72383 23.0755 2.25488 23.0599C4.25415 23.0442 6.25342 23.0286 8.26831 23.0599C8.84622 23.0599 9.06489 22.8724 9.03366 22.2945C9.00242 21.8103 8.95556 21.2949 9.06489 20.8107C9.11175 20.5608 9.45538 20.3577 9.65843 20.1391C9.86148 20.3577 10.2207 20.5608 10.252 20.8107C10.3301 21.4823 10.3144 22.1696 10.2676 22.8412C10.2051 23.6846 9.53347 24.2782 8.62755 24.2938C7.48735 24.325 6.36276 24.3094 5.25379 24.3094Z" fill="#485079"/>
<path d="M17.7492 9.93966C15.9842 9.93966 14.2193 9.93966 12.4387 9.93966C11.9857 9.93966 11.5484 9.8928 11.5171 9.34613C11.5015 8.73698 11.9701 8.6745 12.4543 8.6745C15.9842 8.6745 19.5298 8.6745 23.0598 8.6745C23.5127 8.6745 23.9501 8.72136 23.9813 9.26803C24.0126 9.87718 23.544 9.93966 23.0598 9.93966C21.2948 9.93966 19.5298 9.93966 17.7492 9.93966Z" fill="#485079"/>
<path d="M16.1873 7.44057C14.9377 7.44057 13.6882 7.44057 12.4387 7.44057C11.9545 7.44057 11.4859 7.3781 11.5171 6.76894C11.5327 6.22227 11.9857 6.17541 12.4387 6.17541C14.9377 6.17541 17.4212 6.17541 19.9203 6.17541C20.3733 6.17541 20.8106 6.22227 20.8418 6.76894C20.8731 7.3781 20.4045 7.44057 19.9203 7.44057C18.6864 7.44057 17.4368 7.44057 16.1873 7.44057Z" fill="#485079"/>
<path d="M5.20693 19.1394C6.14409 18.171 6.95629 17.3588 7.75287 16.5466C8.06526 16.2186 8.4245 15.9843 8.81499 16.3904C9.17423 16.7653 8.97118 17.0933 8.67441 17.4057C7.73725 18.3428 6.78448 19.28 5.86294 20.2172C5.45684 20.6389 5.08198 20.6545 4.66025 20.2328C4.14482 19.6861 3.59814 19.155 3.06709 18.624C2.7547 18.3116 2.56727 17.9211 2.98899 17.64C3.19204 17.4994 3.69186 17.5775 3.91053 17.7493C4.37911 18.1085 4.73835 18.6084 5.20693 19.1394Z" fill="#485079"/>
<path d="M5.19131 6.67523C6.17533 5.67559 6.97191 4.86339 7.76849 4.03557C8.0965 3.70756 8.45574 3.48889 8.8306 3.91061C9.18985 4.28548 8.95556 4.6291 8.65879 4.92587C7.73725 5.84741 6.81572 6.75332 5.9098 7.69048C5.48808 8.12782 5.09759 8.1903 4.66025 7.72172C4.14482 7.17505 3.55129 6.69085 3.08271 6.09731C2.91089 5.87864 2.8328 5.37883 2.97337 5.17578C3.2389 4.75406 3.66062 4.91025 3.95739 5.25387C4.34787 5.67559 4.72273 6.14417 5.19131 6.67523Z" fill="#485079"/>
<path d="M14.9377 4.94149C14.0787 4.94149 13.2196 4.98835 12.3606 4.91025C12.0638 4.87901 11.5952 4.56663 11.5484 4.33234C11.4546 3.80128 11.9076 3.67633 12.3762 3.69194C14.0943 3.69194 15.8124 3.66071 17.5149 3.72318C17.7961 3.7388 18.2803 4.05119 18.3271 4.3011C18.4208 4.83215 17.9679 4.95711 17.4993 4.95711C16.6559 4.94149 15.7968 4.94149 14.9377 4.94149Z" fill="#485079"/>
<path d="M32.9936 10.3301C33.9464 9.4867 34.8836 8.65888 35.8051 7.83106C36.1487 7.53429 36.508 7.17505 36.9297 7.64363C37.3514 8.09658 37.0078 8.44021 36.6642 8.75259C35.6489 9.64289 34.6337 10.5332 33.6497 11.4547C33.2123 11.8608 32.8218 11.9077 32.3689 11.486C31.8066 10.9549 31.213 10.4395 30.6195 9.92404C30.3071 9.64289 30.0885 9.31489 30.4165 8.92441C30.7445 8.53392 31.1037 8.6745 31.4317 8.97126C31.9472 9.40861 32.447 9.84594 32.9936 10.3301Z" fill="#485079"/>
<path d="M34.087 3.86376C33.8371 4.01995 33.5872 4.28548 33.3216 4.31672C32.2752 4.42605 31.4473 4.87901 30.885 5.76931C30.6508 6.14417 30.3384 6.36284 29.9166 6.0817C29.4949 5.80055 29.573 5.42569 29.8229 5.06644C30.6351 3.84814 31.7441 3.11403 33.2279 3.09841C33.5247 3.09841 33.8058 3.37956 34.1026 3.53575C34.1026 3.64509 34.1026 3.75442 34.087 3.86376Z" fill="#485079"/>
<path d="M28.9795 6.56589C29.2763 6.94076 29.6043 7.19067 29.573 7.3781C29.5262 7.62801 29.2138 7.83106 29.0107 8.06535C28.7921 7.84668 28.4641 7.65924 28.4172 7.40934C28.386 7.2219 28.714 6.95638 28.9795 6.56589Z" fill="#485079"/>
</svg>
