<svg width="41" height="41" viewBox="0 0 41 41" fill="none" xmlns="http://www.w3.org/2000/svg">
<path d="M20.1925 0.553223C25.9958 0.615623 30.863 4.65607 32.0174 10.4437C33.1094 15.8726 30.0362 21.5355 24.8413 23.6727C24.3577 23.8755 23.7025 24.3435 23.3749 23.5635C23.0317 22.7679 23.8273 22.6899 24.3265 22.4559C24.9505 22.1439 25.5433 21.7695 26.183 21.4575C26.807 21.1455 26.9786 20.6775 26.9162 19.991C26.7446 18.1502 25.9334 16.715 24.3109 15.8258C24.0301 15.6698 23.5465 15.6698 23.2657 15.8102C21.2377 16.871 19.2409 16.871 17.2285 15.7946C16.9788 15.6698 16.5732 15.6542 16.3236 15.7634C14.5764 16.5746 13.4064 18.665 13.6092 20.5527C13.6404 20.7867 13.8276 21.0831 14.046 21.2079C14.8104 21.6759 15.6216 22.1127 16.4328 22.5183C16.9008 22.7523 17.4313 22.9239 17.1348 23.5635C16.8696 24.1563 16.3704 23.9379 15.9336 23.7663C11.1444 21.9411 7.94634 16.9958 8.28955 11.957C8.61715 6.57489 12.3612 2.11324 17.4937 0.958827C18.3829 0.756025 19.2877 0.678024 20.1925 0.553223ZM28.211 19.5542C31.6898 15.857 32.0798 8.91492 27.275 4.62487C22.7821 0.615623 15.7308 1.20843 11.9244 5.93529C8.08675 10.6933 9.53756 17.0114 12.2676 19.4762C12.5796 17.261 13.7496 15.6386 15.6372 14.5154C13.3284 11.4265 14.202 8.05691 16.074 6.27849C18.1645 4.29727 21.4093 4.06326 23.7337 5.74808C24.9193 6.60609 25.6994 7.74491 26.027 9.16452C26.495 11.1301 26.0426 12.9086 24.7945 14.5154C26.7602 15.6542 27.8678 17.3078 28.211 19.5542ZM20.2549 15.2798C22.7977 15.2642 24.9037 13.1426 24.8881 10.5997C24.8725 8.05691 22.7509 5.95089 20.2081 5.96649C17.6653 5.98209 15.5592 8.10371 15.5592 10.6465C15.5748 13.1738 17.7121 15.2954 20.2549 15.2798Z" fill="#485079"/>
<path d="M13.968 39.0389C14.1864 37.7753 14.4048 36.3556 14.6856 34.9516C14.7792 34.468 14.7168 34.1404 14.3424 33.7972C13.3752 32.9236 12.4704 32.0032 11.5188 31.0984C11.0508 30.6616 10.7544 30.178 10.9884 29.5072C11.2224 28.8364 11.7528 28.6492 12.3768 28.5555C13.656 28.3839 14.9508 28.1967 16.23 28.0251C16.6824 27.9627 16.9632 27.7911 17.1661 27.3543C17.7277 26.1531 18.3517 24.9831 18.9289 23.7975C19.2097 23.2359 19.5841 22.8615 20.2393 22.8615C20.8945 22.8615 21.2689 23.2515 21.5341 23.8131C22.1269 25.0299 22.7197 26.2467 23.3593 27.4323C23.4841 27.6819 23.8117 27.9315 24.0925 27.9783C25.3873 28.2123 26.7134 28.3839 28.0238 28.5555C28.679 28.6492 29.2406 28.8208 29.4746 29.5228C29.7242 30.2404 29.3498 30.7084 28.8818 31.1608C27.9458 32.05 26.9942 32.9392 26.0894 33.8752C25.8866 34.0936 25.7462 34.5148 25.793 34.7956C25.9646 36.0748 26.2298 37.3541 26.4482 38.6333C26.5574 39.2729 26.5418 39.8813 25.9334 40.3025C25.3561 40.7081 24.8101 40.5365 24.2485 40.2401C23.1097 39.6317 21.9397 39.0545 20.8009 38.4305C20.3797 38.1965 20.0677 38.2121 19.6621 38.4461C18.4297 39.1169 17.1973 39.7721 15.9336 40.3805C14.9352 40.8797 13.968 40.2557 13.968 39.0389ZM27.8678 29.8348C27.9302 29.866 27.9926 29.9128 28.055 29.944C27.7742 29.8972 27.509 29.8348 27.2282 29.8036C25.949 29.6164 24.6541 29.476 23.3749 29.2264C23.0161 29.1484 22.5793 28.8364 22.4077 28.5087C21.7525 27.3543 21.2065 26.1531 20.6137 24.9675C20.5045 24.7491 20.3797 24.5463 20.2081 24.2499C19.7401 25.1859 19.2409 25.9347 18.9757 26.7615C18.3517 28.6804 17.1504 29.6164 15.1068 29.554C14.2176 29.5228 13.3128 29.8036 12.5484 29.9284C13.3128 30.7708 13.9836 31.6912 14.8416 32.3932C15.9804 33.3292 16.3704 34.312 15.918 35.7628C15.5904 36.8236 15.528 37.9781 15.3252 39.2261C16.7916 38.4617 18.1177 37.8221 19.4125 37.1045C20.0053 36.7768 20.4889 36.7768 21.0817 37.1045C22.3765 37.8221 23.7181 38.4773 25.1689 39.2261C24.9037 37.6193 24.7009 36.1528 24.3889 34.7176C24.2329 34.0312 24.4513 33.6256 24.9193 33.142C25.9178 32.0656 26.885 30.9424 27.8678 29.8348Z" fill="#485079"/>
<path d="M36.3387 33.7972C36.1203 32.5336 35.9643 31.426 35.7303 30.3496C35.6211 29.8192 35.7615 29.476 36.1203 29.1016C36.9003 28.3059 37.6335 27.4635 38.4135 26.6211C37.6491 26.5119 36.7755 26.2935 35.8863 26.2623C34.8255 26.2155 34.1702 25.7943 33.7958 24.7803C33.4838 23.9379 33.0158 23.1579 32.5322 22.2063C31.9706 23.3295 31.4558 24.3123 30.9878 25.3107C30.7538 25.8099 30.4418 26.0751 29.8802 26.1375C28.6946 26.2779 27.509 26.4651 26.339 26.6523C25.8866 26.7147 25.4653 26.6679 25.3717 26.1375C25.2625 25.5603 25.6838 25.3731 26.1674 25.3107C27.119 25.1703 28.0706 25.0143 29.0222 24.9207C29.5838 24.8583 29.8802 24.6087 30.0986 24.0939C30.4574 23.2671 30.8942 22.4715 31.2998 21.6447C31.5494 21.1299 31.877 20.7087 32.5166 20.7087C33.1562 20.7087 33.4994 21.0987 33.749 21.6135C34.1858 22.5027 34.5915 23.3919 35.0751 24.2499C35.2311 24.5151 35.5587 24.7647 35.8551 24.8271C36.7911 25.0299 37.7427 25.1391 38.6943 25.2639C39.3183 25.3419 39.8799 25.4823 40.1139 26.1687C40.3479 26.8551 39.9423 27.2919 39.4899 27.7287C38.8347 28.3527 38.1951 29.008 37.5087 29.6164C37.1655 29.9284 37.0251 30.2092 37.1499 30.6928C37.3683 31.5976 37.4775 32.5336 37.6491 33.454C37.7427 34.0312 37.7895 34.6084 37.2435 35.014C36.6975 35.4196 36.1827 35.248 35.6523 34.9672C34.9503 34.5772 34.1858 34.2808 33.5306 33.8284C32.8286 33.3604 32.2358 33.4072 31.5494 33.844C30.8474 34.2808 30.083 34.624 29.3498 34.9984C28.9442 35.2168 28.523 35.3104 28.2578 34.8424C27.977 34.3432 28.3046 34.0312 28.7414 33.7972C29.8334 33.2356 30.8942 32.6428 32.0018 32.128C32.3138 31.9876 32.8286 32.0032 33.1406 32.1436C34.1702 32.6116 35.1687 33.1732 36.3387 33.7972Z" fill="#485079"/>
<path d="M7.91514 22.1907C7.32234 23.3763 6.85433 24.4215 6.27712 25.4043C6.10552 25.7163 5.69992 25.9971 5.35671 26.0751C4.2335 26.3091 3.07909 26.4495 2.00267 26.6055C2.76708 27.4323 3.50029 28.2747 4.2803 29.0548C4.67031 29.4448 4.81071 29.8036 4.70151 30.3652C4.4675 31.4416 4.3271 32.5492 4.1087 33.7816C5.23191 33.2044 6.23032 32.7052 7.19754 32.1748C7.71234 31.894 8.14915 31.894 8.64835 32.1904C9.66236 32.7676 10.7076 33.2824 11.7528 33.8284C12.174 34.0468 12.4548 34.3588 12.2208 34.8112C11.9868 35.2948 11.5656 35.2324 11.1444 35.014C10.2396 34.546 9.36596 34.0468 8.44555 33.6256C8.14915 33.4852 7.68114 33.4852 7.38474 33.61C6.43313 34.0312 5.55952 34.6084 4.6079 34.9984C4.2179 35.1544 3.56269 35.1856 3.26629 34.9672C2.95429 34.7488 2.75148 34.1248 2.78268 33.7036C2.86068 32.674 3.14149 31.66 3.25069 30.6304C3.28189 30.3184 3.14149 29.8816 2.92309 29.6476C2.28348 28.9456 1.56587 28.2903 0.863861 27.6351C0.427056 27.2295 0.0994521 26.7771 0.333455 26.1375C0.567458 25.5135 1.09786 25.3575 1.69067 25.2795C2.64228 25.1547 3.59389 25.0455 4.5455 24.8427C4.85751 24.7803 5.21631 24.4995 5.38791 24.2187C5.88712 23.3607 6.29272 22.4715 6.72953 21.5823C6.97913 21.0831 7.29114 20.7087 7.89954 20.7087C8.53915 20.6931 8.88235 21.0831 9.13196 21.6135C9.55316 22.4715 10.0056 23.3295 10.3956 24.2031C10.5828 24.6243 10.8324 24.8427 11.3004 24.8895C12.2832 24.9987 13.2504 25.1547 14.2332 25.2951C14.7012 25.3575 15.1536 25.4979 15.0756 26.0907C14.9976 26.6679 14.5452 26.7147 14.0616 26.6367C12.8604 26.4495 11.6436 26.3091 10.4424 26.0751C10.0992 26.0127 9.70916 25.7007 9.52196 25.4043C8.97596 24.4059 8.50795 23.3763 7.91514 22.1907Z" fill="#485079"/>
<path d="M16.4952 32.0344C16.3548 31.8784 15.9492 31.6444 15.9492 31.4104C15.9492 31.1608 16.3392 30.7084 16.542 30.7084C18.1489 30.724 19.1161 29.9908 19.6153 28.4619C19.6777 28.2591 20.2237 28.2123 20.5513 28.0875C20.6293 28.3995 20.8477 28.774 20.7541 29.0392C20.4733 29.788 20.0833 30.5056 19.6933 31.2076C19.5997 31.3948 19.3657 31.582 19.1785 31.6288C18.3517 31.7848 17.5249 31.8784 16.4952 32.0344Z" fill="#485079"/>
</svg>
