<svg width="38" height="41" viewBox="0 0 38 41" fill="none" xmlns="http://www.w3.org/2000/svg">
<path d="M23.2753 39.2965C23.2753 39.7652 23.2753 40.1245 23.2753 40.4838C23.1659 40.515 23.1034 40.5463 23.0253 40.5463C18.8386 40.5463 14.6362 40.5619 10.4494 40.5463C9.18398 40.5463 8.30914 39.5777 8.30914 38.2498C8.29352 36.1408 8.30914 34.0318 8.30914 31.8134C8.02794 31.8134 7.77798 31.8134 7.52802 31.8134C5.6221 31.8134 3.73181 31.8134 1.82589 31.8134C0.716705 31.8134 0.185547 31.2979 0.185547 30.1887C0.185547 28.2515 0.185547 26.33 0.185547 24.3616C0.607349 24.3616 0.966661 24.3616 1.41971 24.3616C1.41971 26.3769 1.41971 28.4078 1.41971 30.4855C7.35618 30.4855 13.2145 30.4855 19.151 30.4855C19.4322 28.9389 19.7134 27.3923 19.979 25.8301C20.2602 24.2366 21.0569 22.9243 22.2442 21.7527C21.2288 20.6591 20.4945 19.4249 20.2914 17.9408C20.2133 17.4097 20.2133 16.8473 20.1977 16.3161C20.1821 15.5975 20.1196 14.9413 19.8071 14.2227C19.5259 13.5822 19.4635 12.5668 19.7759 11.9887C20.3539 10.9264 19.9946 9.80162 20.4633 8.69243C19.0573 8.69243 17.7919 8.69243 16.4796 8.69243C16.4796 8.25501 16.4796 7.8957 16.4796 7.44265C17.7919 7.44265 19.0885 7.45827 20.3852 7.42703C20.6195 7.42703 20.9788 7.30205 21.0882 7.13021C22.7598 4.49004 25.15 3.45897 28.1963 3.75579C28.5244 2.27167 28.1807 1.80301 26.7278 1.80301C25.8217 1.80301 24.9156 1.80301 24.0252 1.80301C23.7127 3.75579 23.0566 4.30257 21.0882 4.30257C19.5728 4.30257 18.0731 4.30257 16.5577 4.30257C14.8549 4.30257 14.0738 3.59957 13.9019 1.81863C12.7302 1.81863 11.543 1.77176 10.3557 1.86549C10.0745 1.88112 9.62141 2.39665 9.60579 2.69348C9.52768 4.24008 9.57454 5.80231 9.57454 7.41141C11.4492 7.41141 13.2614 7.41141 15.1361 7.41141C15.1361 7.84883 15.1361 8.20814 15.1361 8.66119C10.6212 8.66119 6.10639 8.66119 1.4822 8.66119C1.4822 13.4729 1.4822 18.222 1.4822 23.0181C1.01353 23.0181 0.638593 23.0181 0.185547 23.0181C0.185547 22.7369 0.185547 22.4869 0.185547 22.237C0.185547 17.9096 0.185547 13.5978 0.185547 9.27046C0.185547 7.8957 0.654216 7.42703 2.01335 7.42703C4.09112 7.42703 6.15326 7.42703 8.30914 7.42703C8.30914 5.95853 8.30914 4.55253 8.30914 3.16214C8.30914 1.39683 9.13712 0.553223 10.8712 0.553223C16.2609 0.553223 21.6506 0.553223 27.0403 0.553223C28.7275 0.553223 29.6023 1.39683 29.5398 3.11528C29.5086 3.88077 29.821 4.19322 30.3991 4.61502C31.3364 5.28678 32.0863 6.19287 32.9299 6.98961C33.1486 7.1927 33.4454 7.41141 33.711 7.42703C34.4921 7.48952 35.2732 7.44265 36.0543 7.44265C37.1166 7.45827 37.6478 7.97381 37.6634 9.00488C37.679 9.91097 37.6634 10.8171 37.6634 11.77C37.226 11.77 36.8511 11.77 36.4136 11.77C36.4136 10.7702 36.4136 9.78599 36.4136 8.75492C35.4763 8.75492 34.6171 8.75492 33.6797 8.75492C34.0547 9.84848 33.8203 10.9889 34.3515 12.0825C34.6483 12.723 34.3202 13.6759 34.2265 14.4727C34.1796 14.9101 33.9141 15.3475 33.9297 15.785C34.039 18.0502 33.5079 20.0655 31.8207 21.7527C34.539 24.0648 34.1953 27.4548 34.9764 30.4855C35.4138 30.4855 35.8356 30.4855 36.3668 30.4855C36.3668 24.7053 36.3668 18.925 36.3668 13.0823C36.8354 13.0823 37.2104 13.0823 37.6634 13.0823C37.6634 13.3635 37.6634 13.6135 37.6634 13.8634C37.6634 19.2219 37.6634 24.5959 37.6634 29.9544C37.6634 31.3135 37.1948 31.7822 35.8356 31.7822C33.836 31.7822 31.8207 31.7822 29.821 31.7822C29.7742 31.7822 29.7117 31.7978 29.5398 31.8134C29.5398 32.0478 29.5398 32.2821 29.5398 32.532C29.5398 34.4067 29.5555 36.2814 29.5398 38.1561C29.5242 39.6089 28.6494 40.4994 27.2121 40.515C26.3529 40.5307 25.4937 40.515 24.5876 40.515C24.5876 40.0932 24.5876 39.7183 24.5876 39.2653C25.4624 39.2653 26.3373 39.2653 27.2277 39.2653C27.8839 39.2653 28.2744 38.9372 28.2744 38.2654C28.29 36.1408 28.2744 34.0005 28.2744 31.8134C22.0255 31.8134 15.8235 31.8134 9.5433 31.8134C9.5433 34.0162 9.51205 36.1877 9.55892 38.3748C9.57454 39.0934 10.1369 39.2653 10.7775 39.2653C14.6049 39.2496 18.4324 39.2653 22.2598 39.2653C22.6035 39.2965 22.916 39.2965 23.2753 39.2965ZM20.3539 30.5168C24.8844 30.5168 29.243 30.5168 33.7578 30.5168C33.336 28.5796 33.008 26.6893 32.5081 24.8459C32.1956 23.6898 31.3208 22.8462 30.3366 22.1745C30.0085 21.9558 29.7585 21.8776 29.3836 22.1432C27.8526 23.2055 26.2748 23.1899 24.7282 22.1432C24.3845 21.9089 24.1658 21.9089 23.8377 22.1276C22.8222 22.815 21.9318 23.6742 21.6037 24.8459C21.1038 26.6893 20.7757 28.5796 20.3539 30.5168ZM28.8993 8.97364C27.3215 10.3953 25.4624 11.0983 23.3065 11.2076C23.3065 11.895 23.3065 12.5355 23.3065 13.176C23.3065 15.9568 23.1191 15.6444 25.4468 17.1597C27.2277 18.3314 26.8528 18.3314 28.6181 17.1597C30.9927 15.5819 30.7896 15.9099 30.7896 13.0979C30.7896 10.6765 30.7896 10.6765 29.0399 9.05175C29.0399 9.05175 29.0087 9.05175 28.8993 8.97364ZM32.633 10.6452C32.7268 7.41141 30.0241 4.83373 26.8372 4.92746C23.8533 5.0212 21.2756 7.70823 21.4943 10.5827C21.7131 10.489 21.8849 10.4265 22.0724 10.3484C22.4004 10.2078 22.7285 9.94222 23.0566 9.94222C25.0719 9.91097 26.8216 9.23921 28.2432 7.81759C28.7118 7.34892 29.0868 7.31767 29.5555 7.81759C30.3522 8.67681 31.1645 9.50479 31.9925 10.3328C32.1644 10.4578 32.3831 10.5202 32.633 10.6452ZM29.2586 18.2845C29.4773 18.9563 29.6648 19.5812 29.8835 20.1904C30.1803 20.9872 30.774 21.0965 31.3208 20.456C32.5393 19.0344 32.8205 17.3784 32.5081 15.5038C32.2112 15.6444 31.9769 15.8318 31.7738 16.0505C31.4145 16.4567 31.1177 16.9098 30.7115 17.2691C30.3053 17.644 29.8054 17.9252 29.2586 18.2845ZM21.4943 15.5038C21.2913 17.4097 21.5881 19.0656 22.8222 20.4716C23.3222 21.0497 23.9158 20.9872 24.197 20.2842C24.4626 19.6437 24.6344 18.9719 24.8531 18.3158C24.7594 18.222 24.7125 18.1595 24.6501 18.1283C23.6971 17.4722 22.6035 16.9722 22.1974 15.7381C22.1349 15.6131 21.7443 15.5819 21.4943 15.5038ZM22.666 1.84987C20.1665 1.84987 17.6981 1.84987 15.2298 1.84987C15.2454 2.74034 15.4954 3.05279 16.3077 3.05279C18.0574 3.06841 19.7915 3.06841 21.5412 3.05279C22.3536 3.03717 22.6035 2.77159 22.666 1.84987ZM25.8998 19.1906C25.7436 19.628 25.5249 20.1592 25.3999 20.706C25.3687 20.8622 25.5249 21.1434 25.6655 21.2528C26.4154 21.7995 27.7433 21.7839 28.4775 21.2371C28.6181 21.1278 28.7743 20.8466 28.7275 20.6904C28.5869 20.1436 28.3682 19.628 28.2276 19.1906C27.4152 19.1906 26.6966 19.1906 25.8998 19.1906ZM32.1019 14.2696C33.0548 14.254 33.336 13.9571 33.3048 12.9729C33.2892 12.1293 32.9767 11.8325 32.1019 11.8794C32.1019 12.6605 32.1019 13.4729 32.1019 14.2696ZM22.0255 14.2383C22.0255 13.4416 22.0255 12.6449 22.0255 11.8481C21.0725 11.8481 20.7913 12.1606 20.807 13.1448C20.8382 13.9884 21.135 14.2696 22.0255 14.2383Z" fill="#485079"/>
<path d="M10.7931 28.0485C8.88716 28.0485 6.99686 28.0485 5.09095 28.0485C3.59121 28.0485 2.70074 27.158 2.70074 25.6739C2.68511 22.2682 2.70074 18.8469 2.70074 15.4413C2.70074 13.9415 3.57558 13.0511 5.07532 13.0511C8.90278 13.0354 12.7302 13.0511 16.5577 13.0511C18.0574 13.0511 18.9479 13.9259 18.9479 15.4256C18.9635 18.8313 18.9635 22.2526 18.9479 25.6582C18.9479 27.158 18.0574 28.0485 16.5733 28.0485C14.6362 28.0641 12.7146 28.0485 10.7931 28.0485ZM10.8243 14.3008C8.94965 14.3008 7.07498 14.3008 5.2003 14.3008C4.24734 14.3008 3.9349 14.5977 3.9349 15.5506C3.9349 18.8782 3.9349 22.2057 3.9349 25.5333C3.9349 26.4706 4.24734 26.783 5.2003 26.783C8.91841 26.783 12.6365 26.783 16.3546 26.783C17.3701 26.783 17.6669 26.4862 17.6669 25.4864C17.6669 22.1901 17.6669 18.8782 17.6669 15.5819C17.6669 14.582 17.3701 14.3008 16.3546 14.3008C14.5268 14.3008 12.6834 14.3008 10.8243 14.3008Z" fill="#485079"/>
<path d="M18.8698 38.0467C17.7762 38.0467 16.6827 38.0623 15.5891 38.0467C14.1519 38.0311 13.3083 37.0938 13.3083 35.5628C13.3083 34.0162 14.1363 33.0632 15.5579 33.0476C17.7919 33.032 20.0415 33.032 22.2755 33.0476C23.7127 33.0632 24.5563 34.0005 24.5563 35.5315C24.5563 37.0781 23.7283 38.0155 22.3067 38.0467C21.1663 38.0623 20.0102 38.0467 18.8698 38.0467ZM18.9323 36.7969C19.9946 36.7969 21.0569 36.8126 22.1349 36.7969C23.0097 36.7813 23.3222 36.4376 23.3065 35.5315C23.3065 34.6723 22.9941 34.313 22.1661 34.313C20.0102 34.2974 17.8544 34.2974 15.6985 34.313C14.8705 34.313 14.5581 34.6723 14.5581 35.5315C14.5581 36.4376 14.8549 36.7813 15.7297 36.7969C16.8077 36.8126 17.87 36.7969 18.9323 36.7969Z" fill="#485079"/>
<path d="M2.71636 11.1451C2.71636 10.7546 2.71636 10.3953 2.71636 9.98909C3.09129 9.98909 3.46623 9.98909 3.88803 9.98909C3.88803 10.3484 3.88803 10.7233 3.88803 11.1451C3.51309 11.1451 3.13816 11.1451 2.71636 11.1451Z" fill="#485079"/>
<path d="M5.24717 9.95784C5.65335 9.95784 5.99704 9.95784 6.40322 9.95784C6.40322 10.364 6.40322 10.739 6.40322 11.1451C6.01266 11.1451 5.65335 11.1451 5.24717 11.1451C5.24717 10.7702 5.24717 10.3953 5.24717 9.95784Z" fill="#485079"/>
<path d="M8.93403 9.97346C8.93403 10.3796 8.93403 10.7233 8.93403 11.1139C8.54347 11.1139 8.18416 11.1139 7.74674 11.1139C7.74674 10.7702 7.74674 10.3953 7.74674 9.97346C8.10605 9.97346 8.48098 9.97346 8.93403 9.97346Z" fill="#485079"/>
<path d="M28.8681 15.3944C28.7587 16.2536 28.087 16.8004 27.0559 16.8004C26.0248 16.8004 25.3687 16.2692 25.2437 15.3944C26.4466 15.3944 27.6652 15.3944 28.8681 15.3944Z" fill="#485079"/>
<path d="M29.5242 13.0198C29.118 13.0198 28.7587 13.0198 28.3525 13.0198C28.3525 12.6293 28.3525 12.2543 28.3525 11.8481C28.7275 11.8481 29.1024 11.8481 29.5242 11.8481C29.5242 12.2231 29.5242 12.5824 29.5242 13.0198Z" fill="#485079"/>
<path d="M25.7592 13.0354C25.3687 13.0354 25.0094 13.0354 24.6188 13.0354C24.6188 12.6293 24.6188 12.2699 24.6188 11.8481C24.9937 11.8481 25.3531 11.8481 25.7592 11.8481C25.7592 12.2074 25.7592 12.5668 25.7592 13.0354Z" fill="#485079"/>
<path d="M7.05935 20.5498C7.05935 19.3781 7.04373 18.2064 7.05935 17.0347C7.07498 16.238 7.46553 16.0037 8.16854 16.3474C10.5275 17.5034 12.8708 18.6751 15.1986 19.878C15.4485 20.003 15.7766 20.3154 15.7453 20.5185C15.7141 20.7841 15.4329 21.0965 15.1673 21.2371C12.8552 22.4244 10.5275 23.5805 8.19978 24.7365C7.40304 25.1271 7.04373 24.8771 7.02811 23.971C7.05935 22.8306 7.05935 21.6902 7.05935 20.5498ZM13.7769 20.5498C11.8866 19.5968 10.1526 18.7376 8.37163 17.8471C8.37163 19.6905 8.37163 21.4246 8.37163 23.2524C10.1682 22.3619 11.8866 21.5027 13.7769 20.5498Z" fill="#485079"/>
</svg>
