<svg width="41" height="41" viewBox="0 0 41 41" fill="none" xmlns="http://www.w3.org/2000/svg">
<path d="M13.495 16.4454C10.0921 15.5144 8.50628 13.0703 7.79596 9.91132C7.43255 8.29857 7.44906 6.6692 7.91159 5.05646C8.63843 2.52927 10.5877 0.81677 13.1811 0.600629C14.3375 0.500871 15.5764 0.55075 16.6997 0.833396C19.4583 1.5317 20.9946 3.67648 21.2259 7.05161C21.3745 9.2629 20.8955 11.3412 19.7061 13.2366C18.6654 14.8826 17.2613 16.0464 15.1304 16.4621C17.1292 16.6948 18.9132 16.8943 20.7964 17.1271C21.4736 15.797 22.663 15.4312 24.1332 15.4811C25.9172 15.5476 27.7178 15.4977 29.5018 15.4977C31.4841 15.5144 32.5578 16.5951 32.5909 18.5736C32.5909 18.956 32.5909 19.3384 32.5909 19.8206C34.028 19.8206 35.3661 19.8206 36.7041 19.8206C37.5631 19.8206 38.4056 19.8039 39.2645 19.8372C40.2722 19.8704 40.9495 20.5022 40.966 21.4998C40.999 23.2123 41.0321 24.9414 40.9329 26.6539C40.8999 27.3024 40.4704 27.9175 40.2226 28.5493C40.0574 28.9982 39.7931 29.4471 39.7766 29.8961C39.7271 32.39 39.7601 34.8839 39.7601 37.3779C39.7601 39.5226 38.7524 40.5368 36.638 40.5535C30.1461 40.5535 23.6376 40.5535 17.1457 40.5535C14.3209 40.5535 13.6602 39.9715 13.3298 37.0453C13.049 37.0453 12.7682 37.0453 12.4708 37.0453C8.7045 37.0453 4.92167 37.0453 1.15535 37.0453C0.114656 37.0453 -0.000976562 36.9289 -0.000976562 35.9147C-0.000976562 31.9244 -0.000976562 27.9342 -0.000976562 23.9439C-0.000976562 22.0983 0.758895 20.6352 2.19604 19.5047C4.1618 17.9584 6.49097 17.443 8.86969 17.044C10.3729 16.778 11.9092 16.6449 13.495 16.4454ZM6.2597 35.6487C6.2597 32.7225 6.2597 29.8961 6.2597 27.0862C6.2597 26.5874 6.27622 26.0554 6.92046 26.0554C7.54818 26.0554 7.59773 26.5708 7.59773 27.0862C7.59773 29.5469 7.59773 32.0242 7.59773 34.4849C7.59773 34.8673 7.59773 35.2497 7.59773 35.6487C9.58001 35.6487 11.4632 35.6487 13.4124 35.6487C13.4124 33.5206 13.4289 31.4423 13.3959 29.3806C13.3959 29.1645 13.2307 28.9151 13.082 28.7488C12.4708 28.0173 12.19 27.186 12.2065 26.2217C12.2396 24.7253 12.2065 23.2289 12.223 21.7326C12.2396 20.469 12.8342 19.8538 14.0897 19.8372C15.659 19.8206 17.2283 19.8372 18.7976 19.8372C19.3592 19.8372 19.9209 19.8372 20.466 19.8372C20.6477 18.5237 20.6477 18.5403 19.5905 18.3574C16.3363 17.7922 13.082 17.7423 9.81127 18.2411C7.66381 18.5736 5.51635 18.956 3.61667 20.1365C2.11345 21.0841 1.27098 22.381 1.30402 24.2431C1.3701 27.7346 1.32054 31.2594 1.32054 34.7842C1.32054 35.0668 1.32054 35.3661 1.32054 35.6487C3.02199 35.6487 4.59129 35.6487 6.2597 35.6487ZM14.7339 30.0457C14.7339 32.6394 14.7339 35.0668 14.7339 37.4942C14.7339 38.7246 15.1964 39.1901 16.4519 39.1901C23.2246 39.1901 29.9809 39.1901 36.7537 39.1901C37.9761 39.1901 38.4221 38.7246 38.4386 37.461C38.4551 35.2497 38.4386 33.0384 38.4386 30.8105C38.4386 30.5777 38.389 30.345 38.3725 30.0623C35.7956 31.1264 33.1856 31.5088 30.5425 31.6751C30.0635 31.7083 29.7827 31.8247 29.634 32.3734C29.2375 33.8198 28.0151 34.7177 26.5945 34.7177C25.1408 34.7177 23.968 33.7866 23.4724 32.3069C23.3898 32.0741 23.0925 31.7416 22.8778 31.7249C20.1356 31.5088 17.41 31.1763 14.7339 30.0457ZM18.748 21.1507C17.1787 21.1507 15.7251 21.1673 14.2714 21.134C13.6767 21.1174 13.5115 21.3668 13.528 21.9155C13.5611 23.2456 13.5941 24.5757 13.5115 25.9058C13.4454 27.1527 13.9906 27.984 14.9817 28.566C15.5268 28.8819 16.105 29.2144 16.7162 29.3308C18.8471 29.7464 20.9946 30.0623 23.1255 30.3948C23.3072 30.4281 23.6211 30.2286 23.7367 30.0457C25.24 27.7346 27.9325 27.718 29.4027 30.0124C29.5349 30.2119 29.8653 30.4115 30.08 30.3948C31.4015 30.2785 32.7396 30.2286 34.0115 29.9293C35.4652 29.5802 36.9023 29.0647 38.2734 28.4828C39.0168 28.1669 39.5784 27.5019 39.6114 26.6207C39.661 24.9913 39.6445 23.3453 39.6114 21.7159C39.6114 21.5331 39.3306 21.2005 39.1654 21.1839C37.6126 21.1507 36.0433 21.1673 34.3914 21.1673C34.3914 22.0152 34.3914 22.78 34.3914 23.5615C34.3749 25.0578 33.6481 25.8226 32.1779 25.8393C28.4281 25.8559 24.6948 25.8559 20.945 25.8393C19.5244 25.8393 18.7811 25.0744 18.748 23.628C18.7315 22.8299 18.748 22.0485 18.748 21.1507ZM8.77058 7.65015C8.90273 9.59542 9.43134 11.3744 10.406 12.771C12.603 15.9466 16.3032 15.93 18.4507 12.7378C19.8383 10.6595 20.2182 8.34845 19.7557 5.92102C19.4418 4.20852 18.5168 2.89505 16.8483 2.26325C15.279 1.66471 13.6767 1.66471 12.0909 2.21337C10.8024 2.66228 9.86083 3.54347 9.41482 4.84032C9.10096 5.75476 8.96881 6.71908 8.77058 7.65015ZM20.0861 21.1839C20.0861 22.0651 20.0861 22.8632 20.0861 23.6612C20.0861 24.2099 20.3669 24.4759 20.912 24.4759C24.6948 24.4759 28.4942 24.4925 32.277 24.4426C32.5413 24.4426 33.0039 24.1101 33.0204 23.894C33.103 22.9962 33.0534 22.0983 33.0534 21.1839C28.6924 21.1839 24.4471 21.1839 20.0861 21.1839ZM28.4281 31.542C28.4446 30.478 27.6187 29.6467 26.5615 29.6467C25.5538 29.6633 24.7444 30.4613 24.7279 31.4922C24.7114 32.5562 25.5373 33.3876 26.5945 33.3876C27.6187 33.3876 28.4116 32.5729 28.4281 31.542ZM22.4648 19.8704C22.4648 19.4049 22.4648 19.0225 22.4648 18.6401C22.4813 17.6924 22.7621 17.3931 23.6872 17.3931C25.6034 17.3765 27.5361 17.3765 29.4523 17.3931C30.4104 17.3931 30.6912 17.709 30.7077 18.7066C30.7077 18.9892 30.6912 19.2553 30.7242 19.5379C30.7408 19.6377 30.8564 19.754 30.9555 19.8039C31.0051 19.8206 31.1537 19.7374 31.2033 19.6709C31.8641 18.5403 30.9555 16.8777 29.6505 16.8611C27.6187 16.8445 25.5869 16.8445 23.555 16.8611C22.2005 16.8777 21.2754 18.4738 21.9362 19.6875C22.0022 19.754 22.217 19.7707 22.4648 19.8704ZM29.3367 19.7707C29.3367 19.4049 29.3367 19.1056 29.3367 18.7731C27.47 18.7731 25.6529 18.7731 23.8193 18.7731C23.8193 19.1223 23.8193 19.4215 23.8193 19.7707C25.6695 19.7707 27.47 19.7707 29.3367 19.7707Z" fill="#485079"/>
<path d="M29.3367 19.7707C27.4535 19.7707 25.6529 19.7707 23.8193 19.7707C23.8193 19.4215 23.8193 19.1223 23.8193 18.7731C25.6529 18.7731 27.47 18.7731 29.3367 18.7731C29.3367 19.1056 29.3367 19.4049 29.3367 19.7707Z" fill="white"/>
</svg>
