<svg width="130" height="133" viewBox="0 0 130 133" fill="none" xmlns="http://www.w3.org/2000/svg">
<path d="M103.212 40.8396C82.7231 20.9846 42.4529 21.8957 24.6402 30.99C6.82742 40.0843 10.2077 69.7966 23.7834 88.6898C37.3591 107.583 55.587 121.294 80.3444 113.707C105.102 106.119 123.7 60.6945 103.212 40.8396Z" fill="white" fill-opacity="0.4"/>
<g filter="url(#filter0_d_127_15)">
<path d="M60.8513 27.7674C38.0404 35.5639 23.2556 66.2447 23.2556 83.1579C23.2556 100.071 46.9113 108.95 66.3428 105.991C85.7742 103.031 103.094 94.5743 106.895 73.0101C110.697 51.4458 83.6621 19.9708 60.8513 27.7674Z" fill="white"/>
</g>
<path d="M62.1925 46.5532C67.9958 46.6156 72.863 50.6561 74.0174 56.4437C75.1094 61.8726 72.0362 67.5355 66.8413 69.6727C66.3577 69.8755 65.7025 70.3435 65.3749 69.5635C65.0317 68.7679 65.8273 68.6899 66.3265 68.4559C66.9505 68.1439 67.5433 67.7695 68.183 67.4575C68.807 67.1455 68.9786 66.6775 68.9162 65.991C68.7446 64.1502 67.9334 62.715 66.3109 61.8258C66.0301 61.6698 65.5465 61.6698 65.2657 61.8102C63.2377 62.871 61.2409 62.871 59.2285 61.7946C58.9788 61.6698 58.5732 61.6542 58.3236 61.7634C56.5764 62.5746 55.4064 64.665 55.6092 66.5527C55.6404 66.7867 55.8276 67.0831 56.046 67.2079C56.8104 67.6759 57.6216 68.1127 58.4328 68.5183C58.9008 68.7523 59.4313 68.9239 59.1348 69.5635C58.8696 70.1563 58.3704 69.9379 57.9336 69.7663C53.1444 67.9411 49.9463 62.9958 50.2895 57.957C50.6172 52.5749 54.3612 48.1132 59.4937 46.9588C60.3829 46.756 61.2877 46.678 62.1925 46.5532ZM70.211 65.5542C73.6898 61.857 74.0798 54.9149 69.275 50.6249C64.7821 46.6156 57.7308 47.2084 53.9244 51.9353C50.0867 56.6933 51.5376 63.0114 54.2676 65.4762C54.5796 63.261 55.7496 61.6386 57.6372 60.5154C55.3284 57.4265 56.202 54.0569 58.074 52.2785C60.1645 50.2973 63.4093 50.0633 65.7337 51.7481C66.9193 52.6061 67.6994 53.7449 68.027 55.1645C68.495 57.1301 68.0426 58.9086 66.7945 60.5154C68.7602 61.6542 69.8678 63.3078 70.211 65.5542ZM62.2549 61.2798C64.7977 61.2642 66.9037 59.1426 66.8881 56.5997C66.8725 54.0569 64.7509 51.9509 62.2081 51.9665C59.6653 51.9821 57.5592 54.1037 57.5592 56.6465C57.5748 59.1738 59.7121 61.2954 62.2549 61.2798Z" fill="#485079"/>
<path d="M55.968 85.0389C56.1864 83.7753 56.4048 82.3556 56.6856 80.9516C56.7792 80.468 56.7168 80.1404 56.3424 79.7972C55.3752 78.9236 54.4704 78.0032 53.5188 77.0984C53.0508 76.6616 52.7544 76.178 52.9884 75.5072C53.2224 74.8364 53.7528 74.6492 54.3768 74.5555C55.656 74.3839 56.9508 74.1967 58.23 74.0251C58.6824 73.9627 58.9632 73.7911 59.1661 73.3543C59.7277 72.1531 60.3517 70.9831 60.9289 69.7975C61.2097 69.2359 61.5841 68.8615 62.2393 68.8615C62.8945 68.8615 63.2689 69.2515 63.5341 69.8131C64.1269 71.0299 64.7197 72.2467 65.3593 73.4323C65.4841 73.6819 65.8117 73.9315 66.0925 73.9783C67.3873 74.2123 68.7134 74.3839 70.0238 74.5555C70.679 74.6492 71.2406 74.8208 71.4746 75.5228C71.7242 76.2404 71.3498 76.7084 70.8818 77.1608C69.9458 78.05 68.9942 78.9392 68.0894 79.8752C67.8866 80.0936 67.7462 80.5148 67.793 80.7956C67.9646 82.0748 68.2298 83.3541 68.4482 84.6333C68.5574 85.2729 68.5418 85.8813 67.9334 86.3025C67.3561 86.7081 66.8101 86.5365 66.2485 86.2401C65.1097 85.6317 63.9397 85.0545 62.8009 84.4305C62.3797 84.1965 62.0677 84.2121 61.6621 84.4461C60.4297 85.1169 59.1973 85.7721 57.9336 86.3805C56.9352 86.8797 55.968 86.2557 55.968 85.0389ZM69.8678 75.8348C69.9302 75.866 69.9926 75.9128 70.055 75.944C69.7742 75.8972 69.509 75.8348 69.2282 75.8036C67.949 75.6164 66.6541 75.476 65.3749 75.2264C65.0161 75.1484 64.5793 74.8364 64.4077 74.5087C63.7525 73.3543 63.2065 72.1531 62.6137 70.9675C62.5045 70.7491 62.3797 70.5463 62.2081 70.2499C61.7401 71.1859 61.2409 71.9347 60.9757 72.7615C60.3517 74.6804 59.1504 75.6164 57.1068 75.554C56.2176 75.5228 55.3128 75.8036 54.5484 75.9284C55.3128 76.7708 55.9836 77.6912 56.8416 78.3932C57.9804 79.3292 58.3704 80.312 57.918 81.7628C57.5904 82.8236 57.528 83.9781 57.3252 85.2261C58.7916 84.4617 60.1177 83.8221 61.4125 83.1045C62.0053 82.7768 62.4889 82.7768 63.0817 83.1045C64.3765 83.8221 65.7181 84.4773 67.1689 85.2261C66.9037 83.6193 66.7009 82.1528 66.3889 80.7176C66.2329 80.0312 66.4513 79.6256 66.9193 79.142C67.9178 78.0656 68.885 76.9424 69.8678 75.8348Z" fill="#485079"/>
<path d="M78.3387 79.7972C78.1203 78.5336 77.9643 77.426 77.7303 76.3496C77.6211 75.8192 77.7615 75.476 78.1203 75.1016C78.9003 74.3059 79.6335 73.4635 80.4135 72.6211C79.6491 72.5119 78.7755 72.2935 77.8863 72.2623C76.8255 72.2155 76.1702 71.7943 75.7958 70.7803C75.4838 69.9379 75.0158 69.1579 74.5322 68.2063C73.9706 69.3295 73.4558 70.3123 72.9878 71.3107C72.7538 71.8099 72.4418 72.0751 71.8802 72.1375C70.6946 72.2779 69.509 72.4651 68.339 72.6523C67.8866 72.7147 67.4653 72.6679 67.3717 72.1375C67.2625 71.5603 67.6838 71.3731 68.1674 71.3107C69.119 71.1703 70.0706 71.0143 71.0222 70.9207C71.5838 70.8583 71.8802 70.6087 72.0986 70.0939C72.4574 69.2671 72.8942 68.4715 73.2998 67.6447C73.5494 67.1299 73.877 66.7087 74.5166 66.7087C75.1562 66.7087 75.4994 67.0987 75.749 67.6135C76.1858 68.5027 76.5915 69.3919 77.0751 70.2499C77.2311 70.5151 77.5587 70.7647 77.8551 70.8271C78.7911 71.0299 79.7427 71.1391 80.6943 71.2639C81.3183 71.3419 81.8799 71.4823 82.1139 72.1687C82.3479 72.8551 81.9423 73.2919 81.4899 73.7287C80.8347 74.3527 80.1951 75.008 79.5087 75.6164C79.1655 75.9284 79.0251 76.2092 79.1499 76.6928C79.3683 77.5976 79.4775 78.5336 79.6491 79.454C79.7427 80.0312 79.7895 80.6084 79.2435 81.014C78.6975 81.4196 78.1827 81.248 77.6523 80.9672C76.9503 80.5772 76.1858 80.2808 75.5306 79.8284C74.8286 79.3604 74.2358 79.4072 73.5494 79.844C72.8474 80.2808 72.083 80.624 71.3498 80.9984C70.9442 81.2168 70.523 81.3104 70.2578 80.8424C69.977 80.3432 70.3046 80.0312 70.7414 79.7972C71.8334 79.2356 72.8942 78.6428 74.0018 78.128C74.3138 77.9876 74.8286 78.0032 75.1406 78.1436C76.1702 78.6116 77.1687 79.1732 78.3387 79.7972Z" fill="#485079"/>
<path d="M49.9151 68.1907C49.3223 69.3763 48.8543 70.4215 48.2771 71.4043C48.1055 71.7163 47.6999 71.9971 47.3567 72.0751C46.2335 72.3091 45.0791 72.4495 44.0027 72.6055C44.7671 73.4323 45.5003 74.2747 46.2803 75.0548C46.6703 75.4448 46.8107 75.8036 46.7015 76.3652C46.4675 77.4416 46.3271 78.5492 46.1087 79.7816C47.2319 79.2044 48.2303 78.7052 49.1975 78.1748C49.7123 77.894 50.1491 77.894 50.6484 78.1904C51.6624 78.7676 52.7076 79.2824 53.7528 79.8284C54.174 80.0468 54.4548 80.3588 54.2208 80.8112C53.9868 81.2948 53.5656 81.2324 53.1444 81.014C52.2396 80.546 51.366 80.0468 50.4455 79.6256C50.1491 79.4852 49.6811 79.4852 49.3847 79.61C48.4331 80.0312 47.5595 80.6084 46.6079 80.9984C46.2179 81.1544 45.5627 81.1856 45.2663 80.9672C44.9543 80.7488 44.7515 80.1248 44.7827 79.7036C44.8607 78.674 45.1415 77.66 45.2507 76.6304C45.2819 76.3184 45.1415 75.8816 44.9231 75.6476C44.2835 74.9456 43.5659 74.2903 42.8639 73.6351C42.4271 73.2295 42.0995 72.7771 42.3335 72.1375C42.5675 71.5135 43.0979 71.3575 43.6907 71.2795C44.6423 71.1547 45.5939 71.0455 46.5455 70.8427C46.8575 70.7803 47.2163 70.4995 47.3879 70.2187C47.8871 69.3607 48.2927 68.4715 48.7295 67.5823C48.9791 67.0831 49.2911 66.7087 49.8995 66.7087C50.5392 66.6931 50.8824 67.0831 51.132 67.6135C51.5532 68.4715 52.0056 69.3295 52.3956 70.2031C52.5828 70.6243 52.8324 70.8427 53.3004 70.8895C54.2832 70.9987 55.2504 71.1547 56.2332 71.2951C56.7012 71.3575 57.1536 71.4979 57.0756 72.0907C56.9976 72.6679 56.5452 72.7147 56.0616 72.6367C54.8604 72.4495 53.6436 72.3091 52.4424 72.0751C52.0992 72.0127 51.7092 71.7007 51.522 71.4043C50.976 70.4059 50.5079 69.3763 49.9151 68.1907Z" fill="#485079"/>
<path d="M58.4952 78.0344C58.3548 77.8784 57.9492 77.6444 57.9492 77.4104C57.9492 77.1608 58.3392 76.7084 58.542 76.7084C60.1489 76.724 61.1161 75.9908 61.6153 74.4619C61.6777 74.2591 62.2237 74.2123 62.5513 74.0875C62.6293 74.3995 62.8477 74.774 62.7541 75.0392C62.4733 75.788 62.0833 76.5056 61.6933 77.2076C61.5997 77.3948 61.3657 77.582 61.1785 77.6288C60.3517 77.7848 59.5249 77.8784 58.4952 78.0344Z" fill="#485079"/>
<defs>
<filter id="filter0_d_127_15" x="8.25562" y="11.5532" width="114" height="110" filterUnits="userSpaceOnUse" color-interpolation-filters="sRGB">
<feFlood flood-opacity="0" result="BackgroundImageFix"/>
<feColorMatrix in="SourceAlpha" type="matrix" values="0 0 0 0 0 0 0 0 0 0 0 0 0 0 0 0 0 0 127 0" result="hardAlpha"/>
<feOffset/>
<feGaussianBlur stdDeviation="7.5"/>
<feComposite in2="hardAlpha" operator="out"/>
<feColorMatrix type="matrix" values="0 0 0 0 0 0 0 0 0 0 0 0 0 0 0 0 0 0 0.1 0"/>
<feBlend mode="normal" in2="BackgroundImageFix" result="effect1_dropShadow_127_15"/>
<feBlend mode="normal" in="SourceGraphic" in2="effect1_dropShadow_127_15" result="shape"/>
</filter>
</defs>
</svg>
