<svg width="28" height="41" viewBox="0 0 28 41" fill="none" xmlns="http://www.w3.org/2000/svg">
<path d="M13.0056 24.1938C14.0751 23.147 14.6022 21.897 14.7417 20.4126C10.4324 20.4126 6.13863 20.4126 1.76735 20.4126C1.68984 20.8657 1.58134 21.3501 1.53483 21.8188C1.17831 25.397 1.36432 28.8501 3.59647 31.8813C3.73598 32.0688 3.59647 32.4595 3.58097 32.772C3.27095 32.6938 2.83692 32.7251 2.68191 32.522C1.0698 30.4751 0.356759 28.0532 0.263753 25.4907C0.201749 23.7407 0.480767 21.9751 0.604775 20.2095C0.651278 19.522 0.930296 19.0532 1.68984 19.147C1.72085 19.0376 1.75185 18.9751 1.73635 18.9438C0.465266 16.7095 1.37982 14.5063 1.79835 12.2876C1.89136 11.7563 1.99986 11.2095 2.13937 10.6938C2.30988 10.0376 2.69741 9.88135 3.20894 10.3032C4.63503 11.4751 6.03012 12.6626 7.42521 13.8657C7.62672 14.0376 7.75073 14.3345 7.84374 14.5845C8.30877 15.9282 8.7738 17.2876 9.22333 18.647C9.34733 19.022 9.53335 19.1938 9.93637 19.1782C10.5254 19.147 11.1144 19.1626 11.843 19.1626C11.843 18.1782 11.843 17.2251 11.843 16.272C11.843 16.0688 11.781 15.8188 11.8585 15.6626C11.9825 15.4282 12.2305 15.2563 12.432 15.0688C12.618 15.272 12.9591 15.4595 12.9746 15.6782C13.0366 16.5063 13.0056 17.3501 13.0056 18.1782C13.0056 18.4907 13.0056 18.7876 13.0056 19.1313C13.3776 19.1313 13.6566 19.1313 14.0131 19.1313C14.0131 18.0845 14.0131 17.0376 14.0131 16.0063C14.0131 15.5845 13.9821 15.1001 14.5712 15.0845C15.2222 15.0688 15.1757 15.6001 15.1757 16.0376C15.1757 17.0532 15.1757 18.0532 15.1757 19.1782C15.6097 19.1782 15.9663 19.147 16.3073 19.1782C16.7723 19.2251 16.9893 19.022 17.1753 18.6157C18.3224 16.2095 19.5005 13.8032 20.6786 11.397C21.4071 9.88135 22.3217 9.56885 23.8253 10.3032C24.5228 10.647 25.2203 10.9751 25.9024 11.3345C27.0495 11.9282 27.406 12.9595 26.848 14.147C26.0729 15.772 25.2824 17.3657 24.6158 18.7563C24.8328 19.4282 25.0808 19.8813 25.1118 20.3657C25.2358 22.4126 25.8559 24.2876 26.8635 26.0532C27.623 27.3813 27.2665 28.3813 25.8869 28.9907C25.7164 29.0688 25.5459 29.3501 25.5149 29.5532C24.8948 34.1313 21.2986 37.3345 16.7103 37.3813C16.2763 37.3813 15.8422 37.3813 15.3152 37.3813C15.3152 38.2095 15.2997 38.9595 15.3152 39.7095C15.3307 40.3032 15.0672 40.5532 14.4782 40.5532C11.6105 40.5376 8.74279 40.5376 5.87511 40.5532C5.28607 40.5532 5.02256 40.3188 5.03806 39.7095C5.05356 38.0376 5.00706 36.3813 5.06906 34.7095C5.08456 34.4126 5.36358 33.9907 5.6271 33.8501C7.42521 32.897 8.8048 31.5532 9.79686 29.6938C8.55678 29.1938 7.68873 28.3813 7.44071 27.0376C7.2857 26.1782 7.47171 25.3813 7.95224 24.6626C9.03731 22.9595 10.8974 22.772 13.0056 24.1938ZM6.20063 39.3032C8.89781 39.3032 11.502 39.3032 14.1526 39.3032C14.1526 38.5063 14.1681 37.7876 14.1526 37.0532C14.1371 36.4126 14.4162 36.147 15.0362 36.1782C15.6252 36.1938 16.2298 36.1938 16.8188 36.1782C20.9421 36.1313 24.1973 32.9751 24.3833 28.8345C24.4143 28.1626 24.6158 27.8345 25.3289 27.8501C25.9799 27.8501 26.2744 27.4126 25.9644 26.8813C24.8173 24.8813 24.0888 22.7407 23.9183 20.4126C21.2211 20.4126 18.6014 20.4126 15.9508 20.4126C15.7647 22.0845 15.2222 23.5688 14.0751 24.7876C13.1296 25.8032 13.0366 25.8032 11.998 24.9282C11.2695 24.3188 10.3704 24.2095 9.62635 24.6313C8.8358 25.0688 8.43278 25.9595 8.60329 26.897C8.7583 27.7407 9.44034 28.3813 10.3549 28.5376C11.3315 28.7095 11.44 28.9282 11.0059 29.8501C10.0759 31.8657 8.63429 33.4282 6.75867 34.5845C6.54165 34.7251 6.23163 34.9595 6.23163 35.1626C6.16963 36.5063 6.20063 37.8813 6.20063 39.3032ZM24.0113 17.272C24.3213 16.6313 24.6003 16.0532 24.8793 15.4751C24.4763 15.2563 24.1043 15.147 23.8563 14.9126C23.7013 14.7563 23.5927 14.3657 23.6858 14.1938C23.7633 14.022 24.1508 13.897 24.3678 13.9438C24.7088 14.0063 25.0343 14.2095 25.3444 14.3657C26.2279 13.0688 26.1504 12.772 24.8173 12.1157C24.2593 11.8501 23.7013 11.5845 23.1432 11.3032C22.5077 10.9751 22.0736 11.1313 21.7636 11.7876C21.0351 13.3188 20.291 14.8188 19.5625 16.3501C19.1285 17.2563 18.6789 18.1626 18.1829 19.1938C19.671 19.1938 21.0351 19.1626 22.3837 19.2095C23.0192 19.2251 23.3447 19.0063 23.4067 18.3345C22.9262 18.0845 22.3992 17.897 21.9651 17.5845C21.7636 17.4282 21.7171 17.0532 21.5931 16.7876C21.8876 16.7095 22.1977 16.5063 22.4457 16.5845C22.9727 16.7095 23.4377 17.0063 24.0113 17.272ZM2.27888 15.8657C4.29401 16.272 5.23957 15.897 6.20063 14.3813C6.16963 14.3501 6.13863 14.3032 6.09213 14.272C5.58059 13.8345 5.06906 13.397 4.55753 12.9595C3.75148 12.272 2.92992 12.5688 2.71291 13.6157C2.5734 14.3501 2.43389 15.0845 2.27888 15.8657ZM6.94468 15.5688C5.39458 16.5845 5.20857 17.1313 6.10763 18.8032C6.54165 19.6001 7.39421 19.022 8.15376 19.147C7.73523 17.8657 7.34771 16.7251 6.94468 15.5688ZM4.85205 19.1001C4.58853 17.3032 4.0615 16.897 2.44939 17.2251C3.20894 19.5376 2.63541 19.1938 4.85205 19.1001Z" fill="#485079"/>
<path d="M15.8888 13.4438C14.0131 14.6313 13.0366 14.647 11.0214 13.4751C10.6959 13.8813 10.4014 14.3501 10.0294 14.7251C9.84337 14.9126 9.50234 15.0688 9.25433 15.022C9.09932 14.9907 8.91331 14.6001 8.89781 14.3657C8.8668 13.1938 8.8358 12.022 8.92881 10.8501C8.95981 10.397 9.22333 9.88135 9.54885 9.58447C9.90537 9.25635 9.99837 8.95947 9.99837 8.52197C9.96737 6.95947 9.92087 5.39697 10.6339 3.92822C10.7424 3.69385 10.8664 3.45947 10.9904 3.24072C11.192 2.86572 11.44 2.5376 11.905 2.7876C12.3545 3.0376 12.2305 3.4126 12.029 3.80322C11.7655 4.31885 11.5485 4.86572 11.285 5.49072C12.8506 5.49072 14.2301 5.49072 15.7182 5.49072C15.4702 4.25635 14.8347 3.27197 14.0286 2.39697C13.7806 2.13135 13.4396 1.92822 13.2691 1.63135C13.1296 1.39697 13.1916 1.05322 13.1606 0.756348C13.4396 0.756348 13.8116 0.631348 13.9666 0.756348C15.6097 2.13135 16.7568 3.81885 16.9893 6.00635C17.0513 6.63135 17.0203 7.25635 17.0203 7.88135C17.0203 8.6001 16.9118 9.30322 17.6714 9.80322C17.9194 9.9751 18.0434 10.4907 18.0589 10.8501C18.1054 11.9907 18.0899 13.147 18.0434 14.2876C18.0279 14.5532 17.8574 14.9438 17.6559 15.022C17.4544 15.1001 17.0823 14.897 16.8963 14.7095C16.5088 14.3188 16.2298 13.8813 15.8888 13.4438ZM11.781 12.4126C12.8661 13.4438 14.1216 13.4282 15.1137 12.397C15.0672 12.3032 15.0207 12.1782 14.9587 12.0688C14.1681 10.6626 14.2921 10.1782 15.5787 9.2251C15.7027 9.13135 15.8267 8.94385 15.8267 8.80322C15.8577 8.11572 15.8422 7.4126 15.8422 6.69385C14.2456 6.69385 12.7421 6.69385 11.1299 6.69385C11.1299 7.25635 11.1609 7.75635 11.1299 8.27197C11.0989 8.80322 11.1765 9.1626 11.719 9.45947C12.5095 9.89697 12.6645 10.8032 12.2305 11.6313C12.091 11.8813 11.9515 12.1157 11.781 12.4126ZM16.7103 12.5845C16.7723 12.5532 16.8188 12.522 16.8808 12.5063C16.8808 11.9438 16.9273 11.3657 16.8653 10.8188C16.8498 10.6313 16.5863 10.3813 16.3848 10.3188C16.2298 10.272 15.9043 10.4126 15.8112 10.5532C15.7182 10.6938 15.7337 11.0063 15.8267 11.1782C16.0748 11.6626 16.4158 12.1157 16.7103 12.5845ZM10.0449 12.5063C10.0914 12.5376 10.1534 12.5688 10.1999 12.5845C10.4944 12.147 10.8199 11.7251 11.0679 11.2563C11.1764 11.0532 11.192 10.7095 11.1144 10.5063C11.0679 10.3813 10.6649 10.272 10.5254 10.3501C10.3239 10.4751 10.0914 10.7407 10.0604 10.9751C9.99838 11.4595 10.0449 11.9907 10.0449 12.5063Z" fill="#485079"/>
<path d="M4.046 5.99072C3.75148 5.7251 3.44146 5.45947 3.14694 5.19385C3.44146 4.92822 3.73598 4.6626 4.03049 4.38135C4.03049 4.39697 4.046 4.4126 4.046 4.42822C4.32501 4.1001 4.60403 3.7876 4.88305 3.45947C5.14657 3.77197 5.41008 4.06885 5.7356 4.45947C5.95262 4.6626 6.27814 4.94385 6.58816 5.2251C6.27814 5.49072 5.95262 5.74072 5.6426 6.00635C5.6581 6.00635 5.6736 6.00635 5.6736 6.02197C5.37908 6.33447 5.10006 6.64697 4.80554 6.94385C4.57303 6.63135 4.32501 6.33447 4.046 5.99072Z" fill="#485079"/>
<path d="M20.6786 1.4126C21.1126 1.7876 21.4226 2.05322 21.7171 2.31885C21.4071 2.56885 21.0816 2.83447 20.7096 3.13135C20.508 3.38135 20.229 3.70947 19.9655 4.05322C19.7175 3.74072 19.454 3.42822 19.1595 3.05322C18.8959 2.83447 18.5704 2.56885 18.2294 2.30322C18.5394 2.0376 18.8494 1.7876 19.2215 1.4751C19.423 1.2251 19.702 0.881348 19.9655 0.553223C20.2445 0.865723 20.4925 1.19385 20.6786 1.4126Z" fill="#485079"/>
<path d="M24.6933 5.80322C25.0808 6.14697 25.4064 6.42822 25.7319 6.70947C25.4064 6.95947 25.0808 7.20947 24.8173 7.42822C24.5228 7.77197 24.2438 8.1001 23.9803 8.42822C23.7323 8.11572 23.4842 7.7876 23.2672 7.52197C22.9107 7.2251 22.5852 6.94385 22.2597 6.67822C22.5852 6.4126 22.8952 6.1626 23.1742 5.94385C23.4687 5.6001 23.7478 5.27197 24.0268 4.94385C24.2748 5.24072 24.5228 5.56885 24.6933 5.80322Z" fill="#485079"/>
<path d="M19.8725 22.147C20.9111 22.147 21.8566 22.9126 21.9496 23.9595C21.9806 24.2407 21.7636 24.6938 21.5466 24.8032C21.1436 24.9907 20.8956 24.6782 20.8336 24.2407C20.7561 23.6782 20.4305 23.3345 19.857 23.3501C19.3145 23.3657 19.082 23.7095 18.9114 24.2095C18.8184 24.4751 18.4464 24.8188 18.2139 24.8032C17.7179 24.772 17.7024 24.3188 17.7799 23.897C17.9814 22.897 18.8494 22.1626 19.8725 22.147Z" fill="#485079"/>
<path d="M11.2695 26.4282C10.8974 26.7095 10.6649 27.0063 10.4944 26.9751C10.2774 26.9282 9.99838 26.647 9.95187 26.4126C9.92087 26.272 10.2619 25.897 10.4324 25.897C10.6649 25.897 10.8819 26.1626 11.2695 26.4282Z" fill="#485079"/>
</svg>
