<svg width="130" height="133" viewBox="0 0 130 133" fill="none" xmlns="http://www.w3.org/2000/svg">
<path d="M103.211 40.8397C82.7224 20.9847 42.4522 21.8958 24.6394 30.9901C6.82668 40.0844 10.207 69.7968 23.7827 88.6899C37.3583 107.583 55.5862 121.294 80.3437 113.707C105.101 106.119 123.7 60.6946 103.211 40.8397Z" fill="white" fill-opacity="0.4"/>
<g filter="url(#filter0_d_127_10)">
<path d="M59.5957 27.7676C36.7848 35.5642 22 66.245 22 83.1581C22 100.071 45.6557 108.951 65.0872 105.991C84.5186 103.031 101.838 94.5746 105.64 73.0103C109.442 51.4461 82.4065 19.971 59.5957 27.7676Z" fill="white"/>
</g>
<path d="M57.495 62.4454C54.0921 61.5144 52.5063 59.0703 51.796 55.9113C51.4325 54.2986 51.4491 52.6692 51.9116 51.0565C52.6384 48.5293 54.5877 46.8168 57.1811 46.6006C58.3375 46.5009 59.5764 46.5508 60.6997 46.8334C63.4583 47.5317 64.9946 49.6765 65.2259 53.0516C65.3745 55.2629 64.8955 57.3412 63.7061 59.2366C62.6654 60.8826 61.2613 62.0464 59.1304 62.4621C61.1292 62.6948 62.9132 62.8943 64.7964 63.1271C65.4736 61.797 66.663 61.4312 68.1332 61.4811C69.9172 61.5476 71.7178 61.4977 73.5018 61.4977C75.4841 61.5144 76.5578 62.5951 76.5909 64.5736C76.5909 64.956 76.5909 65.3384 76.5909 65.8206C78.028 65.8206 79.3661 65.8206 80.7041 65.8206C81.5631 65.8206 82.4056 65.8039 83.2645 65.8372C84.2722 65.8704 84.9495 66.5022 84.966 67.4998C84.999 69.2123 85.0321 70.9414 84.9329 72.6539C84.8999 73.3024 84.4704 73.9175 84.2226 74.5493C84.0574 74.9982 83.7931 75.4471 83.7766 75.8961C83.7271 78.39 83.7601 80.8839 83.7601 83.3779C83.7601 85.5226 82.7524 86.5368 80.638 86.5535C74.1461 86.5535 67.6376 86.5535 61.1457 86.5535C58.3209 86.5535 57.6602 85.9715 57.3298 83.0453C57.049 83.0453 56.7682 83.0453 56.4708 83.0453C52.7045 83.0453 48.9217 83.0453 45.1553 83.0453C44.1147 83.0453 43.999 82.9289 43.999 81.9147C43.999 77.9244 43.999 73.9342 43.999 69.9439C43.999 68.0983 44.7589 66.6352 46.196 65.5047C48.1618 63.9584 50.491 63.443 52.8697 63.044C54.3729 62.778 55.9092 62.6449 57.495 62.4454ZM50.2597 81.6487C50.2597 78.7225 50.2597 75.8961 50.2597 73.0862C50.2597 72.5874 50.2762 72.0554 50.9205 72.0554C51.5482 72.0554 51.5977 72.5708 51.5977 73.0862C51.5977 75.5469 51.5977 78.0242 51.5977 80.4849C51.5977 80.8673 51.5977 81.2497 51.5977 81.6487C53.58 81.6487 55.4632 81.6487 57.4124 81.6487C57.4124 79.5206 57.4289 77.4423 57.3959 75.3806C57.3959 75.1645 57.2307 74.9151 57.082 74.7488C56.4708 74.0173 56.19 73.186 56.2065 72.2217C56.2396 70.7253 56.2065 69.2289 56.223 67.7326C56.2396 66.469 56.8342 65.8538 58.0897 65.8372C59.659 65.8206 61.2283 65.8372 62.7976 65.8372C63.3592 65.8372 63.9209 65.8372 64.466 65.8372C64.6477 64.5237 64.6477 64.5403 63.5905 64.3574C60.3363 63.7922 57.082 63.7423 53.8113 64.2411C51.6638 64.5736 49.5163 64.956 47.6167 66.1365C46.1134 67.0841 45.271 68.381 45.304 70.2431C45.3701 73.7346 45.3205 77.2594 45.3205 80.7842C45.3205 81.0668 45.3205 81.3661 45.3205 81.6487C47.022 81.6487 48.5913 81.6487 50.2597 81.6487ZM58.7339 76.0457C58.7339 78.6394 58.7339 81.0668 58.7339 83.4942C58.7339 84.7246 59.1964 85.1901 60.4519 85.1901C67.2246 85.1901 73.9809 85.1901 80.7537 85.1901C81.9761 85.1901 82.4221 84.7246 82.4386 83.461C82.4551 81.2497 82.4386 79.0384 82.4386 76.8105C82.4386 76.5777 82.389 76.345 82.3725 76.0623C79.7956 77.1264 77.1856 77.5088 74.5425 77.6751C74.0635 77.7083 73.7827 77.8247 73.634 78.3734C73.2375 79.8198 72.0151 80.7177 70.5945 80.7177C69.1408 80.7177 67.968 79.7866 67.4724 78.3069C67.3898 78.0741 67.0925 77.7416 66.8778 77.7249C64.1356 77.5088 61.41 77.1763 58.7339 76.0457ZM62.748 67.1507C61.1787 67.1507 59.7251 67.1673 58.2714 67.134C57.6767 67.1174 57.5115 67.3668 57.528 67.9155C57.5611 69.2456 57.5941 70.5757 57.5115 71.9058C57.4454 73.1527 57.9906 73.984 58.9817 74.566C59.5268 74.8819 60.105 75.2144 60.7162 75.3308C62.8471 75.7464 64.9946 76.0623 67.1255 76.3948C67.3072 76.4281 67.6211 76.2286 67.7367 76.0457C69.24 73.7346 71.9325 73.718 73.4027 76.0124C73.5349 76.2119 73.8653 76.4115 74.08 76.3948C75.4015 76.2785 76.7396 76.2286 78.0115 75.9293C79.4652 75.5802 80.9023 75.0647 82.2734 74.4828C83.0168 74.1669 83.5784 73.5019 83.6114 72.6207C83.661 70.9913 83.6445 69.3453 83.6114 67.7159C83.6114 67.5331 83.3306 67.2005 83.1654 67.1839C81.6126 67.1507 80.0433 67.1673 78.3914 67.1673C78.3914 68.0152 78.3914 68.78 78.3914 69.5615C78.3749 71.0578 77.6481 71.8226 76.1779 71.8393C72.4281 71.8559 68.6948 71.8559 64.945 71.8393C63.5244 71.8393 62.7811 71.0744 62.748 69.628C62.7315 68.8299 62.748 68.0485 62.748 67.1507ZM52.7706 53.6502C52.9027 55.5954 53.4313 57.3744 54.406 58.771C56.603 61.9466 60.3032 61.93 62.4507 58.7378C63.8383 56.6595 64.2182 54.3485 63.7557 51.921C63.4418 50.2085 62.5168 48.895 60.8483 48.2633C59.279 47.6647 57.6767 47.6647 56.0909 48.2134C54.8024 48.6623 53.8608 49.5435 53.4148 50.8403C53.101 51.7548 52.9688 52.7191 52.7706 53.6502ZM64.0861 67.1839C64.0861 68.0651 64.0861 68.8632 64.0861 69.6612C64.0861 70.2099 64.3669 70.4759 64.912 70.4759C68.6948 70.4759 72.4942 70.4925 76.277 70.4426C76.5413 70.4426 77.0039 70.1101 77.0204 69.894C77.103 68.9962 77.0534 68.0983 77.0534 67.1839C72.6924 67.1839 68.4471 67.1839 64.0861 67.1839ZM72.4281 77.542C72.4446 76.478 71.6187 75.6467 70.5615 75.6467C69.5538 75.6633 68.7444 76.4613 68.7279 77.4922C68.7114 78.5562 69.5373 79.3876 70.5945 79.3876C71.6187 79.3876 72.4116 78.5729 72.4281 77.542ZM66.4648 65.8704C66.4648 65.4049 66.4648 65.0225 66.4648 64.6401C66.4813 63.6924 66.7621 63.3931 67.6872 63.3931C69.6034 63.3765 71.5361 63.3765 73.4523 63.3931C74.4104 63.3931 74.6912 63.709 74.7077 64.7066C74.7077 64.9892 74.6912 65.2553 74.7242 65.5379C74.7408 65.6377 74.8564 65.754 74.9555 65.8039C75.0051 65.8206 75.1537 65.7374 75.2033 65.6709C75.8641 64.5403 74.9555 62.8777 73.6505 62.8611C71.6187 62.8445 69.5869 62.8445 67.555 62.8611C66.2005 62.8777 65.2754 64.4738 65.9362 65.6875C66.0022 65.754 66.217 65.7707 66.4648 65.8704ZM73.3367 65.7707C73.3367 65.4049 73.3367 65.1056 73.3367 64.7731C71.47 64.7731 69.6529 64.7731 67.8193 64.7731C67.8193 65.1223 67.8193 65.4215 67.8193 65.7707C69.6695 65.7707 71.47 65.7707 73.3367 65.7707Z" fill="#485079"/>
<path d="M73.3367 65.7707C71.4535 65.7707 69.6529 65.7707 67.8193 65.7707C67.8193 65.4215 67.8193 65.1223 67.8193 64.7731C69.6529 64.7731 71.47 64.7731 73.3367 64.7731C73.3367 65.1056 73.3367 65.4049 73.3367 65.7707Z" fill="white"/>
<defs>
<filter id="filter0_d_127_10" x="7" y="11.5535" width="114" height="110" filterUnits="userSpaceOnUse" color-interpolation-filters="sRGB">
<feFlood flood-opacity="0" result="BackgroundImageFix"/>
<feColorMatrix in="SourceAlpha" type="matrix" values="0 0 0 0 0 0 0 0 0 0 0 0 0 0 0 0 0 0 127 0" result="hardAlpha"/>
<feOffset/>
<feGaussianBlur stdDeviation="7.5"/>
<feComposite in2="hardAlpha" operator="out"/>
<feColorMatrix type="matrix" values="0 0 0 0 0 0 0 0 0 0 0 0 0 0 0 0 0 0 0.1 0"/>
<feBlend mode="normal" in2="BackgroundImageFix" result="effect1_dropShadow_127_10"/>
<feBlend mode="normal" in="SourceGraphic" in2="effect1_dropShadow_127_10" result="shape"/>
</filter>
</defs>
</svg>
