<svg width="130" height="133" viewBox="0 0 130 133" fill="none" xmlns="http://www.w3.org/2000/svg">
<path d="M103.211 40.8396C82.7224 20.9846 42.4522 21.8957 24.6394 30.99C6.82668 40.0843 10.207 69.7966 23.7827 88.6898C37.3583 107.583 55.5862 121.294 80.3437 113.707C105.101 106.119 123.7 60.6945 103.211 40.8396Z" fill="white" fill-opacity="0.4"/>
<g filter="url(#filter0_d_127_14)">
<path d="M60.8505 27.7674C38.0397 35.5639 23.2549 66.2447 23.2549 83.1579C23.2549 100.071 46.9106 108.95 66.342 105.991C85.7735 103.031 103.093 94.5743 106.895 73.0101C110.696 51.4458 83.6614 19.9708 60.8505 27.7674Z" fill="white"/>
</g>
<path d="M64.0056 70.1938C65.0751 69.147 65.6022 67.897 65.7417 66.4126C61.4324 66.4126 57.1386 66.4126 52.7673 66.4126C52.6898 66.8657 52.5813 67.3501 52.5348 67.8188C52.1783 71.397 52.3643 74.8501 54.5965 77.8813C54.736 78.0688 54.5965 78.4595 54.581 78.772C54.2709 78.6938 53.8369 78.7251 53.6819 78.522C52.0698 76.4751 51.3568 74.0532 51.2638 71.4907C51.2017 69.7407 51.4808 67.9751 51.6048 66.2095C51.6513 65.522 51.9303 65.0532 52.6898 65.147C52.7208 65.0376 52.7518 64.9751 52.7363 64.9438C51.4653 62.7095 52.3798 60.5063 52.7984 58.2876C52.8914 57.7563 52.9999 57.2095 53.1394 56.6938C53.3099 56.0376 53.6974 55.8813 54.2089 56.3032C55.635 57.4751 57.0301 58.6626 58.4252 59.8657C58.6267 60.0376 58.7507 60.3345 58.8437 60.5845C59.3088 61.9282 59.7738 63.2876 60.2233 64.647C60.3473 65.022 60.5333 65.1938 60.9364 65.1782C61.5254 65.147 62.1144 65.1626 62.843 65.1626C62.843 64.1782 62.843 63.2251 62.843 62.272C62.843 62.0688 62.781 61.8188 62.8585 61.6626C62.9825 61.4282 63.2305 61.2563 63.432 61.0688C63.618 61.272 63.9591 61.4595 63.9746 61.6782C64.0366 62.5063 64.0056 63.3501 64.0056 64.1782C64.0056 64.4907 64.0056 64.7876 64.0056 65.1313C64.3776 65.1313 64.6566 65.1313 65.0131 65.1313C65.0131 64.0845 65.0131 63.0376 65.0131 62.0063C65.0131 61.5845 64.9821 61.1001 65.5712 61.0845C66.2222 61.0688 66.1757 61.6001 66.1757 62.0376C66.1757 63.0532 66.1757 64.0532 66.1757 65.1782C66.6097 65.1782 66.9663 65.147 67.3073 65.1782C67.7723 65.2251 67.9893 65.022 68.1753 64.6157C69.3224 62.2095 70.5005 59.8032 71.6786 57.397C72.4071 55.8813 73.3217 55.5688 74.8253 56.3032C75.5228 56.647 76.2203 56.9751 76.9024 57.3345C78.0495 57.9282 78.406 58.9595 77.848 60.147C77.0729 61.772 76.2824 63.3657 75.6158 64.7563C75.8328 65.4282 76.0808 65.8813 76.1118 66.3657C76.2358 68.4126 76.8559 70.2876 77.8635 72.0532C78.623 73.3813 78.2665 74.3813 76.8869 74.9907C76.7164 75.0688 76.5459 75.3501 76.5149 75.5532C75.8948 80.1313 72.2986 83.3345 67.7103 83.3813C67.2763 83.3813 66.8422 83.3813 66.3152 83.3813C66.3152 84.2095 66.2997 84.9595 66.3152 85.7095C66.3307 86.3032 66.0672 86.5532 65.4782 86.5532C62.6105 86.5376 59.7428 86.5376 56.8751 86.5532C56.2861 86.5532 56.0226 86.3188 56.0381 85.7095C56.0536 84.0376 56.0071 82.3813 56.0691 80.7095C56.0846 80.4126 56.3636 79.9907 56.6271 79.8501C58.4252 78.897 59.8048 77.5532 60.7969 75.6938C59.5568 75.1938 58.6887 74.3813 58.4407 73.0376C58.2857 72.1782 58.4717 71.3813 58.9522 70.6626C60.0373 68.9595 61.8974 68.772 64.0056 70.1938ZM57.2006 85.3032C59.8978 85.3032 62.502 85.3032 65.1526 85.3032C65.1526 84.5063 65.1681 83.7876 65.1526 83.0532C65.1371 82.4126 65.4162 82.147 66.0362 82.1782C66.6252 82.1938 67.2298 82.1938 67.8188 82.1782C71.9421 82.1313 75.1973 78.9751 75.3833 74.8345C75.4143 74.1626 75.6158 73.8345 76.3289 73.8501C76.9799 73.8501 77.2744 73.4126 76.9644 72.8813C75.8173 70.8813 75.0888 68.7407 74.9183 66.4126C72.2211 66.4126 69.6014 66.4126 66.9508 66.4126C66.7647 68.0845 66.2222 69.5688 65.0751 70.7876C64.1296 71.8032 64.0366 71.8032 62.998 70.9282C62.2695 70.3188 61.3704 70.2095 60.6264 70.6313C59.8358 71.0688 59.4328 71.9595 59.6033 72.897C59.7583 73.7407 60.4403 74.3813 61.3549 74.5376C62.3315 74.7095 62.44 74.9282 62.0059 75.8501C61.0759 77.8657 59.6343 79.4282 57.7587 80.5845C57.5417 80.7251 57.2316 80.9595 57.2316 81.1626C57.1696 82.5063 57.2006 83.8813 57.2006 85.3032ZM75.0113 63.272C75.3213 62.6313 75.6003 62.0532 75.8793 61.4751C75.4763 61.2563 75.1043 61.147 74.8563 60.9126C74.7013 60.7563 74.5927 60.3657 74.6858 60.1938C74.7633 60.022 75.1508 59.897 75.3678 59.9438C75.7088 60.0063 76.0343 60.2095 76.3444 60.3657C77.2279 59.0688 77.1504 58.772 75.8173 58.1157C75.2593 57.8501 74.7013 57.5845 74.1432 57.3032C73.5077 56.9751 73.0736 57.1313 72.7636 57.7876C72.0351 59.3188 71.291 60.8188 70.5625 62.3501C70.1285 63.2563 69.6789 64.1626 69.1829 65.1938C70.671 65.1938 72.0351 65.1626 73.3837 65.2095C74.0192 65.2251 74.3447 65.0063 74.4067 64.3345C73.9262 64.0845 73.3992 63.897 72.9651 63.5845C72.7636 63.4282 72.7171 63.0532 72.5931 62.7876C72.8876 62.7095 73.1977 62.5063 73.4457 62.5845C73.9727 62.7095 74.4377 63.0063 75.0113 63.272ZM53.2789 61.8657C55.294 62.272 56.2396 61.897 57.2006 60.3813C57.1696 60.3501 57.1386 60.3032 57.0921 60.272C56.5806 59.8345 56.0691 59.397 55.5575 58.9595C54.7515 58.272 53.9299 58.5688 53.7129 59.6157C53.5734 60.3501 53.4339 61.0845 53.2789 61.8657ZM57.9447 61.5688C56.3946 62.5845 56.2086 63.1313 57.1076 64.8032C57.5417 65.6001 58.3942 65.022 59.1538 65.147C58.7352 63.8657 58.3477 62.7251 57.9447 61.5688ZM55.852 65.1001C55.5885 63.3032 55.0615 62.897 53.4494 63.2251C54.2089 65.5376 53.6354 65.1938 55.852 65.1001Z" fill="#485079"/>
<path d="M66.8888 59.4438C65.0131 60.6313 64.0366 60.647 62.0214 59.4751C61.6959 59.8813 61.4014 60.3501 61.0294 60.7251C60.8434 60.9126 60.5023 61.0688 60.2543 61.022C60.0993 60.9907 59.9133 60.6001 59.8978 60.3657C59.8668 59.1938 59.8358 58.022 59.9288 56.8501C59.9598 56.397 60.2233 55.8813 60.5488 55.5845C60.9054 55.2563 60.9984 54.9595 60.9984 54.522C60.9674 52.9595 60.9209 51.397 61.6339 49.9282C61.7424 49.6938 61.8664 49.4595 61.9904 49.2407C62.192 48.8657 62.44 48.5376 62.905 48.7876C63.3545 49.0376 63.2305 49.4126 63.029 49.8032C62.7655 50.3188 62.5485 50.8657 62.285 51.4907C63.8506 51.4907 65.2301 51.4907 66.7182 51.4907C66.4702 50.2563 65.8347 49.272 65.0286 48.397C64.7806 48.1313 64.4396 47.9282 64.2691 47.6313C64.1296 47.397 64.1916 47.0532 64.1606 46.7563C64.4396 46.7563 64.8116 46.6313 64.9666 46.7563C66.6097 48.1313 67.7568 49.8188 67.9893 52.0063C68.0513 52.6313 68.0203 53.2563 68.0203 53.8813C68.0203 54.6001 67.9118 55.3032 68.6714 55.8032C68.9194 55.9751 69.0434 56.4907 69.0589 56.8501C69.1054 57.9907 69.0899 59.147 69.0434 60.2876C69.0279 60.5532 68.8574 60.9438 68.6559 61.022C68.4544 61.1001 68.0823 60.897 67.8963 60.7095C67.5088 60.3188 67.2298 59.8813 66.8888 59.4438ZM62.781 58.4126C63.8661 59.4438 65.1216 59.4282 66.1137 58.397C66.0672 58.3032 66.0207 58.1782 65.9587 58.0688C65.1681 56.6626 65.2921 56.1782 66.5787 55.2251C66.7027 55.1313 66.8267 54.9438 66.8267 54.8032C66.8577 54.1157 66.8422 53.4126 66.8422 52.6938C65.2456 52.6938 63.7421 52.6938 62.1299 52.6938C62.1299 53.2563 62.1609 53.7563 62.1299 54.272C62.0989 54.8032 62.1765 55.1626 62.719 55.4595C63.5095 55.897 63.6645 56.8032 63.2305 57.6313C63.091 57.8813 62.9515 58.1157 62.781 58.4126ZM67.7103 58.5845C67.7723 58.5532 67.8188 58.522 67.8808 58.5063C67.8808 57.9438 67.9273 57.3657 67.8653 56.8188C67.8498 56.6313 67.5863 56.3813 67.3848 56.3188C67.2298 56.272 66.9043 56.4126 66.8112 56.5532C66.7182 56.6938 66.7337 57.0063 66.8267 57.1782C67.0748 57.6626 67.4158 58.1157 67.7103 58.5845ZM61.0449 58.5063C61.0914 58.5376 61.1534 58.5688 61.1999 58.5845C61.4944 58.147 61.8199 57.7251 62.0679 57.2563C62.1764 57.0532 62.192 56.7095 62.1144 56.5063C62.0679 56.3813 61.6649 56.272 61.5254 56.3501C61.3239 56.4751 61.0914 56.7407 61.0604 56.9751C60.9984 57.4595 61.0449 57.9907 61.0449 58.5063Z" fill="#485079"/>
<path d="M55.046 51.9907C54.7515 51.7251 54.4415 51.4595 54.1469 51.1938C54.4415 50.9282 54.736 50.6626 55.0305 50.3813C55.0305 50.397 55.046 50.4126 55.046 50.4282C55.325 50.1001 55.604 49.7876 55.883 49.4595C56.1466 49.772 56.4101 50.0688 56.7356 50.4595C56.9526 50.6626 57.2781 50.9438 57.5882 51.2251C57.2781 51.4907 56.9526 51.7407 56.6426 52.0063C56.6581 52.0063 56.6736 52.0063 56.6736 52.022C56.3791 52.3345 56.1001 52.647 55.8055 52.9438C55.573 52.6313 55.325 52.3345 55.046 51.9907Z" fill="#485079"/>
<path d="M71.6786 47.4126C72.1126 47.7876 72.4226 48.0532 72.7171 48.3188C72.4071 48.5688 72.0816 48.8345 71.7096 49.1313C71.508 49.3813 71.229 49.7095 70.9655 50.0532C70.7175 49.7407 70.454 49.4282 70.1595 49.0532C69.8959 48.8345 69.5704 48.5688 69.2294 48.3032C69.5394 48.0376 69.8494 47.7876 70.2215 47.4751C70.423 47.2251 70.702 46.8813 70.9655 46.5532C71.2445 46.8657 71.4925 47.1938 71.6786 47.4126Z" fill="#485079"/>
<path d="M75.6933 51.8032C76.0808 52.147 76.4064 52.4282 76.7319 52.7095C76.4064 52.9595 76.0808 53.2095 75.8173 53.4282C75.5228 53.772 75.2438 54.1001 74.9803 54.4282C74.7323 54.1157 74.4842 53.7876 74.2672 53.522C73.9107 53.2251 73.5852 52.9438 73.2597 52.6782C73.5852 52.4126 73.8952 52.1626 74.1742 51.9438C74.4687 51.6001 74.7478 51.272 75.0268 50.9438C75.2748 51.2407 75.5228 51.5688 75.6933 51.8032Z" fill="#485079"/>
<path d="M70.8725 68.147C71.9111 68.147 72.8566 68.9126 72.9496 69.9595C72.9806 70.2407 72.7636 70.6938 72.5466 70.8032C72.1436 70.9907 71.8956 70.6782 71.8336 70.2407C71.7561 69.6782 71.4305 69.3345 70.857 69.3501C70.3145 69.3657 70.082 69.7095 69.9114 70.2095C69.8184 70.4751 69.4464 70.8188 69.2139 70.8032C68.7179 70.772 68.7024 70.3188 68.7799 69.897C68.9814 68.897 69.8494 68.1626 70.8725 68.147Z" fill="#485079"/>
<path d="M62.2695 72.4282C61.8974 72.7095 61.6649 73.0063 61.4944 72.9751C61.2774 72.9282 60.9984 72.647 60.9519 72.4126C60.9209 72.272 61.2619 71.897 61.4324 71.897C61.6649 71.897 61.8819 72.1626 62.2695 72.4282Z" fill="#485079"/>
<defs>
<filter id="filter0_d_127_14" x="8.25488" y="11.5532" width="114" height="110" filterUnits="userSpaceOnUse" color-interpolation-filters="sRGB">
<feFlood flood-opacity="0" result="BackgroundImageFix"/>
<feColorMatrix in="SourceAlpha" type="matrix" values="0 0 0 0 0 0 0 0 0 0 0 0 0 0 0 0 0 0 127 0" result="hardAlpha"/>
<feOffset/>
<feGaussianBlur stdDeviation="7.5"/>
<feComposite in2="hardAlpha" operator="out"/>
<feColorMatrix type="matrix" values="0 0 0 0 0 0 0 0 0 0 0 0 0 0 0 0 0 0 0.1 0"/>
<feBlend mode="normal" in2="BackgroundImageFix" result="effect1_dropShadow_127_14"/>
<feBlend mode="normal" in="SourceGraphic" in2="effect1_dropShadow_127_14" result="shape"/>
</filter>
</defs>
</svg>
