<svg width="1920" height="929" viewBox="0 0 1920 929" fill="none" xmlns="http://www.w3.org/2000/svg">
<path d="M540 762.19C234 738.541 -34.0002 812.451 -34.0002 812.451L-103.489 136.941C-63.3806 96.2733 92 -0.000267918 274 -0.000250268C456 -0.000230787 476 102 634 102C792 102 877.249 31.5749 1084 43.9998C1290.75 56.4247 1417.73 131.215 1604 136.941C1790.27 142.666 1990 17.9998 1990 17.9998C1990 17.9998 2330.24 932.833 2096.28 928.791C1862.31 924.749 1740.85 826.286 1577.33 812.451C1413.8 798.617 1288.71 863.229 1084 850.927C879.296 838.626 846 785.839 540 762.19Z" fill="#F6F7F9"/>
</svg>
