<svg width="52" height="40" viewBox="0 0 52 40" fill="none" xmlns="http://www.w3.org/2000/svg">
<g filter="url(#filter0_i_16_1992)">
<path d="M27.6102 19.86C27.6102 26.2767 26.3819 31.2083 23.9252 34.655C21.5052 38.065 18.1502 39.77 13.8602 39.77C9.57023 39.77 6.1969 38.065 3.74023 34.655C1.32023 31.2083 0.110234 26.2767 0.110234 19.86C0.110234 16.67 0.421901 13.8467 1.04523 11.39C1.70523 8.93333 2.64023 6.86167 3.85023 5.175C5.06023 3.48833 6.50857 2.205 8.19523 1.325C9.8819 0.444997 11.7702 0.00499719 13.8602 0.00499719C18.1502 0.00499719 21.5052 1.72833 23.9252 5.175C26.3819 8.585 27.6102 13.48 27.6102 19.86ZM19.2502 19.86C19.2502 17.9533 19.1586 16.23 18.9752 14.69C18.7919 13.1133 18.4986 11.7567 18.0952 10.62C17.6919 9.48333 17.1419 8.60333 16.4452 7.98C15.7486 7.35667 14.8869 7.045 13.8602 7.045C12.8336 7.045 11.9719 7.35667 11.2752 7.98C10.6152 8.60333 10.0652 9.48333 9.62524 10.62C9.2219 11.7567 8.92857 13.1133 8.74524 14.69C8.5619 16.23 8.47023 17.9533 8.47023 19.86C8.47023 21.7667 8.5619 23.5083 8.74524 25.085C8.92857 26.6617 9.2219 28.0183 9.62524 29.155C10.0652 30.2917 10.6152 31.1717 11.2752 31.795C11.9719 32.4183 12.8336 32.73 13.8602 32.73C14.8869 32.73 15.7486 32.4183 16.4452 31.795C17.1419 31.1717 17.6919 30.2917 18.0952 29.155C18.4986 28.0183 18.7919 26.6617 18.9752 25.085C19.1586 23.5083 19.2502 21.7667 19.2502 19.86ZM33.35 8.805C34.4133 8.365 35.5133 7.87 36.65 7.32C37.8233 6.73333 38.96 6.11 40.06 5.45C41.16 4.75333 42.205 4.03833 43.195 3.305C44.2217 2.535 45.1383 1.72833 45.945 0.884999H51.665V39H43.47V11.555C42.37 12.2883 41.1417 12.9667 39.785 13.59C38.4283 14.1767 37.1083 14.69 35.825 15.13L33.35 8.805Z" fill="white"/>
</g>
<defs>
<filter id="filter0_i_16_1992" x="0.110352" y="0.00488281" width="51.5547" height="40.7651" filterUnits="userSpaceOnUse" color-interpolation-filters="sRGB">
<feFlood flood-opacity="0" result="BackgroundImageFix"/>
<feBlend mode="normal" in="SourceGraphic" in2="BackgroundImageFix" result="shape"/>
<feColorMatrix in="SourceAlpha" type="matrix" values="0 0 0 0 0 0 0 0 0 0 0 0 0 0 0 0 0 0 127 0" result="hardAlpha"/>
<feOffset dy="1"/>
<feGaussianBlur stdDeviation="1"/>
<feComposite in2="hardAlpha" operator="arithmetic" k2="-1" k3="1"/>
<feColorMatrix type="matrix" values="0 0 0 0 0.254902 0 0 0 0 0.286275 0 0 0 0 0.470588 0 0 0 0.2 0"/>
<feBlend mode="normal" in2="shape" result="effect1_innerShadow_16_1992"/>
</filter>
</defs>
</svg>
