<svg width="58" height="40" viewBox="0 0 58 40" fill="none" xmlns="http://www.w3.org/2000/svg">
<g filter="url(#filter0_i_16_1998)">
<path d="M27.6102 19.86C27.6102 26.2767 26.3819 31.2083 23.9252 34.655C21.5052 38.065 18.1502 39.77 13.8602 39.77C9.57023 39.77 6.1969 38.065 3.74023 34.655C1.32023 31.2083 0.110234 26.2767 0.110234 19.86C0.110234 16.67 0.421901 13.8467 1.04523 11.39C1.70523 8.93333 2.64023 6.86167 3.85023 5.175C5.06023 3.48833 6.50857 2.205 8.19523 1.325C9.8819 0.444997 11.7702 0.00499719 13.8602 0.00499719C18.1502 0.00499719 21.5052 1.72833 23.9252 5.175C26.3819 8.585 27.6102 13.48 27.6102 19.86ZM19.2502 19.86C19.2502 17.9533 19.1586 16.23 18.9752 14.69C18.7919 13.1133 18.4986 11.7567 18.0952 10.62C17.6919 9.48333 17.1419 8.60333 16.4452 7.98C15.7486 7.35667 14.8869 7.045 13.8602 7.045C12.8336 7.045 11.9719 7.35667 11.2752 7.98C10.6152 8.60333 10.0652 9.48333 9.62524 10.62C9.2219 11.7567 8.92857 13.1133 8.74524 14.69C8.5619 16.23 8.47023 17.9533 8.47023 19.86C8.47023 21.7667 8.5619 23.5083 8.74524 25.085C8.92857 26.6617 9.2219 28.0183 9.62524 29.155C10.0652 30.2917 10.6152 31.1717 11.2752 31.795C11.9719 32.4183 12.8336 32.73 13.8602 32.73C14.8869 32.73 15.7486 32.4183 16.4452 31.795C17.1419 31.1717 17.6919 30.2917 18.0952 29.155C18.4986 28.0183 18.7919 26.6617 18.9752 25.085C19.1586 23.5083 19.2502 21.7667 19.2502 19.86ZM56.78 10.895C56.78 12.2883 56.505 13.6267 55.955 14.91C55.405 16.1933 54.69 17.44 53.81 18.65C52.93 19.8233 51.94 20.96 50.84 22.06C49.74 23.16 48.6583 24.205 47.595 25.195C47.045 25.7083 46.44 26.295 45.78 26.955C45.1567 27.5783 44.5517 28.22 43.965 28.88C43.3783 29.54 42.8467 30.1633 42.37 30.75C41.93 31.3 41.655 31.7583 41.545 32.125H57.935V39H32.525C32.4517 38.5967 32.415 38.0833 32.415 37.46C32.415 36.8367 32.415 36.3967 32.415 36.14C32.415 34.38 32.69 32.7667 33.24 31.3C33.8267 29.8333 34.5783 28.4767 35.495 27.23C36.4117 25.9467 37.4383 24.755 38.575 23.655C39.7483 22.555 40.9033 21.455 42.04 20.355C42.92 19.5117 43.745 18.7233 44.515 17.99C45.285 17.22 45.9633 16.4867 46.55 15.79C47.1367 15.0567 47.595 14.3417 47.925 13.645C48.255 12.9117 48.42 12.1783 48.42 11.445C48.42 9.83167 47.9617 8.695 47.045 8.035C46.1283 7.375 44.9917 7.045 43.635 7.045C42.645 7.045 41.71 7.21 40.83 7.54C39.9867 7.83333 39.1983 8.2 38.465 8.64C37.7683 9.04333 37.1633 9.465 36.65 9.905C36.1367 10.3083 35.7517 10.6383 35.495 10.895L31.425 5.175C33.0383 3.67167 34.9083 2.44333 37.035 1.49C39.1983 0.499997 41.5083 0.00499719 43.965 0.00499719C46.2017 0.00499719 48.1267 0.261664 49.74 0.774997C51.3533 1.28833 52.6733 2.02166 53.7 2.975C54.7633 3.89166 55.5333 5.02833 56.01 6.385C56.5233 7.705 56.78 9.20833 56.78 10.895Z" fill="white"/>
</g>
<defs>
<filter id="filter0_i_16_1998" x="0.110352" y="0.00488281" width="57.8247" height="40.7651" filterUnits="userSpaceOnUse" color-interpolation-filters="sRGB">
<feFlood flood-opacity="0" result="BackgroundImageFix"/>
<feBlend mode="normal" in="SourceGraphic" in2="BackgroundImageFix" result="shape"/>
<feColorMatrix in="SourceAlpha" type="matrix" values="0 0 0 0 0 0 0 0 0 0 0 0 0 0 0 0 0 0 127 0" result="hardAlpha"/>
<feOffset dy="1"/>
<feGaussianBlur stdDeviation="1"/>
<feComposite in2="hardAlpha" operator="arithmetic" k2="-1" k3="1"/>
<feColorMatrix type="matrix" values="0 0 0 0 0.254902 0 0 0 0 0.286275 0 0 0 0 0.470588 0 0 0 0.2 0"/>
<feBlend mode="normal" in2="shape" result="effect1_innerShadow_16_1998"/>
</filter>
</defs>
</svg>
