<svg width="58" height="40" viewBox="0 0 58 40" fill="none" xmlns="http://www.w3.org/2000/svg">
<g filter="url(#filter0_i_16_2004)">
<path d="M27.6102 19.86C27.6102 26.2767 26.3819 31.2083 23.9252 34.655C21.5052 38.065 18.1502 39.77 13.8602 39.77C9.57023 39.77 6.1969 38.065 3.74023 34.655C1.32023 31.2083 0.110234 26.2767 0.110234 19.86C0.110234 16.67 0.421901 13.8467 1.04523 11.39C1.70523 8.93333 2.64023 6.86167 3.85023 5.175C5.06023 3.48833 6.50857 2.205 8.19523 1.325C9.8819 0.444997 11.7702 0.00499719 13.8602 0.00499719C18.1502 0.00499719 21.5052 1.72833 23.9252 5.175C26.3819 8.585 27.6102 13.48 27.6102 19.86ZM19.2502 19.86C19.2502 17.9533 19.1586 16.23 18.9752 14.69C18.7919 13.1133 18.4986 11.7567 18.0952 10.62C17.6919 9.48333 17.1419 8.60333 16.4452 7.98C15.7486 7.35667 14.8869 7.045 13.8602 7.045C12.8336 7.045 11.9719 7.35667 11.2752 7.98C10.6152 8.60333 10.0652 9.48333 9.62524 10.62C9.2219 11.7567 8.92857 13.1133 8.74524 14.69C8.5619 16.23 8.47023 17.9533 8.47023 19.86C8.47023 21.7667 8.5619 23.5083 8.74524 25.085C8.92857 26.6617 9.2219 28.0183 9.62524 29.155C10.0652 30.2917 10.6152 31.1717 11.2752 31.795C11.9719 32.4183 12.8336 32.73 13.8602 32.73C14.8869 32.73 15.7486 32.4183 16.4452 31.795C17.1419 31.1717 17.6919 30.2917 18.0952 29.155C18.4986 28.0183 18.7919 26.6617 18.9752 25.085C19.1586 23.5083 19.2502 21.7667 19.2502 19.86ZM42.04 39.825C41.05 39.825 40.005 39.7517 38.905 39.605C37.805 39.495 36.7417 39.33 35.715 39.11C34.6883 38.89 33.7533 38.6517 32.91 38.395C32.0667 38.1383 31.4067 37.9 30.93 37.68L32.525 30.86C33.4783 31.2633 34.6883 31.7033 36.155 32.18C37.6583 32.62 39.51 32.84 41.71 32.84C44.24 32.84 46.0917 32.3633 47.265 31.41C48.4383 30.4567 49.025 29.1733 49.025 27.56C49.025 26.57 48.805 25.745 48.365 25.085C47.9617 24.3883 47.3933 23.8383 46.66 23.435C45.9267 22.995 45.0467 22.7017 44.02 22.555C43.03 22.3717 41.9667 22.28 40.83 22.28H37.64V15.68H41.27C42.0767 15.68 42.8467 15.6067 43.58 15.46C44.35 15.3133 45.0283 15.075 45.615 14.745C46.2017 14.3783 46.66 13.9017 46.99 13.315C47.3567 12.6917 47.54 11.9217 47.54 11.005C47.54 10.3083 47.3933 9.70333 47.1 9.19C46.8067 8.67666 46.4217 8.255 45.945 7.925C45.505 7.595 44.9733 7.35667 44.35 7.21C43.7633 7.02667 43.1583 6.935 42.535 6.935C40.9583 6.935 39.4917 7.17333 38.135 7.65C36.815 8.12666 35.605 8.71333 34.505 9.41L31.59 3.415C32.1767 3.04833 32.855 2.66333 33.625 2.26C34.4317 1.85667 35.3117 1.49 36.265 1.16C37.2183 0.829999 38.2267 0.554999 39.29 0.335C40.39 0.114998 41.545 0.00499719 42.755 0.00499719C44.9917 0.00499719 46.9167 0.279998 48.53 0.83C50.18 1.34333 51.5367 2.095 52.6 3.085C53.6633 4.03833 54.4517 5.175 54.965 6.495C55.4783 7.77833 55.735 9.19 55.735 10.73C55.735 12.2333 55.3133 13.7 54.47 15.13C53.6267 16.5233 52.49 17.5867 51.06 18.32C53.04 19.1267 54.5617 20.3367 55.625 21.95C56.725 23.5267 57.275 25.4333 57.275 27.67C57.275 29.43 56.9817 31.0617 56.395 32.565C55.8083 34.0317 54.8917 35.315 53.645 36.415C52.3983 37.4783 50.8033 38.3217 48.86 38.945C46.9533 39.5317 44.68 39.825 42.04 39.825Z" fill="white"/>
</g>
<defs>
<filter id="filter0_i_16_2004" x="0.110352" y="0.00488281" width="57.1646" height="40.8203" filterUnits="userSpaceOnUse" color-interpolation-filters="sRGB">
<feFlood flood-opacity="0" result="BackgroundImageFix"/>
<feBlend mode="normal" in="SourceGraphic" in2="BackgroundImageFix" result="shape"/>
<feColorMatrix in="SourceAlpha" type="matrix" values="0 0 0 0 0 0 0 0 0 0 0 0 0 0 0 0 0 0 127 0" result="hardAlpha"/>
<feOffset dy="1"/>
<feGaussianBlur stdDeviation="1"/>
<feComposite in2="hardAlpha" operator="arithmetic" k2="-1" k3="1"/>
<feColorMatrix type="matrix" values="0 0 0 0 0.254902 0 0 0 0 0.286275 0 0 0 0 0.470588 0 0 0 0.2 0"/>
<feBlend mode="normal" in2="shape" result="effect1_innerShadow_16_2004"/>
</filter>
</defs>
</svg>
