<svg width="58" height="40" viewBox="0 0 58 40" fill="none" xmlns="http://www.w3.org/2000/svg">
<g filter="url(#filter0_i_16_2016)">
<path d="M27.6102 19.86C27.6102 26.2767 26.3819 31.2083 23.9252 34.655C21.5052 38.065 18.1502 39.77 13.8602 39.77C9.57023 39.77 6.1969 38.065 3.74023 34.655C1.32023 31.2083 0.110234 26.2767 0.110234 19.86C0.110234 16.67 0.421901 13.8467 1.04523 11.39C1.70523 8.93333 2.64023 6.86167 3.85023 5.175C5.06023 3.48833 6.50857 2.205 8.19523 1.325C9.8819 0.444997 11.7702 0.00499719 13.8602 0.00499719C18.1502 0.00499719 21.5052 1.72833 23.9252 5.175C26.3819 8.585 27.6102 13.48 27.6102 19.86ZM19.2502 19.86C19.2502 17.9533 19.1586 16.23 18.9752 14.69C18.7919 13.1133 18.4986 11.7567 18.0952 10.62C17.6919 9.48333 17.1419 8.60333 16.4452 7.98C15.7486 7.35667 14.8869 7.045 13.8602 7.045C12.8336 7.045 11.9719 7.35667 11.2752 7.98C10.6152 8.60333 10.0652 9.48333 9.62524 10.62C9.2219 11.7567 8.92857 13.1133 8.74524 14.69C8.5619 16.23 8.47023 17.9533 8.47023 19.86C8.47023 21.7667 8.5619 23.5083 8.74524 25.085C8.92857 26.6617 9.2219 28.0183 9.62524 29.155C10.0652 30.2917 10.6152 31.1717 11.2752 31.795C11.9719 32.4183 12.8336 32.73 13.8602 32.73C14.8869 32.73 15.7486 32.4183 16.4452 31.795C17.1419 31.1717 17.6919 30.2917 18.0952 29.155C18.4986 28.0183 18.7919 26.6617 18.9752 25.085C19.1586 23.5083 19.2502 21.7667 19.2502 19.86ZM49.3 27.78C49.3 26.7167 49.0617 25.7817 48.585 24.975C48.1083 24.1317 47.2833 23.435 46.11 22.885C44.9367 22.335 43.36 21.9133 41.38 21.62C39.4 21.3267 36.9067 21.18 33.9 21.18C34.3033 17.77 34.6333 14.305 34.89 10.785C35.1467 7.265 35.3483 3.965 35.495 0.884999H56.12V7.76H42.37C42.2967 9.08 42.205 10.3633 42.095 11.61C42.0217 12.82 41.93 13.8833 41.82 14.8C47.1733 15.1667 51.115 16.4317 53.645 18.595C56.2117 20.7217 57.495 23.6917 57.495 27.505C57.495 29.265 57.1833 30.8967 56.56 32.4C55.9367 33.9033 55.0017 35.205 53.755 36.305C52.5083 37.405 50.9317 38.2667 49.025 38.89C47.155 39.5133 44.955 39.825 42.425 39.825C41.435 39.825 40.39 39.7517 39.29 39.605C38.2267 39.495 37.1817 39.33 36.155 39.11C35.165 38.9267 34.2667 38.725 33.46 38.505C32.6533 38.285 32.03 38.065 31.59 37.845L33.075 31.08C33.9917 31.4833 35.2017 31.8867 36.705 32.29C38.2083 32.6567 40.005 32.84 42.095 32.84C44.625 32.84 46.4583 32.345 47.595 31.355C48.7317 30.3283 49.3 29.1367 49.3 27.78Z" fill="white"/>
</g>
<defs>
<filter id="filter0_i_16_2016" x="0.110352" y="0.00488281" width="57.3848" height="40.8203" filterUnits="userSpaceOnUse" color-interpolation-filters="sRGB">
<feFlood flood-opacity="0" result="BackgroundImageFix"/>
<feBlend mode="normal" in="SourceGraphic" in2="BackgroundImageFix" result="shape"/>
<feColorMatrix in="SourceAlpha" type="matrix" values="0 0 0 0 0 0 0 0 0 0 0 0 0 0 0 0 0 0 127 0" result="hardAlpha"/>
<feOffset dy="1"/>
<feGaussianBlur stdDeviation="1"/>
<feComposite in2="hardAlpha" operator="arithmetic" k2="-1" k3="1"/>
<feColorMatrix type="matrix" values="0 0 0 0 0.254902 0 0 0 0 0.286275 0 0 0 0 0.470588 0 0 0 0.2 0"/>
<feBlend mode="normal" in2="shape" result="effect1_innerShadow_16_2016"/>
</filter>
</defs>
</svg>
