<svg width="59" height="40" viewBox="0 0 59 40" fill="none" xmlns="http://www.w3.org/2000/svg">
<g filter="url(#filter0_i_16_2022)">
<path d="M27.6102 19.86C27.6102 26.2767 26.3819 31.2083 23.9252 34.655C21.5052 38.065 18.1502 39.77 13.8602 39.77C9.57023 39.77 6.1969 38.065 3.74023 34.655C1.32023 31.2083 0.110234 26.2767 0.110234 19.86C0.110234 16.67 0.421901 13.8467 1.04523 11.39C1.70523 8.93333 2.64023 6.86167 3.85023 5.175C5.06023 3.48833 6.50857 2.205 8.19523 1.325C9.8819 0.444997 11.7702 0.00499719 13.8602 0.00499719C18.1502 0.00499719 21.5052 1.72833 23.9252 5.175C26.3819 8.585 27.6102 13.48 27.6102 19.86ZM19.2502 19.86C19.2502 17.9533 19.1586 16.23 18.9752 14.69C18.7919 13.1133 18.4986 11.7567 18.0952 10.62C17.6919 9.48333 17.1419 8.60333 16.4452 7.98C15.7486 7.35667 14.8869 7.045 13.8602 7.045C12.8336 7.045 11.9719 7.35667 11.2752 7.98C10.6152 8.60333 10.0652 9.48333 9.62524 10.62C9.2219 11.7567 8.92857 13.1133 8.74524 14.69C8.5619 16.23 8.47023 17.9533 8.47023 19.86C8.47023 21.7667 8.5619 23.5083 8.74524 25.085C8.92857 26.6617 9.2219 28.0183 9.62524 29.155C10.0652 30.2917 10.6152 31.1717 11.2752 31.795C11.9719 32.4183 12.8336 32.73 13.8602 32.73C14.8869 32.73 15.7486 32.4183 16.4452 31.795C17.1419 31.1717 17.6919 30.2917 18.0952 29.155C18.4986 28.0183 18.7919 26.6617 18.9752 25.085C19.1586 23.5083 19.2502 21.7667 19.2502 19.86ZM44.57 21.07C43.7633 21.07 42.9017 21.1433 41.985 21.29C41.0683 21.4367 40.3533 21.6383 39.84 21.895C39.84 22.0417 39.8217 22.2617 39.785 22.555C39.785 22.8483 39.785 23.105 39.785 23.325C39.785 24.645 39.8767 25.8917 40.06 27.065C40.2433 28.2383 40.555 29.265 40.995 30.145C41.435 31.025 42.0217 31.7217 42.755 32.235C43.4883 32.7117 44.405 32.95 45.505 32.95C46.4217 32.95 47.1917 32.7667 47.815 32.4C48.475 31.9967 49.0067 31.5017 49.41 30.915C49.85 30.3283 50.1617 29.6867 50.345 28.99C50.565 28.2567 50.675 27.56 50.675 26.9C50.675 25.03 50.1983 23.6 49.245 22.61C48.3283 21.5833 46.77 21.07 44.57 21.07ZM45.615 14.69C47.9983 14.69 50.015 15.02 51.665 15.68C53.3517 16.3033 54.7267 17.165 55.79 18.265C56.8533 19.365 57.6233 20.6483 58.1 22.115C58.5767 23.5817 58.815 25.14 58.815 26.79C58.815 28.2567 58.54 29.76 57.99 31.3C57.4767 32.84 56.67 34.2333 55.57 35.48C54.5067 36.7267 53.1317 37.7533 51.445 38.56C49.795 39.3667 47.8333 39.77 45.56 39.77C40.9767 39.77 37.4933 38.3217 35.11 35.425C32.7267 32.5283 31.535 28.5317 31.535 23.435C31.535 19.7683 32.1033 16.5233 33.24 13.7C34.3767 10.8767 35.99 8.51167 38.08 6.605C40.2067 4.66167 42.755 3.195 45.725 2.205C48.7317 1.17833 52.105 0.646665 55.845 0.609999C55.9183 1.74666 55.9917 2.865 56.065 3.965C56.1383 5.02833 56.2117 6.14666 56.285 7.32C54.415 7.35666 52.655 7.54 51.005 7.87C49.3917 8.16333 47.9067 8.64 46.55 9.3C45.23 9.96 44.075 10.8217 43.085 11.885C42.095 12.9117 41.325 14.1767 40.775 15.68C41.5817 15.3133 42.4067 15.0567 43.25 14.91C44.0933 14.7633 44.8817 14.69 45.615 14.69Z" fill="white"/>
</g>
<defs>
<filter id="filter0_i_16_2022" x="0.110352" y="0.00488281" width="58.7046" height="40.7651" filterUnits="userSpaceOnUse" color-interpolation-filters="sRGB">
<feFlood flood-opacity="0" result="BackgroundImageFix"/>
<feBlend mode="normal" in="SourceGraphic" in2="BackgroundImageFix" result="shape"/>
<feColorMatrix in="SourceAlpha" type="matrix" values="0 0 0 0 0 0 0 0 0 0 0 0 0 0 0 0 0 0 127 0" result="hardAlpha"/>
<feOffset dy="1"/>
<feGaussianBlur stdDeviation="1"/>
<feComposite in2="hardAlpha" operator="arithmetic" k2="-1" k3="1"/>
<feColorMatrix type="matrix" values="0 0 0 0 0.254902 0 0 0 0 0.286275 0 0 0 0 0.470588 0 0 0 0.2 0"/>
<feBlend mode="normal" in2="shape" result="effect1_innerShadow_16_2022"/>
</filter>
</defs>
</svg>
