<svg width="390" height="548" viewBox="0 0 390 548" fill="none" xmlns="http://www.w3.org/2000/svg">
<path d="M-68.2234 106.999C-125.001 112.415 -175.913 65.3839 -175.913 65.3839L-263.046 419.859C-242.167 461.682 -267.565 561.385 -195.356 546.026C-123.147 530.667 -156.693 472.574 -76.4168 474.763C3.859 476.951 7.57821 538.839 108.396 532.781C209.214 526.722 214.621 483.319 305.315 458.835C396.01 434.351 576.552 504.647 576.552 504.647C576.552 504.647 741.013 3.26819 626.618 0.124747C512.224 -3.0187 455.794 91.5366 376.178 100.328C296.562 109.12 233.348 40.7892 133.528 46.7879C33.7079 52.7867 -11.446 101.583 -68.2234 106.999Z" fill="#F6F7F9"/>
</svg>
