<svg width="1920" height="622" viewBox="0 0 1920 622" fill="none" xmlns="http://www.w3.org/2000/svg">
<path d="M369.976 152.639C159.565 154.808 -6.00095 0.311146 -6.00095 0.311146L-110.515 516.647C-85.8312 558.241 123.692 635.846 211.048 619.577C298.403 603.307 391.999 540.108 545.999 542.001C699.999 543.894 776.011 602.001 1014 602.001C1251.99 602.001 1318 506.001 1470 506.001C1622 506.001 1976.25 579.97 1976.25 579.97C1976.25 579.97 2166.05 2.033 2028 0.31103C1889.95 -1.41093 1770.83 133.587 1570.41 133.587C1370 133.587 1262 78.0008 976.397 78.0008C690.795 78.0008 580.387 150.469 369.976 152.639Z" fill="#F6F7F9"/>
</svg>
