<svg width="31" height="35" viewBox="0 0 31 35" fill="none" xmlns="http://www.w3.org/2000/svg">
<path d="M29.6556 21.6262C30.9058 23.1444 30.9058 24.2524 29.6834 25.839C31.1975 27.8908 30.8363 29.4774 28.586 30.6811C28.6972 31.0778 28.8638 31.4608 28.9194 31.8574C29.1139 33.4988 27.8637 34.9487 26.169 34.9624C22.7519 34.9897 19.3208 35.0444 15.9036 34.935C13.5422 34.8666 11.3197 34.128 9.1249 33.0201C8.63871 34.4016 7.48577 34.47 6.24948 34.4289C5.06876 34.3879 3.88803 34.4289 2.70731 34.4153C1.41545 34.4016 0.609783 33.6356 0.609783 32.3772C0.595893 27.8908 0.595893 23.4043 0.609783 18.9179C0.609783 17.6321 1.38767 16.8935 2.69342 16.8798C4.04083 16.8661 5.37436 16.9209 6.72177 16.8661C7.83304 16.8251 8.68039 17.1397 9.1249 18.234C11.0002 16.8798 12.2642 15.1427 12.931 13.0226C13.3477 11.6821 13.5978 10.2869 13.9311 8.91912C14.0701 8.37199 14.1673 7.7975 14.3756 7.27773C14.8063 6.25187 15.6953 5.84152 16.7927 6.08773C18.7791 6.52543 20.3626 8.39935 20.4182 10.711C20.446 11.8736 20.1681 13.0499 19.9598 14.1989C19.807 15.0196 19.5431 15.8129 19.3069 16.702C19.6264 16.7157 19.8625 16.7294 20.1126 16.7294C22.5018 16.7294 24.8772 16.7567 27.2664 16.7157C28.6138 16.6883 29.6973 17.085 30.2946 18.3297C30.8919 19.5471 30.5724 20.6413 29.6556 21.6262ZM9.20824 25.6475C9.20824 27.3847 9.22213 29.1081 9.19435 30.8452C9.18046 31.2966 9.33326 31.5565 9.73609 31.7617C11.3752 32.6371 13.1255 33.3484 14.973 33.4304C18.7096 33.5946 22.4601 33.5672 26.2107 33.5809C26.9886 33.5809 27.5581 32.938 27.572 32.1994C27.5859 31.4608 27.0441 30.8452 26.2801 30.7632C25.8912 30.7221 25.4884 30.7358 25.0994 30.7495C24.5993 30.7632 24.1826 30.6264 24.1687 30.0793C24.1548 29.5321 24.5716 29.368 25.0716 29.368C25.9051 29.3817 26.7385 29.3817 27.572 29.368C28.5443 29.3543 29.1972 28.8072 29.2111 27.9728C29.225 27.1248 28.5582 26.5366 27.5581 26.5229C26.7246 26.5093 25.8912 26.5093 25.0577 26.5229C24.5854 26.5229 24.1965 26.3862 24.1687 25.8801C24.1409 25.3329 24.5438 25.1551 25.0438 25.1414C25.8773 25.1414 26.7108 25.1414 27.5442 25.1414C28.5582 25.1278 29.225 24.5533 29.2111 23.7189C29.1972 22.8982 28.5582 22.3374 27.572 22.3237C26.7385 22.3101 25.9051 22.3101 25.0716 22.3237C24.5716 22.3237 24.1548 22.187 24.1548 21.6262C24.1687 21.0653 24.5993 20.9422 25.0855 20.9422C25.9606 20.9422 26.8497 20.9422 27.7248 20.9422C28.336 20.9422 28.7944 20.6687 29.0583 20.1216C29.5306 19.1504 28.8222 18.1382 27.6553 18.1245C24.6966 18.1109 21.7378 18.1245 18.7652 18.1109C17.8484 18.1109 17.5983 17.7963 17.8345 16.9209C18.1818 15.6214 18.5707 14.3357 18.8624 13.0226C19.0291 12.2703 19.1402 11.4906 19.0708 10.7246C18.9458 9.41153 18.4179 8.24889 17.126 7.61969C16.1259 7.14095 15.737 7.31877 15.4869 8.37199C15.3202 9.09693 15.1952 9.84923 15.0563 10.5879C14.3756 14.3083 12.7921 17.509 9.51384 19.7112C9.31937 19.8343 9.22213 20.2036 9.20824 20.4498C9.19435 22.187 9.20824 23.9104 9.20824 25.6475ZM7.80526 25.6202C7.80526 23.459 7.79137 21.2979 7.81915 19.123C7.81915 18.4802 7.58301 18.2203 6.91624 18.234C5.56883 18.2613 4.2353 18.2613 2.88789 18.234C2.27669 18.2203 2.01276 18.4528 2.01276 19.0683C2.02665 23.4453 2.02665 27.8224 2.01276 32.1857C2.01276 32.7876 2.24891 33.0611 2.874 33.0474C4.19363 33.0201 5.51327 33.0474 6.8329 33.0338C7.68024 33.0338 7.80526 32.9107 7.80526 32.09C7.80526 29.9425 7.80526 27.7813 7.80526 25.6202Z" fill="#485079"/>
<path d="M26.3913 9.47992C26.1412 9.47992 25.8356 9.56199 25.6412 9.46624C25.3772 9.32946 25.0161 9.0559 25.0022 8.82337C24.9883 8.60452 25.3494 8.23521 25.5995 8.16682C26.1273 8.04371 26.7108 8.00268 27.2525 8.08475C27.5164 8.12578 27.8776 8.46774 27.947 8.72762C28.0582 9.13797 27.7248 9.38417 27.2803 9.41153C26.9747 9.43889 26.683 9.43889 26.3774 9.45256C26.3913 9.46624 26.3913 9.47992 26.3913 9.47992Z" fill="#485079"/>
<path d="M23.3075 4.62417C23.1547 4.48738 22.8908 4.36428 22.8074 4.17279C22.7241 3.98129 22.7519 3.62566 22.8769 3.48888C23.2936 3.0375 23.7659 2.61347 24.2799 2.27152C24.4604 2.14841 24.9049 2.18945 25.0716 2.33991C25.2383 2.47669 25.3356 2.96911 25.2244 3.09221C24.7521 3.61198 24.1826 4.04968 23.6548 4.51474C23.5853 4.56945 23.4742 4.56945 23.3075 4.62417Z" fill="#485079"/>
<path d="M16.4315 1.39611C16.4315 1.12255 16.3482 0.82163 16.4593 0.589101C16.5704 0.342893 16.8482 0.0146168 17.0705 0.000938617C17.2927 -0.0127396 17.7234 0.288181 17.7511 0.493353C17.8484 1.10887 17.8484 1.76542 17.765 2.39462C17.7372 2.61347 17.3066 2.94175 17.1122 2.91439C16.8621 2.87336 16.5843 2.54508 16.4732 2.2852C16.3482 2.02531 16.4315 1.69703 16.4315 1.39611Z" fill="#485079"/>
<path d="M9.49995 2.08002C9.7222 2.17577 9.88889 2.20313 10 2.29887C10.4445 2.66818 10.9168 3.01014 11.278 3.44784C11.4308 3.63934 11.4447 4.15911 11.2919 4.32325C11.1391 4.48738 10.6251 4.5421 10.4029 4.40531C9.93057 4.10439 9.49995 3.70773 9.111 3.2837C8.9582 3.11957 8.91653 2.76393 8.98599 2.54508C9.04155 2.35359 9.31937 2.23048 9.49995 2.08002Z" fill="#485079"/>
<path d="M7.73581 9.45257C7.43021 9.43889 7.09683 9.4936 6.84679 9.38417C6.59675 9.27475 6.24948 8.96015 6.27726 8.76866C6.30505 8.50877 6.62454 8.1121 6.86068 8.08475C7.47188 8.01636 8.11086 8.07107 8.70817 8.16682C8.91653 8.20785 9.22213 8.56348 9.20824 8.75498C9.19435 9.00119 8.93042 9.31578 8.69428 9.42521C8.43035 9.53463 8.06919 9.45257 7.73581 9.45257Z" fill="#485079"/>
<path d="M5.87443 21.4757C5.6105 21.6535 5.33268 21.9955 5.09654 21.9544C4.83261 21.9271 4.48534 21.5714 4.42978 21.3116C4.40199 21.1337 4.80483 20.7097 5.04098 20.696C5.29101 20.6687 5.58272 20.9833 5.86054 21.1337C5.86054 21.2568 5.87443 21.3663 5.87443 21.4757Z" fill="#485079"/>
</svg>
