<svg width="36" height="35" viewBox="0 0 36 35" fill="none" xmlns="http://www.w3.org/2000/svg">
<path d="M34.4116 11.7109C23.481 11.7109 12.667 11.7109 1.76554 11.7109C1.76554 11.988 1.76554 12.2214 1.76554 12.4547C1.76554 18.0984 1.76554 23.7275 1.76554 29.3712C1.76554 30.8733 2.4068 31.5149 3.87879 31.5149C9.00889 31.5149 14.1244 31.5149 19.2545 31.5149C19.4731 31.5149 19.7209 31.4566 19.8958 31.5441C20.0998 31.6462 20.3913 31.9087 20.3767 32.0691C20.3476 32.2878 20.0998 32.5212 19.8812 32.667C19.75 32.7545 19.5023 32.6962 19.3128 32.6962C14.1681 32.6962 9.02346 32.6962 3.86422 32.6962C1.75097 32.667 0.599609 31.5003 0.599609 29.3712C0.599609 21.8317 0.599609 14.3068 0.599609 6.76725C0.599609 4.65268 1.76554 3.50061 3.89336 3.50061C4.70952 3.50061 5.52567 3.50061 6.42926 3.50061C6.42926 3.04853 6.41469 2.66937 6.42926 2.29021C6.48756 0.977721 7.50775 -0.0139361 8.7757 0.000647056C10.0291 0.0152302 11.0347 0.992304 11.093 2.26104C11.1076 2.6402 11.093 3.03395 11.093 3.45686C12.6524 3.45686 14.139 3.45686 15.7567 3.45686C15.7567 3.10687 15.7421 2.7277 15.7567 2.34854C15.8004 1.02147 16.7769 0.0152302 18.0448 0.000647056C19.3565 -0.0139361 20.3767 0.992304 20.4204 2.34854C20.435 2.71312 20.4204 3.06312 20.4204 3.45686C21.9799 3.45686 23.481 3.45686 25.0842 3.45686C25.0842 3.09228 25.0696 2.71312 25.0842 2.33396C25.1279 1.00689 26.1189 0.0152302 27.3869 0.000647056C28.684 -0.0139361 29.7042 1.00689 29.7479 2.36312C29.7625 2.69854 29.7479 3.04853 29.7479 3.50061C30.5786 3.50061 31.3948 3.50061 32.2109 3.50061C34.4408 3.50061 35.5775 4.62352 35.5775 6.84016C35.5775 11.5505 35.5775 16.2609 35.5775 20.9859C35.5775 21.1609 35.6358 21.365 35.563 21.4817C35.4026 21.7296 35.1695 21.9338 34.9654 22.1525C34.776 21.9338 34.5719 21.7442 34.4262 21.4963C34.3533 21.365 34.4116 21.1609 34.4116 21.0004C34.4116 18.1859 34.4116 15.3567 34.4116 12.5422C34.4116 12.2797 34.4116 12.0172 34.4116 11.7109ZM1.78011 10.4422C12.6961 10.4422 23.5393 10.4422 34.4116 10.4422C34.4116 9.02764 34.4408 7.6714 34.397 6.31517C34.3825 5.49851 33.7703 4.76935 32.9688 4.71102C31.9194 4.6381 30.8555 4.69643 29.7479 4.69643C29.7479 5.09018 29.7479 5.42559 29.7479 5.77559C29.7187 7.14641 28.7277 8.16723 27.4306 8.16723C26.1335 8.18182 25.1133 7.16099 25.0842 5.80476C25.0696 5.45476 25.0842 5.09018 25.0842 4.7256C23.4956 4.7256 21.9799 4.7256 20.4204 4.7256C20.4204 5.13393 20.435 5.49851 20.4204 5.86309C20.3767 7.17558 19.3711 8.16723 18.0886 8.18182C16.8206 8.18182 15.8004 7.19016 15.7567 5.87767C15.7421 5.49851 15.7567 5.11935 15.7567 4.74018C14.1536 4.74018 12.6378 4.74018 11.093 4.74018C11.093 5.1631 11.1076 5.52768 11.093 5.87767C11.0347 7.19016 10.0291 8.18182 8.74655 8.18182C7.4786 8.18182 6.47299 7.17558 6.42926 5.86309C6.41469 5.48393 6.42926 5.10476 6.42926 4.68185C6.10863 4.68185 5.90459 4.68185 5.68598 4.68185C4.92813 4.68185 4.18485 4.65268 3.42699 4.69643C2.5234 4.74018 1.80926 5.42559 1.78011 6.32975C1.75097 7.6714 1.78011 9.04222 1.78011 10.4422ZM26.2501 4.06936C26.2501 4.62352 26.2355 5.19226 26.2501 5.74642C26.2792 6.49017 26.7456 6.98599 27.4014 6.98599C28.0573 6.98599 28.5528 6.49017 28.5674 5.76101C28.5819 4.6381 28.5819 3.52978 28.5674 2.40687C28.5528 1.66313 28.0719 1.1673 27.416 1.1673C26.7602 1.1673 26.2792 1.64855 26.2501 2.39229C26.2355 2.96103 26.2501 3.5152 26.2501 4.06936ZM16.9226 4.04019C16.9226 4.62352 16.9081 5.20685 16.9226 5.79017C16.9518 6.51933 17.4473 7.01516 18.1031 7.00058C18.7298 6.98599 19.2254 6.50475 19.2399 5.81934C19.2691 4.68185 19.2691 3.52978 19.2399 2.39229C19.2254 1.66313 18.7153 1.1673 18.0594 1.18189C17.4327 1.19647 16.9518 1.67771 16.9226 2.36312C16.9081 2.91729 16.9226 3.47145 16.9226 4.04019ZM9.92706 4.08394C9.92706 3.50061 9.94163 2.91728 9.92706 2.33396C9.89791 1.64855 9.40239 1.1673 8.76112 1.18189C8.11986 1.18189 7.62434 1.64855 7.60977 2.34854C7.58062 3.5152 7.58062 4.68185 7.60977 5.84851C7.62434 6.53392 8.13444 7.01516 8.76112 7.00058C9.38781 7.00058 9.88333 6.51933 9.91248 5.83392C9.94163 5.2506 9.92706 4.66727 9.92706 4.08394Z" fill="#485079"/>
<path d="M35.5775 27.4754C35.5484 31.6608 32.138 35.0295 27.9261 35.0003C23.7579 34.9711 20.3913 31.5441 20.4204 27.3295C20.4496 23.1588 23.8891 19.8046 28.101 19.8338C32.2401 19.863 35.6067 23.3046 35.5775 27.4754ZM34.4116 27.417C34.4116 23.8879 31.5405 21.015 28.0281 21.0004C24.472 20.9859 21.5864 23.8879 21.6009 27.4462C21.6155 30.9608 24.5012 33.8336 28.0281 33.8191C31.5259 33.8336 34.4116 30.9316 34.4116 27.417Z" fill="#485079"/>
<path d="M7.58062 18.6671C5.35078 18.6671 5.26333 18.5796 5.26333 16.3338C5.26333 14.8901 5.56939 14.5838 6.99765 14.5838C7.5369 14.5838 8.06157 14.5693 8.60081 14.5838C9.48983 14.5984 9.91248 15.0359 9.92706 15.9401C9.94163 16.3776 9.92706 16.8151 9.92706 17.2526C9.91248 18.2442 9.50441 18.6525 8.51336 18.6671C8.20731 18.6671 7.88668 18.6671 7.58062 18.6671ZM6.47299 17.4567C7.24541 17.4567 7.97412 17.4567 8.7174 17.4567C8.7174 16.8734 8.7174 16.3338 8.7174 15.8088C7.94497 15.8088 7.20169 15.8088 6.47299 15.8088C6.47299 16.3776 6.47299 16.9026 6.47299 17.4567Z" fill="#485079"/>
<path d="M14.5908 18.6671C12.3464 18.6671 12.2589 18.5796 12.2589 16.3484C12.2589 14.8755 12.5504 14.5838 14.0515 14.5838C14.6054 14.5838 15.1592 14.5693 15.7276 14.5838C16.4563 14.613 16.8935 15.0505 16.9226 15.7651C16.9518 16.2755 16.9372 16.7859 16.9226 17.2963C16.9081 18.2296 16.4854 18.6525 15.5381 18.6671C15.2175 18.6671 14.9114 18.6671 14.5908 18.6671ZM15.713 17.4713C15.713 16.8734 15.713 16.3338 15.713 15.8088C14.926 15.8088 14.1973 15.8088 13.4686 15.8088C13.4686 16.3922 13.4686 16.9171 13.4686 17.4713C14.2264 17.4713 14.9406 17.4713 15.713 17.4713Z" fill="#485079"/>
<path d="M21.6009 18.6671C19.3274 18.6671 19.2545 18.5942 19.2545 16.2901C19.2545 14.9047 19.5751 14.5838 20.9597 14.5838C21.5135 14.5838 22.0673 14.5693 22.6357 14.5838C23.481 14.5984 23.9037 15.0359 23.9328 15.8963C23.9474 16.363 23.9474 16.8151 23.9328 17.2817C23.9182 18.2296 23.4956 18.6525 22.5628 18.6671C22.2276 18.6671 21.9216 18.6671 21.6009 18.6671ZM22.7231 15.7942C21.9216 15.7942 21.2074 15.7942 20.4642 15.7942C20.4642 16.363 20.4642 16.9026 20.4642 17.4567C21.2366 17.4567 21.9653 17.4567 22.7231 17.4567C22.7231 16.888 22.7231 16.363 22.7231 15.7942Z" fill="#485079"/>
<path d="M28.6111 14.5838C30.8264 14.5838 30.9284 14.6713 30.9284 16.9171C30.9284 18.3609 30.6223 18.6671 29.1941 18.6671C28.6548 18.6671 28.1301 18.6817 27.5909 18.6671C26.7019 18.6525 26.2792 18.2151 26.2647 17.3109C26.2501 16.8442 26.2501 16.3922 26.2647 15.9255C26.2792 15.0213 26.7019 14.5984 27.6055 14.5838C27.9261 14.5693 28.2613 14.5838 28.6111 14.5838ZM29.7187 15.7942C28.9172 15.7942 28.203 15.7942 27.4597 15.7942C27.4597 16.3776 27.4597 16.9026 27.4597 17.4567C28.2322 17.4567 28.9754 17.4567 29.7187 17.4567C29.7187 16.8734 29.7187 16.3484 29.7187 15.7942Z" fill="#485079"/>
<path d="M14.5762 29.167C12.3464 29.167 12.2589 29.0795 12.2589 26.8337C12.2589 25.39 12.565 25.0837 13.9932 25.0837C14.5471 25.0837 15.1009 25.0691 15.6693 25.0837C16.4708 25.1129 16.9081 25.5504 16.9226 26.3671C16.9372 26.8483 16.9372 27.3295 16.9226 27.8254C16.9081 28.7295 16.4854 29.1524 15.5818 29.1816C15.2466 29.1816 14.9114 29.167 14.5762 29.167ZM15.7421 26.2941C14.9406 26.2941 14.2119 26.2941 13.4831 26.2941C13.4831 26.8775 13.4831 27.417 13.4831 27.942C14.2701 27.942 14.9989 27.942 15.7421 27.942C15.7421 27.3733 15.7421 26.8775 15.7421 26.2941Z" fill="#485079"/>
<path d="M7.5369 29.167C5.36535 29.167 5.26333 29.0649 5.26333 26.8629C5.26333 25.3754 5.55482 25.0837 7.04138 25.0837C7.58062 25.0837 8.10529 25.0691 8.64453 25.0837C9.48983 25.0983 9.91248 25.5358 9.94163 26.3962C9.9562 26.8775 9.9562 27.3587 9.94163 27.8545C9.92706 28.7149 9.48983 29.1379 8.64453 29.167C8.2656 29.1816 7.90125 29.167 7.5369 29.167ZM6.45841 27.942C7.27456 27.942 8.00327 27.942 8.7174 27.942C8.7174 27.3587 8.7174 26.8337 8.7174 26.2941C7.94497 26.2941 7.21627 26.2941 6.45841 26.2941C6.45841 26.8629 6.45841 27.3879 6.45841 27.942Z" fill="#485079"/>
<path d="M7.62434 19.8338C9.83961 19.8338 9.94163 19.9213 9.94163 22.1671C9.94163 23.6108 9.63557 23.9171 8.20731 23.9171C7.65349 23.9171 7.09967 23.9317 6.53128 23.9171C5.7297 23.8879 5.29248 23.4504 5.27791 22.6338C5.26333 22.1525 5.26333 21.6713 5.27791 21.1754C5.29248 20.2713 5.71513 19.8484 6.61873 19.8338C6.93936 19.8192 7.27456 19.8338 7.62434 19.8338ZM8.73198 21.0442C7.94497 21.0442 7.21627 21.0442 6.50213 21.0442C6.50213 21.6275 6.50213 22.1671 6.50213 22.7067C7.27456 22.7067 7.9887 22.7067 8.73198 22.7067C8.73198 22.1525 8.73198 21.6275 8.73198 21.0442Z" fill="#485079"/>
<path d="M14.5616 23.9171C12.3609 23.9171 12.2589 23.815 12.2589 21.6421C12.2589 20.1109 12.5358 19.8338 14.0807 19.8338C14.5616 19.8338 15.0426 19.8338 15.5381 19.8338C16.4854 19.8484 16.9226 20.2567 16.9372 21.2046C16.9518 21.6421 16.9372 22.0796 16.9372 22.5171C16.9226 23.5087 16.5146 23.9171 15.5235 23.9317C15.1883 23.9171 14.8823 23.9171 14.5616 23.9171ZM13.4686 22.6921C14.2556 22.6921 14.9843 22.6921 15.6984 22.6921C15.6984 22.1088 15.6984 21.5692 15.6984 21.0296C14.926 21.0296 14.2119 21.0296 13.4686 21.0296C13.4686 21.5984 13.4686 22.1233 13.4686 22.6921Z" fill="#485079"/>
<path d="M20.4059 21.0004C20.537 21.7588 20.0852 22.5317 20.9014 23.0567C20.9888 23.115 21.0034 23.465 20.916 23.5817C20.7848 23.7421 20.537 23.8879 20.333 23.9025C19.7937 23.9317 19.2982 23.4212 19.2691 22.8233C19.2399 22.1963 19.2254 21.5546 19.2691 20.9275C19.3128 20.2859 19.7063 19.8921 20.3476 19.8484C21.12 19.8046 21.907 19.79 22.6648 19.8629C22.898 19.8921 23.1166 20.2421 23.3353 20.4463C23.1021 20.6359 22.8689 20.9567 22.6211 20.9859C21.9216 21.0442 21.222 21.0004 20.4059 21.0004Z" fill="#485079"/>
<path d="M26.7893 29.5462C28.2322 28.1025 29.573 26.7462 30.9284 25.4191C31.2636 25.0983 31.6134 24.4421 32.1672 25.0108C32.721 25.5796 32.0652 25.915 31.73 26.2504C30.3163 27.6795 28.8734 29.0941 27.4743 30.5378C27.0225 31.0045 26.6582 31.0337 26.2064 30.5524C25.536 29.8524 24.8364 29.167 24.1514 28.4962C23.8599 28.2045 23.583 27.8837 23.9619 27.5045C24.37 27.0816 24.7052 27.3879 25.0113 27.6941C25.5797 28.2775 26.1626 28.8899 26.7893 29.5462Z" fill="#485079"/>
</svg>
