<svg width="40" height="40" viewBox="0 0 40 40" fill="none" xmlns="http://www.w3.org/2000/svg">
<path d="M23.1714 6.32704C23.2798 5.96748 23.3883 5.57665 23.5122 5.1233C22.908 4.96697 22.3348 4.87317 21.8391 4.63867C21.5602 4.49798 21.2194 4.09152 21.2349 3.82576C21.2814 3.3255 21.7152 3.26297 22.1954 3.38804C23.7136 3.81013 25.2318 4.21658 26.75 4.62304C27.1838 4.74811 27.5556 4.9357 27.4317 5.48286C27.3077 6.03001 26.874 6.01438 26.4402 5.92058C25.9135 5.77988 25.3867 5.62355 24.7981 5.46722C24.6741 5.87368 24.5657 6.2645 24.4572 6.65533C31.0568 9.3911 34.7594 14.2061 34.3101 21.4754C33.8918 28.3226 29.8794 32.5436 23.4503 34.6384C23.915 35.889 24.3798 37.124 24.8445 38.359C24.922 38.5779 25.0924 38.8124 25.0614 39.0156C25.0149 39.3439 24.8445 39.6722 24.7361 40.0005C24.4417 39.8285 23.9925 39.7035 23.884 39.4533C23.3108 38.1089 22.8151 36.7488 22.3348 35.3731C22.1954 34.9823 22.025 34.826 21.6067 34.8729C17.9196 35.295 14.3255 34.2007 11.2736 31.9026C10.1581 32.825 9.02724 33.7473 7.89632 34.6853C7.7414 34.8103 7.58648 35.0292 7.41607 35.0605C7.10623 35.1074 6.76541 35.0448 6.45557 35.0136C6.50205 34.6853 6.44008 34.2476 6.64147 34.0756C7.57099 33.2158 8.57797 32.4341 9.55396 31.6212C9.77085 31.4336 9.98774 31.2617 10.2201 31.0741C5.27818 25.3993 4.14727 19.1774 8.19067 12.674C11.5679 7.20248 16.8507 5.37342 23.1714 6.32704ZM16.1071 8.0623C14.2945 8.64072 12.7763 9.5318 11.3355 10.8606C11.6609 11.142 11.9397 11.3452 12.1876 11.5797C12.5129 11.8924 12.6214 12.2519 12.2651 12.5959C11.9087 12.9398 11.5369 12.7991 11.2581 12.4708C11.0257 12.1894 10.8708 11.8611 10.6539 11.5172C9.24412 13.143 8.3301 14.6438 7.80337 16.4572C8.22165 16.5823 8.62444 16.6135 8.93428 16.8168C9.16666 16.9887 9.27511 17.3639 9.43003 17.6453C9.16666 17.786 8.88781 18.0205 8.62444 18.0361C8.26813 18.0518 7.89632 17.8798 7.47804 17.786C7.04427 19.6151 7.04426 21.3816 7.46255 23.2107C7.88083 23.1169 8.25264 22.9605 8.62444 22.9762C8.9033 22.9918 9.16666 23.2263 9.44552 23.367C9.27511 23.6484 9.18216 24.0236 8.93428 24.1799C8.63994 24.3831 8.22165 24.4144 7.80337 24.5395C8.37657 26.3529 9.25961 27.8849 10.6229 29.4013C10.9173 29.0261 11.1032 28.6353 11.413 28.4321C11.6299 28.2914 12.1256 28.2914 12.2805 28.4321C12.4355 28.5884 12.42 29.073 12.296 29.3075C12.1101 29.6515 11.7693 29.9172 11.4595 30.2299C12.8692 31.4649 14.372 32.4029 16.169 32.9187C16.293 32.481 16.3239 32.0902 16.4944 31.8088C16.6493 31.5743 16.9746 31.4492 17.238 31.2773C17.4084 31.5587 17.6718 31.8244 17.7027 32.1215C17.7337 32.481 17.5633 32.8718 17.4858 33.2939C19.2984 33.716 21.0335 33.7317 22.8461 33.3096C22.7531 32.8875 22.5982 32.5436 22.6292 32.1996C22.6602 31.887 22.877 31.6056 23.0165 31.3085C23.2953 31.4961 23.6671 31.6368 23.853 31.9026C24.0389 32.184 24.0699 32.5748 24.1629 32.9656C25.9599 32.3872 27.4937 31.4961 28.9654 30.1361C28.6556 29.8859 28.3767 29.6827 28.1288 29.4639C27.819 29.1668 27.6641 28.7916 28.0049 28.4477C28.3457 28.1038 28.733 28.1976 29.0119 28.5415C29.2442 28.8229 29.4147 29.1512 29.647 29.4951C31.0413 27.9006 31.9398 26.3842 32.4821 24.5864C32.1257 24.4769 31.7694 24.4457 31.5061 24.2581C31.2427 24.0705 30.8709 23.7266 30.8864 23.4608C30.9174 22.9136 31.3976 22.9136 31.8469 23.0074C32.1722 23.07 32.4821 23.1638 32.8384 23.2419C33.2567 21.3972 33.2722 19.6463 32.8384 17.8173C32.4356 17.9111 32.0948 18.083 31.7539 18.0518C31.4441 18.0361 31.1652 17.8173 30.8709 17.6766C31.0568 17.3796 31.1807 17.0044 31.4441 16.8168C31.7075 16.6135 32.1103 16.5979 32.5285 16.4885C31.9398 14.6907 31.0568 13.143 29.802 11.7673C29.4766 12.08 29.2442 12.4083 28.9189 12.5959C28.671 12.7209 28.3302 12.6428 28.0204 12.6584C28.0204 12.3301 27.9119 11.9549 28.0514 11.7048C28.2218 11.3609 28.5781 11.1107 28.8724 10.7981C27.4627 9.54743 25.9599 8.62509 24.1629 8.09356C24.0544 8.50002 24.0235 8.89085 23.8376 9.17224C23.6671 9.42237 23.3263 9.54743 23.0475 9.73503C22.8925 9.45363 22.6447 9.17224 22.6137 8.87521C22.5827 8.51565 22.7531 8.12483 22.8461 7.71837C21.0335 7.29628 19.2829 7.28065 17.4704 7.73401C17.5633 8.17173 17.7337 8.57819 17.7337 8.96901C17.7337 9.21914 17.5013 9.64123 17.3309 9.6725C17.0831 9.70376 16.6958 9.50053 16.5563 9.28167C16.2775 8.95338 16.2465 8.53129 16.1071 8.0623Z" fill="#485079"/>
<path d="M8.7174 5.31089C8.81035 2.63765 10.7778 0.402134 13.427 0.0425758C15.8747 -0.285717 18.3224 1.34011 19.0196 3.74759C19.2674 4.60741 19.066 4.95133 18.1985 4.9826C15.3789 5.10766 12.8692 6.06128 10.6384 7.79654C9.98774 8.29679 9.63142 8.21863 9.33708 7.45261C9.07371 6.76476 8.91879 6.03001 8.7174 5.31089ZM10.375 6.34267C12.5439 4.81064 14.9142 3.95082 17.4858 3.68506C16.9591 1.91853 14.8057 0.933656 12.9002 1.52771C10.8863 2.15303 9.70888 4.29475 10.375 6.34267Z" fill="#485079"/>
<path d="M38.0902 10.8919C38.0282 12.205 37.331 13.612 35.9213 14.6438C35.2551 15.1284 34.8833 15.019 34.558 14.2373C33.489 11.5954 31.7694 9.5318 29.3992 7.99977C28.7485 7.57768 28.733 7.18685 29.2752 6.62406C30.7005 5.1702 33.0243 4.71684 34.9298 5.54539C36.8818 6.3583 38.1211 8.28116 38.0902 10.8919ZM35.5495 13.1743C37.1297 11.6892 37.1761 9.26604 35.7664 7.71837C34.3256 6.13944 31.8314 6.07691 30.7005 7.26502C32.8074 8.78142 34.4186 10.7355 35.5495 13.1743Z" fill="#485079"/>
<path d="M37.0212 20.0372C36.9747 24.602 35.6734 28.2601 33.0708 31.4649C32.7609 31.8401 32.4201 32.2465 31.9244 31.8401C31.4286 31.4336 31.7539 31.0115 32.0638 30.6363C35.0692 26.8688 36.2311 22.5853 35.472 17.786C35.3946 17.317 35.3946 16.848 35.9832 16.7542C36.5874 16.6604 36.7114 17.1451 36.7733 17.5984C36.8818 18.552 36.9747 19.5056 37.0212 20.0372Z" fill="#485079"/>
<path d="M3.18677 21.022C3.24873 16.4572 4.50358 12.846 7.02877 9.68813C7.13722 9.54743 7.24566 9.32857 7.38509 9.2973C7.66394 9.21914 8.09772 9.12534 8.25264 9.26604C8.40756 9.40674 8.37657 9.84446 8.31461 10.1415C8.26813 10.3447 8.05124 10.5167 7.91182 10.7043C5.12326 14.378 4.02333 18.5051 4.72047 23.0856C4.73596 23.2107 4.75145 23.3357 4.76695 23.4764C4.82891 23.9298 4.674 24.3362 4.20924 24.305C3.96136 24.2893 3.55857 23.9298 3.5121 23.6797C3.32619 22.6322 3.24873 21.5692 3.18677 21.022Z" fill="#485079"/>
<path d="M0.599609 20.3342C0.677069 16.6135 1.65306 13.1587 3.60505 10.0008C3.85292 9.59433 4.16276 9.25041 4.6585 9.56307C5.12326 9.86009 4.96834 10.2822 4.73596 10.6574C2.7375 13.909 1.79249 17.4421 1.93192 21.2722C1.94741 21.7412 1.88544 22.2102 1.28126 22.2102C0.692561 22.2102 0.615101 21.7412 0.615101 21.2722C0.599609 20.9595 0.599609 20.6469 0.599609 20.3342Z" fill="#485079"/>
<path d="M38.2761 21.022C38.2761 20.5843 38.2761 20.131 38.2761 19.6932C38.2761 19.2243 38.431 18.8178 38.9422 18.8334C39.4534 18.8491 39.5929 19.2555 39.5929 19.7245C39.6703 22.9136 39.0816 25.9777 37.7338 28.8698C37.3775 29.6202 36.9592 30.3237 36.5564 31.0584C36.3396 31.4649 36.0297 31.7775 35.565 31.5118C35.0537 31.2304 35.1777 30.777 35.441 30.3706C36.8818 28.0413 37.7958 25.5243 38.1211 22.8042C38.1986 22.2101 38.2296 21.6161 38.2761 21.022C38.2915 21.022 38.2915 21.022 38.2761 21.022Z" fill="#485079"/>
<path d="M20.0885 22.4915C19.2829 22.4915 18.6013 21.9444 18.245 21.1627C18.121 20.897 17.8267 20.6156 17.5478 20.5062C16.8507 20.256 16.1226 20.0841 15.3944 19.8965C14.9142 19.7714 14.3255 19.6776 14.4959 18.9898C14.6818 18.2394 15.286 18.5051 15.7662 18.6302C16.5099 18.8178 17.2535 19.0679 18.0126 19.2086C18.2604 19.2555 18.5393 19.0992 18.8027 19.021C18.8646 19.0054 18.9111 18.896 18.9886 18.8803C20.166 18.6615 20.1814 17.6453 20.4138 16.7699C20.7392 15.5349 21.049 14.3155 21.3898 13.0805C21.5138 12.6271 21.6532 12.08 22.2729 12.2519C22.8925 12.4239 22.7841 12.9242 22.6447 13.4088C22.2264 14.9564 21.8236 16.5197 21.3898 18.0674C21.2659 18.5364 21.2194 18.896 21.6222 19.318C22.1644 19.8965 22.1799 20.6469 21.8236 21.366C21.5138 22.0695 20.8166 22.4915 20.0885 22.4915ZM20.104 21.4441C20.3983 20.9751 20.7237 20.7094 20.6772 20.4905C20.6462 20.256 20.2899 19.959 20.042 19.9121C19.8871 19.8808 19.5153 20.2717 19.5153 20.4905C19.5153 20.725 19.8096 20.9751 20.104 21.4441Z" fill="#485079"/>
</svg>
