<svg width="529" height="610" viewBox="0 0 529 610" fill="none" xmlns="http://www.w3.org/2000/svg">
<path d="M274.94 1C426.335 1 528 137.23 528 305.371V609H22V305.237C22 137.23 123.665 1 274.94 1Z" stroke="#76C4EF" stroke-opacity="0.3" stroke-width="0.75" stroke-miterlimit="10"/>
<path d="M470.274 111.47L473.99 114.173L480.748 119.579L475.342 112.821L472.47 109.274L490.208 108.429L512 107.416L490.208 106.402L472.301 105.726L475.173 101.841L480.41 94.9146L473.652 100.489L470.274 103.361L469.429 85.7922L468.416 64L467.402 85.7922L466.726 103.53L463.01 100.827L456.083 95.4214L461.658 102.179L464.361 105.726L446.792 106.402L425 107.416L446.792 108.429L464.53 109.274L461.658 112.821L456.421 119.748L463.179 114.342L466.726 111.47L467.402 129.208L468.416 151L469.429 129.208L470.274 111.47Z" fill="#76C4EF"/>
<path d="M470.568 111.066L469.818 110.52L469.774 111.446L468.93 129.184L468.93 129.185L468.416 140.238L467.902 129.189L467.901 129.185L467.226 111.451L467.188 110.453L466.412 111.081L462.866 113.951L462.864 113.953L459.233 116.858L462.052 113.129L464.919 109.588L465.54 108.821L464.554 108.774L446.816 107.93L446.815 107.93L435.762 107.416L446.811 106.902L446.815 106.901L464.38 106.226L465.342 106.189L464.759 105.423L462.056 101.876L462.05 101.868L462.044 101.86L459.373 98.6232L462.702 101.221L462.709 101.227L462.716 101.232L466.432 103.934L467.19 104.486L467.226 103.549L467.901 85.8155L467.902 85.8113L468.416 74.7616L468.93 85.8155L468.93 85.8162L469.774 103.385L469.823 104.4L470.598 103.742L473.971 100.875L473.976 100.87L477.441 98.012L474.774 101.539L474.771 101.544L471.899 105.429L471.336 106.19L472.282 106.226L490.185 106.901L490.189 106.902L501.238 107.416L490.185 107.93L490.184 107.93L472.446 108.774L471.46 108.821L472.081 109.588L474.951 113.134L474.953 113.136L477.546 116.377L474.303 113.782L474.294 113.775L474.284 113.768L470.568 111.066Z" stroke="#76C4EF" stroke-opacity="0.5"/>
<path d="M22.6617 287.863L22.1654 283L21.5038 287.863C20.1805 299.433 11.4135 308.655 0 310.5C11.4135 312.345 20.1805 321.567 21.5038 333.137L22 338L22.4962 333.137C23.8195 321.567 32.5865 312.345 44 310.5C32.9173 308.655 23.985 299.433 22.6617 287.863Z" fill="#76C4EF"/>
<path d="M22.1642 287.914L22.1642 287.914L22.1649 287.92C23.4195 298.889 31.3839 307.79 41.5884 310.492C31.1064 313.175 23.2586 322.088 22 333.076C20.7426 322.099 12.9092 313.192 2.4428 310.5C12.9089 307.808 20.7423 298.902 21.9999 287.925L22.0945 287.23L22.1642 287.914Z" stroke="#76C4EF" stroke-opacity="0.5"/>
</svg>
